<svg width="128" height="75" viewBox="0 0 128 75" fill="none" xmlns="http://www.w3.org/2000/svg">
<path d="M79.8959 67.4863C100.01 67.4863 109.852 69.9141 114.86 57.3341C119.867 44.754 101.897 26.5741 106.846 16.8768C111.794 7.1795 121.476 9.77644 121.476 9.77644" stroke="#3154CC" stroke-width="13.0105" stroke-linecap="round"/>
<path d="M95.5827 51.9285C95.5267 45.5337 93.9854 39.2393 91.0804 33.5421C88.1753 27.8449 83.9861 22.9007 78.8432 19.0997C73.7003 15.2987 67.7444 12.7449 61.4455 11.6397C55.1467 10.5345 48.6771 10.9083 42.5474 12.7314C36.4177 14.5546 30.7956 17.7773 26.1246 22.1452C21.4536 26.5132 17.8615 31.9068 15.6319 37.9007C13.4022 43.8945 12.596 50.3244 13.2768 56.6832C13.9575 63.0419 16.1067 69.1554 19.5547 74.5414H88.7662C93.2064 67.8351 95.5768 59.9715 95.5827 51.9285Z" fill="#486DEE"/>
<path d="M28.4422 39.78C24.3942 28.1478 6.80629 32.4517 8.50459 44.6422C9.1714 51.695 9.2803 58.7894 8.83029 65.8593C8.01604 70.2796 7.73686 74.281 12.5759 74.7231H26.2553C26.8368 74.7015 27.4107 74.5837 27.9536 74.3742C28.4903 74.1173 28.9845 73.7799 29.4193 73.3737C33.6534 67.767 32.0714 47.4805 28.4422 39.78Z" fill="#3154CC"/>
<path d="M30.4444 60.8131C37.4801 60.8043 44.2949 58.356 49.7276 53.8854C55.1603 49.4148 58.8745 43.1985 60.2373 36.2961C61.6001 29.3937 60.527 22.2324 57.201 16.0325C53.8751 9.83263 48.502 4.97796 41.9976 2.29595C35.4933 -0.386057 28.26 -0.729446 21.5308 1.32428C14.8016 3.37801 8.99279 7.70178 5.09442 13.5587C1.19606 19.4155 -0.550621 26.443 0.152094 33.4435C0.854808 40.444 3.96342 46.9842 8.94812 51.9494C14.6663 57.6201 22.3912 60.8053 30.4444 60.8131Z" fill="#486DEE"/>
<path d="M56.3364 74.4927H37.7249C37.1614 74.4651 36.605 74.3554 36.0732 74.167C35.5453 73.9394 35.0641 73.6161 34.6541 73.2132C34.2613 72.8037 33.939 72.332 33.7002 71.8172C33.4893 71.2837 33.3789 70.7159 33.3745 70.1423V41.0617C33.3744 40.4876 33.485 39.9189 33.7002 39.3867C33.9131 38.8633 34.2287 38.3879 34.6282 37.9883C35.0278 37.5888 35.5033 37.2732 36.0266 37.0603C36.5466 36.8291 37.1094 36.7103 37.6784 36.7113L39.4465 42.9694C41.773 42.9694 45.3557 49.4835 47.7752 51.8332C50.8208 54.7415 53.1609 58.3078 54.6165 62.2595C56.0722 66.2111 56.6048 70.4432 56.1736 74.6323L56.3364 74.4927Z" fill="#3154CC"/>
<path d="M45.0332 39.78C41.0085 28.1478 23.3974 32.4517 25.0957 44.6422C25.7547 51.6956 25.8559 58.79 25.3981 65.8593C24.6071 70.2796 24.3279 74.281 29.1669 74.7231H42.7533C43.3449 74.7244 43.9305 74.6057 44.4749 74.3742C45.0197 74.1316 45.5162 73.7926 45.9406 73.3737C50.291 67.767 48.8021 47.4805 45.0332 39.78Z" fill="#486DEE"/>
</svg>
