<svg width="127" height="152" viewBox="0 0 127 152" fill="none" xmlns="http://www.w3.org/2000/svg">
<path d="M74.1754 107.663C70.4086 104.907 70.888 106.328 66.2993 105.54C61.7347 104.745 57.0486 105.009 52.6019 106.31C48.116 107.629 48.4756 113.416 48.4756 113.416C48.4756 113.416 35.2062 133.277 38.2025 151.084H91.4855C96.1939 140.742 90.013 118.073 74.1754 107.663Z" fill="#DC37A3"/>
<path d="M107.415 150.455C107.588 150.739 107.383 151.084 107.051 151.084C102.831 151.084 87.778 151.084 87.778 151.084C87.778 151.084 80.2767 139.577 90.9537 139.577C100.117 139.577 105.946 148.052 107.415 150.455Z" fill="#DC37A3"/>
<path d="M76.009 107.663C72.2936 104.906 72.7559 106.327 68.2015 105.54C33.3587 99.376 61.1131 123.055 59.5036 127.473C59.5036 127.473 56.6614 138.123 56.2162 141.667L57.0381 151.118H93.1822C97.8222 140.742 91.6241 118.073 76.009 107.663Z" fill="#F158BD"/>
<path d="M26.2528 16.7784C32.5649 11.8945 41.2536 15.8292 41.3764 22.6944C41.4786 28.4076 41.26 34.3542 44.8824 37.0144C45.2027 37.2497 45.3778 37.6525 45.2572 38.0312C42.9027 45.424 35.6053 46.6411 33.1974 41.4839C33.1195 41.317 32.9948 41.1689 32.839 41.0706C21.5704 33.961 19.9855 21.6278 26.2528 16.7784Z" fill="#F158BD"/>
<path d="M37.448 15.9989C39.7401 17.4081 42.5765 19.899 43.874 33.781C44.3573 38.9517 42.8302 41.9459 42.4128 42.6548C42.3473 42.7659 42.2526 42.8531 42.1387 42.9136C41.079 43.4773 35.3963 46.2186 33.19 41.4624C33.1195 41.3104 33.0981 41.1448 33.1267 40.9797C33.4649 39.0246 35.7696 25.7017 37.448 15.9989Z" fill="#F97ECF"/>
<path d="M111.785 31.5804C107.48 24.8599 97.9746 25.6473 95.5528 32.0723C93.5374 37.4192 91.7458 43.0937 87.4402 44.3825C87.0595 44.4965 86.7592 44.817 86.7456 45.2142C86.4799 52.9684 92.9445 56.5661 96.9448 52.5174C97.0743 52.3864 97.2415 52.2888 97.4213 52.2485C110.423 49.3374 116.059 38.2533 111.785 31.5804Z" fill="#F158BD"/>
<path d="M101.504 27.085C98.8713 27.6424 95.3629 29.0357 89.4776 41.6753C87.2854 46.3831 87.718 49.7163 87.873 50.5242C87.8974 50.6509 87.9573 50.7648 88.0442 50.8601C88.853 51.747 93.2846 56.2379 96.9605 52.4993C97.0779 52.3798 97.1537 52.231 97.1822 52.0658C97.5204 50.1107 99.8251 36.7878 101.504 27.085Z" fill="#F158BD"/>
<path d="M52.0885 116.032C73.3115 119.703 96.8693 124.937 109.096 104.97C121.323 85.0016 112.755 40.0218 66.6177 32.0408C20.4807 24.0597 3.08538 64.0273 5.30824 84.7205C7.5311 105.414 30.8655 112.36 52.0885 116.032Z" fill="#F97ECF"/>
<path fill-rule="evenodd" clip-rule="evenodd" d="M60.978 55.2892C60.6442 55.3588 60.3014 55.2927 60.016 55.1062C58.2335 53.9413 51.7513 49.302 52.6757 43.9583C53.1858 41.0094 55.7199 38.9856 58.4716 39.4616C61.0872 39.914 62.2779 42.1914 62.4964 43.3155C62.5049 43.3596 62.5705 43.3689 62.5911 43.329C63.1085 42.3242 64.8063 40.5574 67.4206 41.0096C70.1723 41.4856 71.8461 44.2373 71.336 47.1863C70.3383 52.9536 63.0035 54.8667 60.978 55.2892Z" fill="#FFA1E5"/>
<path d="M49.3685 70.3662C54.21 61.5411 51.5787 50.9649 43.5115 46.4309C35.4444 41.8968 24.9035 45.751 20.0821 54.5619C15.2607 63.3728 17.9132 74.2348 25.9905 78.5062C34.0678 82.7775 44.5129 79.1712 49.3685 70.3662Z" fill="#F97ECF"/>
<path fill-rule="evenodd" clip-rule="evenodd" d="M19.742 66.2461C19.0798 65.5711 19.0902 64.487 19.7653 63.8248C21.3979 62.2233 27.3641 58.5036 33.8596 58.854C40.3451 59.2039 45.7986 62.504 47.4324 64.1944C48.0896 64.8743 48.0711 65.9582 47.3912 66.6154C46.7113 67.2726 45.6274 67.2541 44.9702 66.5742C43.8827 65.449 39.2221 62.5727 33.6752 62.2734C28.1383 61.9747 23.1094 65.3413 22.1633 66.2694C21.4882 66.9316 20.4042 66.9211 19.742 66.2461Z" fill="#2E234D"/>
<path d="M69.8034 73.9019C68.2077 63.9633 74.2389 54.8855 83.3603 53.3248C92.4818 51.7642 101.115 58.9353 102.697 68.8538C104.278 78.7723 98.1314 88.1121 89.0886 89.4219C80.0458 90.7318 71.4191 83.8263 69.8034 73.9019Z" fill="#F97ECF"/>
<path fill-rule="evenodd" clip-rule="evenodd" d="M98.3102 79.3806C99.1465 78.9393 99.4667 77.9036 99.0254 77.0673C97.9581 75.0446 93.408 69.6846 87.1143 68.0403C80.8304 66.3985 74.6309 67.881 72.5599 68.9935C71.7269 69.441 71.4143 70.4791 71.8618 71.3121C72.3093 72.1451 73.3474 72.4576 74.1804 72.0101C75.5589 71.2696 80.8741 69.9492 86.2487 71.3534C91.6135 72.7551 95.3783 77.4933 95.9968 78.6654C96.4381 79.5017 97.4739 79.8219 98.3102 79.3806Z" fill="#2E234D"/>
<path d="M39.7769 70.9596C49.5314 67.6459 51.5366 72.952 57.9539 73.7679C61.9238 74.7967 67.2902 71.14 75.3906 76.4731C83.491 81.8063 88.1566 98.3386 82.6608 106.074C77.1651 113.81 67.2371 112.061 51.7919 109.389C36.3468 106.717 26.0246 103.68 24.0141 94.9859C22.0037 86.2921 30.0223 74.2733 39.7769 70.9596Z" fill="#DC37A3"/>
<ellipse cx="45.6203" cy="80.3226" rx="4.41526" ry="5.04146" transform="rotate(-20.4974 45.6203 80.3226)" fill="#C2208A"/>
<ellipse cx="4.41526" cy="5.04146" rx="4.41526" ry="5.04146" transform="matrix(-0.764631 -0.644468 -0.644468 0.764631 72.575 82.8299)" fill="#C2208A"/>
<circle cx="93.0673" cy="42.127" r="7.91557" transform="rotate(-145.966 93.0673 42.127)" fill="#E9FDEE"/>
<circle cx="91.4318" cy="30.7804" r="7.91557" transform="rotate(-145.966 91.4318 30.7804)" fill="#E9FDEE"/>
<circle cx="82.2787" cy="36.8698" r="7.91557" transform="rotate(-145.966 82.2787 36.8698)" fill="#E9FDEE"/>
<circle cx="88.7246" cy="36.7274" r="5.78675" transform="rotate(-175.748 88.7246 36.7274)" fill="#FFD874"/>
<path d="M49.1958 151.066H32.4507C32.2417 151.109 32.0262 151.109 31.8172 151.066C31.6116 150.986 31.4291 150.857 31.2864 150.689C31.1364 150.535 31.025 150.347 30.9611 150.141C30.9195 149.926 30.9195 149.705 30.9611 149.491C31.38 147.229 32.63 145.206 34.4652 143.819C36.3003 142.432 38.588 141.782 40.8782 141.997C43.1684 142.211 45.2954 143.275 46.8409 144.979C48.3865 146.682 49.2387 148.903 49.2301 151.203L49.1958 151.066Z" fill="#DC37A3"/>
<path d="M65.8904 151.066H49.1282C48.9119 151.083 48.6947 151.047 48.4947 150.964C48.2921 150.887 48.1103 150.764 47.9639 150.604C47.8217 150.44 47.7165 150.247 47.6557 150.039C47.6128 149.83 47.6128 149.614 47.6557 149.406C48.0746 147.144 49.3246 145.12 51.1598 143.734C52.9949 142.347 55.2826 141.697 57.5728 141.912C59.863 142.126 61.99 143.19 63.5355 144.894C65.0811 146.597 65.9333 148.817 65.9246 151.118L65.8904 151.066Z" fill="#F158BD"/>
<path d="M45.675 90.3025L42.1436 89.1352L30.4323 124.566L33.9637 125.734L45.675 90.3025Z" fill="#FFD073"/>
<path d="M29.5418 101.261C29.5969 101.054 29.7931 100.918 30.0065 100.939L52.1499 103.086C52.3639 103.107 52.5327 103.279 52.5492 103.493L52.9608 108.849C52.9818 109.124 52.7499 109.348 52.4768 109.318L28.625 106.688C28.356 106.658 28.1755 106.395 28.245 106.134L29.5418 101.261Z" fill="#E6F3FF"/>
<path d="M26.7932 133.835C26.7865 135.436 28.0046 136.785 29.5972 136.939L46.1354 138.542C47.728 138.697 49.1655 137.606 49.4446 136.031L54.1977 109.213C54.3327 108.451 53.7867 107.732 53.0162 107.658L28.3454 105.266C27.5749 105.191 26.9101 105.793 26.9069 106.567L26.7932 133.835Z" fill="#BADFFF"/>
<path d="M44.6802 122.954C44.0011 122.452 43.4335 121.814 43.0132 121.081C42.6003 120.353 42.3444 119.547 42.2618 118.715C42.1125 117.335 42.3385 115.941 42.9161 114.679C43.4845 113.417 44.3902 112.337 45.5334 111.557C46.6652 110.762 47.9906 110.287 49.3697 110.183C50.7488 110.078 52.1306 110.347 53.3694 110.962C55.5927 112.104 60.5363 115.174 64.156 116.638C67.7758 118.102 71.9171 119.521 77.896 119.9L74.445 135.616C68.9751 134.71 62.1125 132.406 57.3136 130.272C52.5148 128.137 48.6835 125.807 44.6802 122.954Z" fill="#F158BD"/>
<path d="M32.5523 114.647C33.0575 115.409 33.405 116.264 33.5744 117.163C33.7438 118.061 33.7316 118.984 33.5385 119.878C33.3454 120.772 32.9754 121.617 32.4502 122.366C31.925 123.114 31.2553 123.75 30.4806 124.235C29.2771 125.123 27.8321 125.625 26.3371 125.673C24.836 125.709 23.3581 125.297 22.0909 124.492C20.8351 123.67 19.8563 122.489 19.2821 121.102C18.7079 119.715 18.565 118.188 18.872 116.719C19.1985 115.261 19.9491 113.932 21.0293 112.901C22.1226 111.872 23.5012 111.197 24.9845 110.966C26.47 110.745 27.9876 110.978 29.3381 111.635C30.6887 112.292 31.8091 113.342 32.5523 114.647Z" fill="#F158BD"/>
<path d="M49.4804 90.6054C50.1266 85.33 41.0117 84.7374 41.0117 84.7374C41.0117 84.7374 36.9019 85.3661 38.0919 89.7285C39.2819 94.0909 48.8342 95.8807 49.4804 90.6054Z" fill="#DC37A3"/>
<path d="M36.0797 86.2466C36.0797 86.2466 36.0724 88.2075 39.1213 90.9527C42.1702 93.698 45.9391 93.8332 45.9391 93.8332" stroke="#A9006F" stroke-width="2.64189" stroke-miterlimit="10" stroke-linecap="round"/>
<path d="M33.151 87.0083C33.151 87.0083 34.058 86.9924 35.5399 86.0262C37.0218 85.06 37.7117 83.5511 37.7117 83.5511" stroke="#A9006F" stroke-width="2.64189" stroke-miterlimit="10" stroke-linecap="round"/>
</svg>
