<svg width="157" height="81" viewBox="0 0 157 81" fill="none" xmlns="http://www.w3.org/2000/svg">
<path d="M142.298 57.632C145.618 50.7083 145.506 39.8756 131.874 35.1557C120.244 31.1295 122.129 28.9085 116.315 18.8241C112.194 9.45499 100.99 0.765837 76.7437 0.0312049C56.4952 -0.581558 46.6476 7.94133 42.1032 15.8082C39.438 20.4221 38.5872 25.7171 27.8946 28.8618C19.4913 31.3345 13.3238 42.387 16.6678 49.3153C7.92281 49.9167 2.0071 56.9999 0.363574 64.3736C-2.04306 75.1618 7.93771 80.6983 17.3342 80.6983H136.698C158.566 80.4068 164.124 58.8541 142.298 57.632Z" fill="#19193D"/>
<path d="M65.4436 25.2292C67.1625 25.3261 68.8717 24.911 70.3547 24.0365C71.8377 23.162 73.0281 21.8673 73.7752 20.3162C74.5223 18.7651 74.7928 17.0272 74.5521 15.3224C74.3115 13.6177 73.5705 12.0225 72.4232 10.7389C71.2759 9.45515 69.7738 8.54054 68.1066 8.1107C66.4395 7.68086 64.6823 7.75512 63.0574 8.32404C61.4324 8.89297 60.0126 9.93102 58.9777 11.3069C57.9428 12.6828 57.3391 14.3347 57.2431 16.0537C57.1138 18.3579 57.9051 20.6191 59.443 22.3399C60.9809 24.0606 63.1394 25.0999 65.4436 25.2292Z" fill="white"/>
<path d="M63.1379 20.8557C63.993 20.9045 64.8434 20.6985 65.5814 20.2637C66.3193 19.8289 66.9117 19.185 67.2834 18.4134C67.6552 17.6417 67.7897 16.7772 67.6698 15.9291C67.55 15.081 67.1813 14.2875 66.6102 13.6492C66.0392 13.0108 65.2916 12.5562 64.462 12.3429C63.6325 12.1296 62.7584 12.1673 61.9502 12.4511C61.1421 12.7349 60.4363 13.2522 59.9223 13.9373C59.4083 14.6224 59.1091 15.4446 59.0627 16.2998C59.0005 17.444 59.3946 18.5661 60.1585 19.4202C60.9225 20.2742 61.9939 20.7904 63.1379 20.8557Z" fill="#19193D"/>
<path d="M89.7098 7.95851C88.0125 8.24702 86.4389 9.03238 85.188 10.2153C83.9371 11.3982 83.0651 12.9256 82.6823 14.6041C82.2995 16.2827 82.423 18.037 83.0374 19.6453C83.6518 21.2536 84.7293 22.6436 86.1337 23.6395C87.5381 24.6353 89.2063 25.1923 90.9273 25.24C92.6483 25.2877 94.3447 24.8239 95.8021 23.9074C97.2595 22.9908 98.4124 21.6626 99.1148 20.0908C99.8173 18.519 100.038 16.7742 99.7486 15.077C99.5569 13.9504 99.1451 12.8726 98.5369 11.9052C97.9286 10.9377 97.1358 10.0995 96.2036 9.43852C95.2714 8.7775 94.2181 8.30658 93.1039 8.05263C91.9896 7.79869 90.8363 7.76671 89.7098 7.95851Z" fill="white"/>
<path d="M92.5273 12.2781C91.6828 12.4207 90.8995 12.8106 90.2767 13.3986C89.654 13.9865 89.2196 14.746 89.0286 15.5809C88.8377 16.4158 88.8987 17.2886 89.2041 18.0888C89.5094 18.889 90.0453 19.5806 90.7439 20.0761C91.4425 20.5715 92.2725 20.8486 93.1286 20.8722C93.9847 20.8957 94.8287 20.6648 95.5535 20.2085C96.2783 19.7523 96.8514 19.0912 97.2003 18.309C97.5493 17.5268 97.6583 16.6587 97.5136 15.8146C97.32 14.685 96.6864 13.6784 95.7516 13.0154C94.8168 12.3525 93.6573 12.0873 92.5273 12.2781Z" fill="#19193D"/>
<path fill-rule="evenodd" clip-rule="evenodd" d="M101.806 36.4602C102.934 38.1444 105.356 42.8772 102.194 47.6191C101.121 49.2283 99.3257 50.8459 96.7138 51.4537C94.4893 51.9714 92.6195 51.5122 91.7602 51.262C90.8485 50.9965 89.9952 50.6251 89.5271 50.4214L89.5261 50.421C89.3498 50.3442 89.1903 50.2741 89.0391 50.2076C88.666 50.0436 88.3431 49.9017 87.9425 49.7371C86.1078 48.9835 83.0984 47.9521 77.8164 48.1061C73.6887 48.2265 71.3054 49.2421 69.3337 50.1487C69.2486 50.1878 69.1449 50.2367 69.0249 50.2933C68.1392 50.7114 66.3689 51.547 64.6823 51.9233C63.4934 52.1886 61.9461 52.3496 60.2054 52.0079C58.4209 51.6577 56.9059 50.8724 55.6697 49.8961L55.6696 49.8959C52.9893 47.7789 52.3824 44.8488 52.37 43.0257C52.3575 41.2 52.8728 39.6462 53.3847 38.5377C54.4358 36.2611 56.1882 34.2933 58.225 32.7211C62.42 29.4829 68.7057 27.1971 77.162 26.9055L77.1623 26.9055C84.9953 26.6356 91.4548 28.4571 96.0203 31.1963C98.2375 32.5266 100.347 34.2805 101.806 36.4602ZM67.5908 45.6462C67.5877 45.6501 67.5861 45.652 67.5861 45.652C67.586 45.652 67.5876 45.65 67.5908 45.6462Z" fill="#0F3985"/>
<path fill-rule="evenodd" clip-rule="evenodd" d="M91.6934 42.5784C84.3059 37.5122 71.9673 36.4716 64.1581 43.7665C63.4686 44.4105 62.3875 44.3737 61.7434 43.6842C61.0993 42.9947 61.1361 41.9136 61.8256 41.2695C71.1008 32.6052 85.2821 34.0384 93.6259 39.7605C94.4041 40.2941 94.6023 41.3575 94.0686 42.1357C93.535 42.9138 92.4716 43.112 91.6934 42.5784Z" fill="#19193D"/>
</svg>
