<svg width="225" height="225" viewBox="0 0 225 225" fill="none" xmlns="http://www.w3.org/2000/svg">
<g clip-path="url(#clip0_14_2526)">
<rect width="225" height="225" fill="white"/>
<g clip-path="url(#clip1_14_2526)">
<path d="M399 -103H0V296H399V-103Z" fill="#AEECFF"/>
<path d="M224.492 104.791C212.301 54.6518 153.056 22.9153 105.153 43.9408C82.6602 0.982449 41.5335 -18.0904 0 -17.951V177.562H346.925C340.836 121.455 276.865 81.8518 224.492 104.791Z" fill="white"/>
<path d="M399 296V164.596C349.382 143.195 278.374 129.791 199.5 129.791C120.626 129.791 49.6178 143.195 0 164.596V296H399Z" fill="#357A64"/>
<path d="M15.8833 197.597C10.4508 197.597 5.14531 198.131 0 199.116V275.31H99.6409C96.414 231.857 60.1618 197.597 15.8833 197.597Z" fill="#296851"/>
<path d="M271.019 204.758C244.576 204.758 222.191 222.104 214.604 246.035H327.434C319.847 222.104 297.461 204.758 271.019 204.758Z" fill="#296851"/>
<path d="M158.552 111.633C152.032 108.87 143.758 112.647 135.14 122.488C135.132 122.496 135.124 122.503 135.117 122.512C135.113 122.517 135.109 122.522 135.105 122.527C133.292 124.6 131.465 126.939 129.636 129.544C121.738 139.739 116.474 146.527 115.22 147.605C106.727 147.304 95.1413 149.754 82.0366 147.715L79.4893 160.756C79.4893 160.756 96.8607 167.797 114.683 167.797C124.565 167.797 137.278 158.209 144.997 151.129C144.996 151.129 144.997 151.13 144.997 151.129L144.999 151.127C146.283 149.949 147.434 148.838 148.405 147.855C151.439 144.865 155.996 137.503 154.456 130.935C161.103 120.686 165.786 114.699 158.552 111.633Z" fill="#563B96"/>
<path d="M330.294 97.7599C320.306 108.296 302.562 122.717 295.987 136.39C289.021 133.972 243.378 113.506 217.071 124.635L234.995 168.065L303.599 168.069C303.599 168.069 304.738 161.124 302.647 153.277C309.78 155.036 317.202 160.846 317.202 160.846L345.294 113.658C345.294 113.658 339.926 104.58 330.294 97.7599Z" fill="#5182BE"/>
<path d="M203.367 120.013C192.313 117.932 179.795 109.81 167.436 105.886C161.208 103.909 155.078 106.639 150.658 110.297C147.946 112.542 145.953 115.422 144.661 118.715L141.99 115.878C141.99 115.878 141.98 115.885 141.96 115.901C138.176 118.922 138.319 126.73 139.529 132.006C141.23 139.432 145.573 147.318 154.537 155.829C154.562 155.853 154.581 155.855 154.605 155.875C161.657 163.122 170.911 168.158 180.908 168.158L234.995 168.065C234.995 168.065 244.238 142.963 234.61 115.16C225.754 119.409 213.464 121.915 203.367 120.013Z" fill="#724EB4"/>
<path d="M146.409 100.855L146.398 100.869L135.422 108.013C135.422 108.013 142.929 117.241 144.099 118.86C148.501 118.22 155.059 114.034 157.945 106.24C151.377 99.5756 150.827 96.3744 147.319 87.6905L146.409 100.855Z" fill="#F2A5AF"/>
<path d="M148.828 45.0119C127.782 35.8932 104.286 39.7637 98.433 54.4119C92.2983 69.8662 100.546 74.8875 103.554 86.4003C103.812 88.8897 103.29 89.9089 102.033 90.6509C100.374 91.6346 99.2608 91.5948 98.2236 92.6009C96.8907 93.8945 97.2485 98.8474 103.95 99.4102L103.965 99.4786C105.258 105.71 109.649 110.215 112.634 113.376C115.318 116.177 115.891 120.348 121.786 119.938C126.449 119.597 148.282 112.412 152.997 98.8543C157.286 86.5354 148.924 69.6376 148.924 69.6376L148.828 45.0119Z" fill="#F2A5AF"/>
<path d="M112.983 106.971C115.437 106.788 119.898 104.509 122.612 100.389C119.325 103.273 115.189 105.011 110.828 105.34C109.461 105.448 109.888 107.263 112.983 106.971Z" fill="#D05A84"/>
<path d="M107.325 68.9241C105.702 69.6584 106.13 70.6083 107.001 71.1114C107.498 71.4274 108.062 71.6248 108.648 71.6898C109.234 71.7547 109.826 71.6846 110.381 71.4854C113.31 70.5286 116.375 70.0533 119.457 70.0775C117.707 68.8531 115.669 68.1024 113.543 67.9007C111.417 67.6981 109.274 68.0513 107.325 68.9241Z" fill="#CB5350"/>
<path d="M112.362 75.633L112.33 75.6399C112.035 77.7008 112.234 79.8023 112.91 81.7713C113.587 83.7403 114.721 85.5206 116.22 86.9657C116.22 86.9657 121.994 85.7665 126.484 79.0065C121.73 74.8364 116.834 73.903 112.362 75.633Z" fill="white"/>
<path d="M115.093 79.0385C113.372 79.8317 112.854 82.3783 113.936 84.7248C115.018 87.0714 117.29 88.3312 119.011 87.5372C120.732 86.7432 121.25 84.1975 120.168 81.8509C119.086 79.5044 116.814 78.2454 115.093 79.0385Z" fill="#1A81A0"/>
<path d="M115.676 86.409C114.357 84.8798 113.586 83.7403 112.91 81.7713C112.234 79.8023 112.035 77.7008 112.33 75.64L108.23 82.1618L111.061 92.9274L123.781 91.6216L127.633 82.2267L126.484 79.0065C120.981 85.3128 115.676 86.409 115.676 86.409Z" fill="#F2A5AF"/>
<path d="M183.676 73.5956C183.821 70.6256 182.394 65.0311 182.542 60.8117C183.014 47.406 178.868 35.1286 163.297 32.247C145.538 15.9978 108.899 23.1266 93.1168 41.1994C86.6338 48.6226 84.346 55.4865 86.7063 66.5568L89.7724 66.0087C95.0095 65.0718 99.5545 62.1261 103.074 58.1352C106.184 63.0664 112.233 61.9235 112.233 61.9235C112.042 58.7509 112.84 54.5513 115.744 50.9795L115.74 51.08C115.53 56.3714 120.502 60.3978 125.715 59.4652L130.288 58.6461C130.288 58.6461 134.881 79.4672 148.399 98.5418C160.278 114.757 178.9 106.643 190.35 95.3319C181.849 95.2142 179.703 89.3547 179.703 89.3547C179.703 89.3547 189.735 90.8146 194.646 82.8173C194.646 82.8173 182.505 80.3893 183.676 73.5956Z" fill="#CB5350"/>
<path d="M176.869 20.4657C155.341 13.9482 129.127 17.1702 109.071 28.7297C102.714 32.3933 97.8908 35.9036 93.1167 41.1994C108.097 36.4829 125.748 46.0145 139.962 59.1656C151.966 70.2732 168.53 76.0807 183.676 73.5956L182.542 60.8117C189.706 59.4895 193.524 51.37 191.347 44.8872C197.791 47.5195 204.055 44.6672 204.365 40.0616C204.858 32.7301 190.547 24.6064 176.869 20.4657Z" fill="#00062A"/>
<path d="M182.563 60.8073C171.791 59.2106 161.186 54.0768 152.857 46.3704C139.914 34.3952 122.891 27.2716 109.077 28.7393C102.72 32.4028 97.8902 35.9045 93.1167 41.1994C107.515 37.6873 125.748 46.0146 139.962 59.1656C151.966 70.2732 168.53 76.0807 183.676 73.5956C183.676 73.5956 186.483 66.6997 182.542 60.8117C182.538 60.8056 182.556 60.8082 182.563 60.8073Z" fill="#201B4A"/>
<path d="M125.529 86.3553C141.718 89.8067 143.146 80.0464 143.146 80.0464L129.738 57.0208C133.773 66.8417 134.266 81.7756 125.529 86.3553Z" fill="#CB5350"/>
<path d="M39.1768 94.451L18.384 115.911L9.21519 125.374C8.56521 126.046 8.44963 127.07 8.93393 127.869L42.7232 183.594L51.2155 197.599L84.1323 163.626L42.4087 94.816C41.7109 93.6644 40.1132 93.4848 39.1768 94.451Z" fill="#DA77D7"/>
<path d="M40.4314 96.7052L10.9648 127.118L20.0734 139.775L56.6556 136.827L50.7433 98.8788L40.4314 96.7052Z" fill="#F0D4CB"/>
<path d="M18.3829 128.69L16.3687 135.617L27.6215 140.712L64.2037 137.762L71.2423 132.686L50.7436 98.8804L18.3829 128.69Z" fill="#E6B8B1"/>
<path d="M16.1479 128.216L20.0733 139.777L56.6555 136.828L82.3048 105.548L69.0071 102.74L16.1479 128.216Z" fill="#F0D4CB"/>
<path d="M86.3712 101.456C85.8225 100.551 84.6761 100.212 83.7227 100.671L23.519 129.775L66.6228 200.86L126.47 171.929C127.562 171.402 127.963 170.049 127.335 169.013L86.3712 101.456Z" fill="#D873E5"/>
<path d="M93.404 125.206C91.4854 121.801 87.266 120.449 83.7259 122.107L46.6522 139.467C42.6399 141.346 41.1345 146.284 43.4162 150.08L65.6505 187.089C67.6627 190.437 71.9155 191.67 75.4072 189.917L110.847 172.124C114.66 170.21 116.098 165.498 114.005 161.78L93.404 125.206Z" fill="#EB81ED"/>
<path d="M8.65211 126.629C8.6156 127.053 8.70187 127.488 8.93421 127.871L42.7235 183.596L51.2157 197.6L66.6232 200.862L23.5194 129.777L8.65211 126.629Z" fill="#EB81ED"/>
<path d="M78.6718 147.646C76.333 145.886 73.8951 145.179 71.3605 145.528C68.826 145.878 66.669 147.232 64.8931 149.592C64.3872 150.264 63.9832 150.927 63.6775 151.578C63.3728 152.231 63.1641 152.905 63.0494 153.598L58.3965 148.825L65.462 139.436L61.5307 136.477L51.8247 149.376L63.2971 161.113L67.0338 158.175C66.7002 157.448 66.6192 156.641 66.7939 155.755C66.97 154.87 67.3651 154.014 67.9847 153.191C68.9465 151.913 70.1081 151.184 71.4664 151.001C72.8241 150.82 74.1531 151.218 75.4523 152.195C76.7306 153.157 77.4601 154.317 77.6425 155.675C77.8249 157.033 77.4279 158.362 76.4496 159.662C75.5531 160.854 74.5096 161.586 73.3188 161.861C72.1281 162.135 70.94 161.912 69.7543 161.188L67.5826 166.373C69.8412 167.564 72.1279 167.818 74.4401 167.132C76.7537 166.448 78.7667 164.967 80.4777 162.693C82.4497 160.073 83.2655 157.378 82.9232 154.61C82.5802 151.843 81.1632 149.521 78.6718 147.646Z" fill="#F0B0F4"/>
<path d="M93.9191 139.062H87.2103L74.8081 158.457V163.052H88.5926V169.558H93.9191V163.052H98.2294V158.132H93.9191V139.062ZM88.5926 158.132H80.5412L88.5926 145.569V158.132Z" fill="#FBC5FF"/>
<path d="M33.1416 130.83L33.6588 138.726L34.9039 138.155L34.7205 135.799L37.1559 134.68L38.8171 136.355L40.1151 135.76L34.4671 130.221L33.1416 130.83ZM34.6165 134.534L34.416 131.927L36.2559 133.782L34.6165 134.534Z" fill="#00062A"/>
<path d="M43.1631 129.614C42.5372 129.36 41.9113 129.379 41.2845 129.667C41.0103 129.793 40.7768 129.967 40.5839 130.185C40.392 130.404 40.253 130.656 40.167 130.941L39.8531 130.446L38.832 130.915L41.7998 137.37L42.9371 136.848L41.8139 134.405C42.0777 134.507 42.3481 134.551 42.6242 134.541C42.9002 134.528 43.1706 134.464 43.4335 134.343C44.0669 134.052 44.4895 133.588 44.7032 132.951C44.9159 132.314 44.8696 131.66 44.5623 130.994C44.255 130.325 43.7889 129.865 43.1631 129.614ZM43.4987 132.63C43.39 132.97 43.1536 133.223 42.7896 133.39C42.4323 133.554 42.0891 133.568 41.761 133.428C41.4339 133.29 41.1795 133.025 40.999 132.632C40.8165 132.236 40.7815 131.871 40.8902 131.535C41.0009 131.2 41.2344 130.949 41.5918 130.784C41.9567 130.618 42.3027 130.605 42.6308 130.743C42.9579 130.881 43.2103 131.145 43.39 131.533C43.5696 131.926 43.6065 132.291 43.4987 132.63Z" fill="#00062A"/>
<path d="M47.4724 126.941L46.9222 130.696L45.5929 127.805L44.5 128.306L46.562 132.791L47.654 132.29L48.2061 128.535L49.5354 131.426L50.6274 130.923L48.5654 126.438L47.4724 126.941Z" fill="#00062A"/>
<path d="M54.9414 124.3C54.3164 124.081 53.6537 124.115 52.9531 124.4L51.9368 122.19L50.8448 122.693L51.8611 124.903C51.1823 125.251 50.7219 125.734 50.4798 126.346C50.2369 126.961 50.2652 127.59 50.5621 128.235C50.858 128.88 51.3194 129.309 51.9481 129.529C52.5759 129.746 53.2396 129.712 53.9401 129.425L54.8374 131.378L55.9293 130.875L55.0321 128.922C55.7043 128.577 56.1619 128.097 56.403 127.481C56.6431 126.862 56.6157 126.233 56.3198 125.588C56.0258 124.949 55.5663 124.521 54.9414 124.3ZM52.4378 128.494C52.124 128.362 51.8763 128.101 51.6985 127.713C51.517 127.318 51.4782 126.963 51.5813 126.643C51.6843 126.323 51.9245 126.064 52.3017 125.862L53.4996 128.468C53.1072 128.621 52.7527 128.628 52.4378 128.494ZM55.2987 127.18C55.1985 127.503 54.9631 127.768 54.5915 127.965L53.3937 125.359C53.787 125.21 54.1377 125.197 54.4469 125.325C54.7561 125.456 55 125.717 55.1824 126.112C55.3602 126.499 55.3999 126.857 55.2987 127.18Z" fill="#00062A"/>
<path d="M60.197 121.091L59.7072 123.66L57.4117 122.373L56.2573 122.902L58.3193 127.387L59.3933 126.894L58.031 123.931L60.2433 125.179L60.4853 125.069L60.9646 122.571L62.3308 125.544L63.4048 125.05L61.3428 120.565L60.197 121.091Z" fill="#00062A"/>
<path d="M66.9561 122.148C66.8237 122.343 66.6214 122.501 66.3463 122.628C66.0059 122.785 65.6921 122.825 65.4037 122.747C65.1153 122.672 64.8686 122.481 64.6634 122.176L68.0036 120.641C67.9828 120.55 67.9573 120.457 67.928 120.368C67.8959 120.276 67.8618 120.191 67.8231 120.106C67.5271 119.463 67.0781 119.034 66.4787 118.82C65.8783 118.608 65.2496 118.652 64.5925 118.954C63.9184 119.264 63.4656 119.743 63.2349 120.389C63.0032 121.034 63.0458 121.7 63.3597 122.384C63.6792 123.08 64.151 123.536 64.7797 123.761C65.4075 123.988 66.0797 123.935 66.7954 123.606C67.3333 123.358 67.7314 123.027 67.9923 122.609C68.2523 122.193 68.3487 121.73 68.2797 121.219L67.1338 121.486C67.1461 121.734 67.0866 121.953 66.9561 122.148ZM64.4148 120.454C64.5405 120.21 64.7447 120.024 65.0255 119.896C65.311 119.763 65.5786 119.731 65.8263 119.797C66.075 119.866 66.2886 120.032 66.4673 120.295L64.3004 121.291C64.2484 120.974 64.2862 120.696 64.4148 120.454Z" fill="#00062A"/>
<path d="M71.8073 116.948L71.3544 115.963L67.3779 117.791L67.8317 118.777L69.2556 118.122L70.8647 121.622L71.9926 121.102L70.3835 117.602L71.8073 116.948Z" fill="#00062A"/>
<path d="M75.1502 114.221L74.599 117.976L73.2697 115.085L72.1777 115.588L74.2397 120.073L75.3317 119.57L75.8829 115.815L77.2122 118.706L78.3051 118.205L76.2431 113.719L75.1502 114.221Z" fill="#00062A"/>
<path d="M81.7769 111.173L80.4334 111.792L79.9248 113.989L79.4322 114.214L78.6872 112.595L77.5508 113.117L79.6128 117.602L80.7492 117.08L79.9304 115.299L80.4051 115.08L82.5673 116.245L83.9107 115.626L81.0432 114.061L81.7769 111.173Z" fill="#00062A"/>
<path d="M85.929 109.742C85.4345 109.572 84.8739 109.628 84.2471 109.918C83.71 110.163 83.3196 110.498 83.0747 110.918C82.8308 111.338 82.7561 111.803 82.8506 112.306L84.0154 112.009C83.971 111.756 84.0031 111.532 84.1109 111.343C84.2177 111.154 84.4031 110.997 84.6659 110.876C84.9108 110.765 85.1301 110.727 85.322 110.77C85.5149 110.81 85.6841 110.929 85.8307 111.12L84.8039 111.909C84.2518 112.327 83.8972 112.722 83.7356 113.087C83.5749 113.454 83.5815 113.826 83.7545 114.202C83.9407 114.607 84.2225 114.87 84.5978 114.987C84.9732 115.104 85.3787 115.061 85.8146 114.86C86.119 114.72 86.3696 114.529 86.5662 114.291C86.7648 114.053 86.8962 113.777 86.9614 113.465L87.3216 114.059L88.3247 113.597L87.0815 110.893C86.8082 110.298 86.4225 109.914 85.929 109.742ZM86.3507 113.089C86.2211 113.414 85.98 113.656 85.6283 113.818C85.4544 113.898 85.3041 113.919 85.1736 113.879C85.0441 113.843 84.9448 113.748 84.8767 113.599C84.8105 113.455 84.8058 113.317 84.8644 113.181C84.9221 113.047 85.0535 112.899 85.2625 112.739L86.2448 111.952L86.2939 112.058C86.4622 112.425 86.4802 112.765 86.3507 113.089Z" fill="#00062A"/>
<path d="M140.431 159.465C139.056 159.351 137.959 159.115 137.242 158.547L138.029 169.868C138.029 169.868 174.203 175.628 182.656 170.105L162.83 155.9C156.498 157.163 146.143 159.94 140.431 159.465Z" fill="#F2A5AF"/>
<path d="M130.184 153.191C125.237 150.686 124.765 147.008 123.696 147.367C122.11 147.901 120.183 152.134 125.816 155.744C125.816 155.744 127.26 156.902 126.869 159.771L138.386 159.322C138.386 159.322 135.131 155.695 130.184 153.191Z" fill="#F2A5AF"/>
<path d="M163.321 115.301C154.268 117.796 153.685 129.075 155.678 135.351C159.42 147.134 162.197 149.53 163.348 154.696C155.491 156.264 148.152 159.467 140.431 159.465C140.431 159.465 140.072 168.808 143.923 174.495C143.923 174.495 178.75 177.863 188.077 170.105C193.557 165.547 186.68 137.977 182.573 128.272C178.269 118.098 172.388 112.837 163.321 115.301Z" fill="#7E5AC7"/>
<path d="M117.918 154.724C107.971 154.792 102.119 158.266 102.78 160.442C103.745 163.623 106.378 160.026 115.917 159.872C107.933 161.074 99.9257 166.347 103.788 169.692C105.632 173.99 110.769 169.246 117.341 168.737C113.129 170.866 109.658 173.735 110.733 175.232C111.987 176.977 117.407 170.184 124.267 171.823C134.902 174.508 138.769 169.434 138.769 169.434L139.529 159.741C139.529 159.741 127.057 153.855 117.918 154.724Z" fill="#F2A5AF"/>
<path d="M105.881 167.934C111.015 165.043 113.829 163.794 119.269 163.052C114.747 162.498 110.493 164.019 105.881 167.934Z" fill="#E08B94"/>
</g>
</g>
<defs>
<clipPath id="clip0_14_2526">
<rect width="225" height="225" fill="white"/>
</clipPath>
<clipPath id="clip1_14_2526">
<rect width="399" height="399" fill="white" transform="translate(0 -103)"/>
</clipPath>
</defs>
</svg>
