<svg width="169" height="202" viewBox="0 0 169 202" fill="none" xmlns="http://www.w3.org/2000/svg">
<path d="M141.255 128.405C141.255 128.405 159.881 129.267 164.979 125.668C170.15 122.018 170.15 66.3572 165.587 60.2742C160.828 53.9289 115.707 44.4578 111.143 43.2411C106.58 42.0244 86.8107 46.2828 86.8107 46.2828L141.255 128.405Z" fill="#FA8658"/>
<path d="M90.0909 103.742C85.6425 100.406 83.8271 53.8795 89.2569 49.8076C91.4808 48.1395 143.191 60.928 144.303 65.9323C145.475 71.2015 143.469 123.761 139.021 124.871C134.573 125.981 94.5389 107.078 90.0909 103.742Z" fill="#750C6E"/>
<path d="M87.7234 105.289C82.8566 101.64 80.8706 50.7379 86.8109 46.2829C89.2443 44.4578 145.817 58.4492 147.034 63.9238C148.315 69.6888 146.121 127.188 141.255 128.405C136.389 129.622 92.5922 108.939 87.7234 105.289Z" fill="#750C6E"/>
<mask id="mask0_16_23555" style="mask-type:luminance" maskUnits="userSpaceOnUse" x="85" y="49" width="60" height="76">
<mask id="mask1_16_23555" style="mask-type:luminance" maskUnits="userSpaceOnUse" x="85" y="49" width="60" height="76">
<path d="M90.0905 103.742C85.642 100.406 83.8266 53.8795 89.2564 49.8076C91.4804 48.1395 143.191 60.928 144.303 65.9323C145.475 71.2015 143.469 123.761 139.021 124.871C134.573 125.981 94.5384 107.078 90.0905 103.742Z" fill="white"/>
</mask>
<g mask="url(#mask1_16_23555)">
<path d="M87.724 105.289C82.8572 101.64 80.8712 50.7379 86.8115 46.2829C89.2449 44.4578 145.818 58.4492 147.034 63.9238C148.316 69.6888 146.122 127.188 141.256 128.405C136.389 129.622 92.5928 108.939 87.724 105.289Z" fill="white"/>
</g>
</mask>
<g mask="url(#mask0_16_23555)">
<path d="M110.421 41.0956C110.421 41.0956 101.702 93.2079 106.771 101.115C111.84 109.022 169.022 126.056 169.022 126.056L176.93 52.8564L110.421 41.0956Z" fill="#8A0A80"/>
</g>
<path d="M147.034 63.9238C145.817 58.4492 89.2443 44.4578 86.8109 46.2829C80.8706 50.7379 82.8566 101.64 87.7234 105.289C92.5901 108.939 136.388 129.622 141.255 128.405C146.122 127.188 148.315 69.6888 147.034 63.9238ZM139.021 124.871C134.573 125.983 94.539 107.078 90.091 103.742C85.6431 100.406 83.8272 53.8795 89.257 49.8076C91.4809 48.1395 143.192 60.9279 144.303 65.9323C145.475 71.2015 143.469 123.759 139.021 124.871Z" fill="#B038A1"/>
<path d="M74.9485 200.794C82.2481 203.836 133.955 190.452 140.038 180.112C146.122 169.772 142.472 132.664 141.255 128.405C140.038 124.147 92.1258 106.969 87.7232 105.289C83.3206 103.609 32.235 118.485 29.7859 120.116C24.3108 123.766 27.6526 166.808 28.1081 169.771C29.3248 177.679 67.6489 197.753 74.9485 200.794Z" fill="#A62293"/>
<mask id="mask2_16_23555" style="mask-type:luminance" maskUnits="userSpaceOnUse" x="26" y="105" width="118" height="97">
<path d="M74.9482 200.795C82.2479 203.836 133.955 190.452 140.038 180.112C146.121 169.772 142.471 132.664 141.255 128.405C140.038 124.147 92.1255 106.969 87.723 105.289C83.3204 103.609 32.2348 118.485 29.7856 120.116C24.3105 123.766 27.6524 166.808 28.1079 169.771C29.3245 177.679 67.6486 197.753 74.9482 200.795Z" fill="white"/>
</mask>
<g mask="url(#mask2_16_23555)">
<path d="M91.3731 146.046C91.3731 146.046 83.4652 185.587 92.5898 186.195C101.714 186.803 132.13 174.637 132.13 174.637L130.913 131.447L147.337 126.58L166.195 193.495L73.1239 219.652L12.9009 175.854L20.2005 106.506L29.7862 120.116L36.4775 124.374C36.4775 124.374 31.1502 161.863 33.5835 165.513C36.0169 169.163 63.7969 185.791 66.2298 183.965C68.6627 182.139 67.0409 141.788 67.0409 141.788C67.0409 141.788 74.9489 148.479 78.5989 149.088C82.249 149.696 91.3731 146.046 91.3731 146.046Z" fill="#FA8658"/>
<path d="M29.0424 120.589C29.0424 124.036 67.9529 150.308 78.8017 151.116C89.8401 151.937 141.255 128.405 141.255 128.405L160.721 116.644L77.585 83.7953C77.585 83.7953 29.0424 117.142 29.0424 120.589Z" fill="#B038A1"/>
<path d="M31.8809 121.13C30.867 123.698 69.2385 147.718 79.6125 148.007C87.0812 148.215 136.806 131.095 136.116 128C135.708 126.175 91.2357 107.385 85.9639 106.776C80.6921 106.168 32.4067 119.8 31.8809 121.13Z" fill="#800977"/>
</g>
<path d="M95.1942 159.426L105.231 156.821C105.404 156.777 105.565 156.694 105.699 156.577C105.834 156.46 105.939 156.314 106.006 156.149L109.49 147.451C109.813 146.697 111.172 146.504 111.516 147.265L116.017 155.621C116.123 155.788 116.275 155.921 116.455 156.003C116.635 156.085 116.835 156.113 117.031 156.083L126.725 155.986C126.93 155.959 127.138 156.002 127.316 156.109C127.493 156.216 127.629 156.38 127.701 156.575C127.772 156.769 127.776 156.982 127.71 157.178C127.645 157.375 127.514 157.543 127.34 157.656L120.136 163.441C119.935 163.494 119.762 163.621 119.652 163.798C119.543 163.975 119.506 164.186 119.548 164.39L122.719 171.621C123.096 172.487 122.141 173.317 121.129 172.864L112.327 169.411C112.131 169.372 111.93 169.373 111.735 169.414C111.54 169.455 111.355 169.536 111.192 169.65L101.9 176.839C101.116 177.514 99.9447 176.881 100.134 176.063L102.025 166.09C102.038 165.927 102.012 165.762 101.948 165.612C101.884 165.461 101.784 165.328 101.657 165.224L94.9241 161.04C94.0646 160.747 94.2975 159.697 95.1942 159.426Z" fill="#F34761"/>
<path d="M79.3136 152.23C77.7684 168.261 77.3518 184.381 78.0669 200.47" stroke="#F06343" stroke-width="2.5475" stroke-miterlimit="10" stroke-linecap="round"/>
<path d="M164.764 60.2559C157.955 60.7838 153.592 61.7905 147.357 63.2294" stroke="#F06343" stroke-width="2.5475" stroke-miterlimit="10" stroke-linecap="round"/>
<path d="M144.872 0.846119C144.197 7.09259 142.426 8.52786 136.431 9.11837C135.418 9.20295 135.333 10.8914 136.346 11.0601C142.257 11.7352 143.859 13.5082 144.534 18.5727C144.619 19.5015 146.476 19.5855 146.56 18.6572C147.235 13.5923 149.346 11.9043 154.495 11.2287C155.677 11.0601 155.592 9.3721 154.411 9.20295C149.177 8.61193 147.489 7.26175 146.814 0.930696C146.802 0.68731 146.7 0.456934 146.528 0.284876C146.355 0.112817 146.125 0.0115277 145.881 0.000925013C145.638 -0.00967765 145.399 0.0711755 145.212 0.227583C145.026 0.38399 144.904 0.604632 144.872 0.846119Z" fill="white"/>
<path d="M13.6053 45.5828C12.7391 53.5992 10.4637 55.4411 2.77228 56.1992C1.47203 56.3078 1.36401 58.4742 2.66375 58.6907C10.2472 59.5568 12.3055 61.8328 13.1722 68.3325C13.2802 69.5242 15.6637 69.6322 15.7707 68.441C16.6368 61.9408 19.3453 59.7744 25.9535 58.9077C27.4703 58.6907 27.3618 56.5243 25.8455 56.3093C19.1288 55.5506 16.9624 53.8173 16.0957 45.6928C16.0792 45.3822 15.9477 45.0888 15.7267 44.8698C15.5058 44.6508 15.2112 44.5219 14.9004 44.5081C14.5896 44.4944 14.2849 44.5969 14.0454 44.7955C13.806 44.9941 13.6491 45.2748 13.6053 45.5828Z" fill="white"/>
<path d="M157.391 16.3477C156.919 20.7121 155.68 21.7142 151.493 22.1269C151.34 22.1577 151.201 22.239 151.1 22.3577C150.998 22.4765 150.939 22.6259 150.932 22.7821C150.926 22.9383 150.971 23.0923 151.062 23.2193C151.153 23.3464 151.284 23.4393 151.434 23.4832C155.561 23.955 156.682 25.1936 157.155 28.7311C157.214 29.3797 158.511 29.4388 158.57 28.7897C159.042 25.2517 160.516 24.0722 164.113 23.6004C164.286 23.5726 164.442 23.4825 164.552 23.3472C164.663 23.212 164.72 23.0409 164.712 22.8665C164.705 22.692 164.634 22.5263 164.513 22.4007C164.392 22.2751 164.228 22.1984 164.054 22.185C160.398 21.7723 159.219 20.8287 158.747 16.4058C158.738 16.2361 158.667 16.0758 158.546 15.9561C158.426 15.8365 158.265 15.7661 158.095 15.7589C157.925 15.7516 157.759 15.8079 157.629 15.9168C157.498 16.0257 157.414 16.1794 157.391 16.3477Z" fill="white"/>
<path d="M33.7454 77.0205C34.0588 75.8125 29.3795 73.8774 28.0696 73.2935C26.7596 72.7096 26.003 72.7448 25.5526 73.7444C25.1593 74.6172 25.4314 75.1873 26.7413 75.7712C28.0512 76.3551 33.5228 77.8831 33.7454 77.0205Z" fill="white"/>
<path d="M30.1977 71.0476C30.9013 70.0169 27.1509 66.615 26.1156 65.622C25.0802 64.629 24.3562 64.4063 23.5945 65.195C22.9322 65.8833 22.9928 66.5126 24.0281 67.5046C25.0634 68.4966 29.6953 71.7844 30.1977 71.0476Z" fill="white"/>
<path d="M40.0628 110.611C38.7799 112.191 31.0039 105.588 22.0775 104.925C13.151 104.262 0.919936 107.083 0.0430851 103.046C-0.833765 99.0085 11.9557 94.0129 22.9762 97.0877C32.1539 99.6474 41.3468 109.032 40.0628 110.611Z" fill="#FF8E00"/>
<path d="M40.977 117.628C40.654 119.637 37.2923 118.428 29.1311 122.099C23.5694 124.6 17.7957 129.875 15.0179 126.815C12.2401 123.754 14.8498 118.288 25.9462 115.499C32.6752 113.808 41.3 115.619 40.977 117.628Z" fill="#FFB710"/>
<path d="M125.374 121.36C126.444 123.092 143.247 115.011 152.182 115.501C161.118 115.99 166.764 117.114 168.152 113.223C169.54 109.332 165.208 104.326 153.878 105.921C142.256 107.556 124.304 119.629 125.374 121.36Z" fill="#FFB710"/>
</svg>
