<svg width="335" height="124" viewBox="0 0 335 124" fill="none" xmlns="http://www.w3.org/2000/svg">
<path d="M0.00012207 61.535C0.00012207 44.6364 3.20433 27.1352 8.38984 16.1798C13.5724 4.85091 20.7334 0.0676089 28.6413 0.0676089C44.4601 -0.36308 57.2857 19.1817 57.2857 53.973C57.2857 87.0816 44.4601 122.578 28.6413 123.009C20.7334 123.009 13.5724 114.032 8.38984 103.111C3.20433 91.8186 0.00012207 78.5853 0.00012207 61.535Z" fill="#FF4747"/>
<path d="M40.9419 52.35C40.9419 18.261 53.7645 0.911455 69.5833 0.0677094C85.4049 -1.6287 98.2275 28.7972 98.2275 63.6931C98.2275 96.6931 85.4021 121.309 69.5833 123.003C53.7617 123.85 40.9419 86.1569 40.9419 52.35Z" fill="#FF4747"/>
<path d="M81.8842 59.3771C81.8842 26.3742 94.7067 1.75799 110.526 0.0677208C126.341 -0.778997 139.172 36.9104 139.17 70.7203C139.17 104.806 126.341 122.156 110.526 123.003C94.7099 124.696 81.8816 94.2701 81.8842 59.3771Z" fill="#FF4747"/>
<path d="M122.821 69.1039C122.821 35.9953 135.644 0.498803 151.462 0.0677185C159.373 0.0677185 166.531 9.04201 171.714 19.963C176.9 31.2518 180.107 44.4849 180.107 61.5352C180.107 78.4315 176.9 95.935 171.717 106.89C166.531 118.219 159.37 123.003 151.462 123.003C135.649 123.43 122.821 103.886 122.821 69.1039Z" fill="#FF4747"/>
<path d="M154.068 61.5352C154.068 44.6365 157.275 27.1353 162.458 16.1799C167.641 4.85104 174.802 0.0677309 182.712 0.0677309C198.528 -0.362958 211.354 19.1818 211.354 53.9731C211.354 87.0817 198.528 122.578 182.712 123.009C174.802 123.009 167.641 114.032 162.458 103.111C157.275 91.8187 154.068 78.5854 154.068 61.5352Z" fill="#FF4747"/>
<path d="M195.01 52.35C195.01 18.261 207.833 0.911455 223.655 0.0677094C239.473 -1.6287 252.296 28.7972 252.296 63.6931C252.296 96.6931 239.471 121.309 223.655 123.003C207.83 123.85 195.013 86.1569 195.01 52.35Z" fill="#FF4747"/>
<path d="M235.95 59.3771C235.95 26.3742 248.772 1.75799 264.594 0.0677208C280.41 -0.778997 293.238 36.9104 293.235 70.7203C293.235 104.806 280.41 122.156 264.594 123.003C248.775 124.696 235.95 94.2701 235.95 59.3771Z" fill="#FF4747"/>
<path d="M276.889 69.1039C276.889 35.9953 289.715 0.498803 305.533 0.0677185C313.441 0.0677185 320.602 9.04201 325.785 19.963C330.968 31.2518 334.175 44.4849 334.175 61.5352C334.175 78.4315 330.971 95.935 325.785 106.89C320.602 118.219 313.441 123.003 305.533 123.003C289.715 123.43 276.889 103.886 276.889 69.1039Z" fill="#FF4747"/>
<path d="M153.936 59.7381C162.333 59.7381 169.14 52.8483 169.14 44.3494C169.14 35.8505 162.333 28.9585 153.936 28.9585C145.54 28.9585 138.733 35.8505 138.733 44.3494C138.733 52.8483 145.54 59.7381 153.936 59.7381Z" fill="white"/>
<path d="M180.89 59.74C183.916 59.74 186.873 58.8428 189.389 57.162C191.904 55.4812 193.865 53.0922 195.022 50.2972C196.18 47.5021 196.483 44.4265 195.893 41.4594C195.302 38.4922 193.846 35.7666 191.706 33.6274C189.567 31.4882 186.842 30.0314 183.874 29.4412C180.907 28.851 177.832 29.1539 175.037 30.3116C172.242 31.4694 169.853 33.43 168.172 35.9454C166.491 38.4609 165.594 41.4183 165.594 44.4436C165.594 48.5005 167.206 52.3912 170.074 55.2598C172.943 58.1284 176.834 59.74 180.89 59.74Z" fill="white"/>
<path d="M151.324 52.2775C152.966 52.2775 154.571 51.7907 155.936 50.8786C157.301 49.9665 158.365 48.6701 158.993 47.1533C159.621 45.6365 159.786 43.9675 159.465 42.3573C159.145 40.7471 158.354 39.2681 157.194 38.1072C156.033 36.9463 154.554 36.1557 152.944 35.8355C151.333 35.5152 149.664 35.6796 148.148 36.3079C146.631 36.9361 145.334 38 144.422 39.3651C143.51 40.7301 143.023 42.335 143.023 43.9767C143.023 46.1782 143.898 48.2895 145.455 49.8462C147.011 51.4029 149.123 52.2775 151.324 52.2775Z" fill="#0A2759"/>
<path d="M183.41 51.5308C187.994 51.5308 191.71 47.7717 191.71 43.1371C191.71 38.5026 187.994 34.7411 183.41 34.7411C178.826 34.7411 175.109 38.5004 175.109 43.1371C175.109 47.7739 178.825 51.5308 183.41 51.5308Z" fill="#0A2759"/>
<path d="M168.935 70.1143C135.441 70.1143 124.975 54.8401 124.556 54.1915C124.381 53.8968 124.327 53.5466 124.404 53.213C124.485 52.8751 124.689 52.579 124.974 52.381C125.3 52.2178 125.671 52.168 126.029 52.2393C126.381 52.3069 126.698 52.4942 126.928 52.7694C127.067 52.898 137.116 67.3962 169.074 67.3962H169.493C191.822 67.3962 207.312 53.8036 207.453 53.6748C207.722 53.4357 208.07 53.3035 208.43 53.3035C208.79 53.3035 209.137 53.4357 209.407 53.6748C209.532 53.79 209.633 53.93 209.702 54.0861C209.77 54.2422 209.806 54.4108 209.806 54.5813C209.806 54.7519 209.77 54.9205 209.702 55.0766C209.633 55.2326 209.532 55.3727 209.407 55.4879C208.709 56.1337 192.939 69.9861 169.493 69.9861L168.935 70.1143Z" fill="#0A2759"/>
</svg>
