<svg width="140" height="124" viewBox="0 0 140 124" fill="none" xmlns="http://www.w3.org/2000/svg">
<path d="M0.00012207 61.5351C0.00012207 44.6364 3.20512 27.1353 8.38844 16.1799C13.572 4.85103 20.7326 0.0674805 28.6417 0.0674805C44.4595 -0.36301 57.2857 19.1816 57.2857 53.9729C57.2857 87.0815 44.4595 122.578 28.6417 123.009C20.7326 123.009 13.572 114.032 8.38844 103.111C3.20413 91.8184 0.00012207 78.5854 0.00012207 61.5351Z" fill="#FF4747"/>
<path d="M40.9404 52.3501C40.9404 18.2639 53.7628 0.911488 69.5832 0.0675446C85.4024 -1.62589 98.226 28.7973 98.226 63.6932C98.226 96.6932 85.4 121.309 69.5832 123.003C53.7616 123.85 40.9416 86.157 40.9404 52.3501Z" fill="#FF4747"/>
<path d="M81.882 59.3772C81.882 26.377 94.7053 1.758 110.526 0.0675376C126.34 -0.77918 139.171 36.9104 139.168 70.7203C139.168 104.809 126.342 122.156 110.526 123.003C94.7079 124.699 81.8808 94.2701 81.882 59.3772Z" fill="#FF4747"/>
<path d="M56.4322 58.2028C64.8287 58.2028 71.6353 51.313 71.6353 42.8141C71.6353 34.3152 64.8287 27.4234 56.4322 27.4234C48.0358 27.4234 41.2291 34.3152 41.2291 42.8141C41.2291 51.313 48.0358 58.2028 56.4322 58.2028Z" fill="white"/>
<path d="M83.3867 58.2049C86.412 58.2049 89.3694 57.3077 91.8848 55.6269C94.4003 53.9461 96.3608 51.5571 97.5185 48.7621C98.6763 45.967 98.9792 42.8915 98.3889 39.9243C97.7987 36.9571 96.3418 34.2315 94.2026 32.0923C92.0633 29.9531 89.3378 28.4963 86.3706 27.9061C83.4034 27.3159 80.3278 27.6188 77.5328 28.7765C74.7377 29.9343 72.3488 31.8949 70.668 34.4103C68.9872 36.9258 68.0901 39.8832 68.0901 42.9085C68.0902 46.9654 69.7018 50.856 72.5705 53.7246C75.4391 56.5933 79.3298 58.2049 83.3867 58.2049Z" fill="white"/>
<path d="M53.8199 50.7424C55.4617 50.7424 57.0665 50.2555 58.4316 49.3434C59.7966 48.4313 60.8606 47.1349 61.4888 45.6182C62.1171 44.1014 62.2815 42.4324 61.9612 40.8222C61.6409 39.212 60.8503 37.733 59.6895 36.5721C58.5286 35.4112 57.0495 34.6206 55.4393 34.3003C53.8291 33.98 52.1601 34.1445 50.6434 34.7727C49.1266 35.401 47.8302 36.4649 46.9181 37.83C46.006 39.195 45.5192 40.7999 45.5192 42.4416C45.5192 44.6431 46.3937 46.7544 47.9504 48.3111C49.5071 49.8678 51.6184 50.7424 53.8199 50.7424Z" fill="#0A2759"/>
<path d="M85.906 49.9951C90.4906 49.9951 94.2067 46.2359 94.2067 41.6013C94.2067 36.9667 90.4902 33.2054 85.906 33.2054C81.3217 33.2054 77.6052 36.9646 77.6052 41.6013C77.6052 46.238 81.3213 49.9951 85.906 49.9951Z" fill="#0A2759"/>
<path d="M71.4305 68.5792C37.9366 68.5792 27.4702 53.305 27.0512 52.6564C26.8768 52.3618 26.8223 52.0115 26.899 51.6779C26.9809 51.34 27.184 51.0439 27.4698 50.8459C27.7956 50.6826 28.1667 50.6327 28.5241 50.7042C28.8762 50.7716 29.1941 50.9589 29.4237 51.2342C29.5634 51.3627 39.6115 65.8611 71.57 65.8611H71.9888C94.3181 65.8611 109.809 52.2683 109.948 52.1395C110.218 51.9005 110.565 51.7684 110.925 51.7684C111.285 51.7684 111.633 51.9005 111.902 52.1395C112.028 52.2546 112.129 52.3946 112.197 52.5507C112.266 52.7068 112.302 52.8755 112.302 53.0461C112.302 53.2166 112.266 53.3853 112.197 53.5414C112.129 53.6975 112.028 53.8375 111.902 53.9526C111.204 54.5984 95.4344 68.4508 71.9888 68.4508L71.4305 68.5792Z" fill="#0A2759"/>
</svg>
