<svg width="130" height="132" viewBox="0 0 130 132" fill="none" xmlns="http://www.w3.org/2000/svg">
<path d="M76.8473 38.0865H46.9507V47.925H76.8473V38.0865Z" fill="#F728E3"/>
<path d="M71.9296 23.3285C71.9296 23.3285 88.7698 12.2162 94.2785 23.7322C99.6379 34.9254 76.8488 38.465 76.8488 38.465L47.7088 39.2214C47.7088 39.2214 25.9115 38.4864 31.2513 25.6654C37.6653 9.63839 54.5218 27.4908 54.5218 27.4908C54.5218 27.4908 51.5537 0.734786 69.2795 0C88.9513 0.0204052 71.9296 23.3285 71.9296 23.3285Z" fill="#00EAFF"/>
<path d="M14.5172 71.9679C14.5172 71.9679 7.03408 56.6514 16.6552 48.1028C30.5363 35.7634 46.9292 47.9035 46.9292 47.9035H76.8257C76.8257 47.9035 102.487 32.0766 115.664 44.8976C128.841 57.7186 115.308 70.9007 115.308 70.9007C115.308 70.9007 134.608 82.6311 127.417 101.175C121.742 115.934 95.7199 116.134 95.7199 116.134C92.3927 120.882 87.9661 124.754 82.8181 127.42C77.6699 130.087 71.9535 131.47 66.1557 131.45C60.0691 131.277 54.0976 129.748 48.676 126.977C43.2534 124.204 38.5179 120.257 34.8147 115.422C34.8147 115.422 10.5937 121.1 2.0451 101.175C-6.50349 81.2493 14.5172 71.9679 14.5172 71.9679Z" fill="#00EAFF"/>
<path d="M55.6027 81.5533C57.1599 81.1359 58.6196 80.4159 59.8984 79.4343C61.1773 78.4527 62.2502 77.2289 63.056 75.8325C63.8618 74.4362 64.3846 72.8948 64.5946 71.2964C64.8046 69.698 64.6977 68.0739 64.2799 66.5169C63.438 63.3718 61.3813 60.69 58.5621 59.0612C55.743 57.4325 52.3924 56.9902 49.2472 57.8318C46.1024 58.6753 43.4214 60.7336 41.7941 63.5539C40.1669 66.3741 39.7265 69.7251 40.57 72.87C40.9868 74.4273 41.7063 75.8872 42.6873 77.1664C43.6684 78.4456 44.8918 79.5191 46.2878 80.3254C47.6837 81.1317 49.2248 81.6552 50.8231 81.8659C52.4214 82.0766 54.0455 81.9704 55.6027 81.5533Z" fill="white"/>
<path d="M76.2828 76.111C77.84 75.6937 79.2998 74.9737 80.5786 73.9921C81.8575 73.0105 82.9305 71.7866 83.7363 70.3903C84.5421 68.994 85.0649 67.4526 85.2748 65.8541C85.4848 64.2557 85.3778 62.6316 84.96 61.0746C84.5432 59.5173 83.8238 58.0573 82.8427 56.7781C81.8616 55.4989 80.6382 54.4255 79.2422 53.6192C77.8463 52.8128 76.3052 52.2894 74.7069 52.0787C73.1086 51.868 71.4845 51.9742 69.9273 52.3913C68.3701 52.8086 66.9104 53.5287 65.6316 54.5102C64.3527 55.4918 63.2797 56.7157 62.474 58.112C61.6682 59.5084 61.1454 61.0497 60.9354 62.6481C60.7254 64.2465 60.8323 65.8706 61.2501 67.4277C61.6669 68.985 62.3864 70.4449 63.3675 71.7241C64.3485 73.0033 65.572 74.0768 66.9679 74.8831C68.3639 75.6894 69.905 76.2129 71.5032 76.4236C73.1015 76.6343 74.7256 76.5281 76.2828 76.111Z" fill="white"/>
<path d="M51.6685 77.2449C52.5566 77.0068 53.3891 76.5962 54.1185 76.0364C54.8479 75.4766 55.4599 74.7787 55.9196 73.9824C56.3792 73.186 56.6775 72.3069 56.7974 71.3953C56.9172 70.4837 56.8564 69.5574 56.6182 68.6693C56.3806 67.7812 55.9703 66.9485 55.4108 66.2189C54.8513 65.4893 54.1535 64.877 53.3573 64.4171C52.5612 63.9572 51.6822 63.6586 50.7707 63.5384C49.8591 63.4182 48.9328 63.4788 48.0447 63.7166C47.1566 63.9546 46.3241 64.3653 45.5947 64.9251C44.8653 65.4848 44.2533 66.1828 43.7936 66.9791C43.334 67.7754 43.0357 68.6544 42.9158 69.566C42.7958 70.4776 42.8567 71.4039 43.0947 72.2919C43.3324 73.1802 43.7427 74.0129 44.3023 74.7425C44.8618 75.4721 45.5596 76.0843 46.3557 76.5443C47.1519 77.0042 48.0309 77.3028 48.9424 77.423C49.854 77.5432 50.7803 77.4827 51.6685 77.2449Z" fill="#0A2759"/>
<path d="M77.246 69.697C79.0397 69.2156 80.5686 68.0413 81.4965 66.4327C82.4244 64.824 82.6753 62.9126 82.194 61.1189C81.7136 59.3254 80.5405 57.7961 78.9326 56.8675C77.3247 55.9389 75.4138 55.687 73.6203 56.1672C72.7322 56.4053 71.8998 56.816 71.1706 57.3759C70.4413 57.9357 69.8295 58.6337 69.37 59.4301C68.9105 60.2264 68.6124 61.1054 68.4927 62.017C68.373 62.9285 68.434 63.8548 68.6723 64.7427C69.1525 66.5365 70.3255 68.0661 71.9333 68.9952C73.5411 69.9243 75.4521 70.1767 77.246 69.697Z" fill="#0A2759"/>
<path d="M64.168 89.5286L63.9774 89.5055C48.5711 87.5147 42.6833 82.2073 42.421 81.9808C42.2597 81.7924 42.1694 81.5534 42.1659 81.3053C42.1627 81.0575 42.2469 80.8164 42.4036 80.6244C42.4859 80.5255 42.5869 80.4437 42.7008 80.3837C42.814 80.3243 42.938 80.2883 43.0655 80.2777C43.193 80.2683 43.3211 80.2835 43.4429 80.3225C43.5642 80.3625 43.6765 80.4261 43.7733 80.5095C43.8559 80.6173 49.485 85.6982 64.2249 87.6018C78.9648 89.5054 84.8651 86.4952 84.8775 86.3999C84.988 86.3319 85.1107 86.2862 85.2387 86.2652C85.3672 86.2448 85.4984 86.2496 85.625 86.2794C85.7511 86.3092 85.8702 86.3637 85.9753 86.4395C86.0805 86.5152 86.1696 86.611 86.2376 86.7214C86.3063 86.8316 86.3522 86.9544 86.3725 87.0826C86.3933 87.211 86.389 87.3422 86.3598 87.4689C86.3293 87.5948 86.2751 87.7138 86.1999 87.8194C86.1236 87.9241 86.0278 88.0132 85.9178 88.0816C85.7011 88.2494 79.9535 91.5697 64.168 89.5286Z" fill="#0A2759"/>
<path d="M70.2712 86.1816C70.2712 92.1644 67.6211 93.8711 63.8374 93.8711C60.0537 93.8711 57.4034 92.1644 57.4034 86.1816C57.4034 80.1987 63.8374 72.0811 63.8374 72.0811C63.8374 72.0811 70.2712 79.7709 70.2712 86.1816Z" fill="#F728E3"/>
</svg>
