<svg width="96" height="118" viewBox="0 0 96 118" fill="none" xmlns="http://www.w3.org/2000/svg">
<path d="M59.7097 32.7311H29.6885V42.6126H59.7097V32.7311Z" fill="#F728E3"/>
<path d="M54.7676 17.9107C54.7676 17.9107 63.5082 11.8307 67.6885 16.011C71.8688 20.1913 59.7078 33.111 59.7078 33.111L30.4472 33.8705C30.4472 33.8705 19.8065 31.2113 23.6066 22.0912C27.027 12.971 37.2873 22.0912 37.2873 22.0912C37.2873 22.0912 33.1072 0.808925 44.5077 0.0493755C55.9077 -1.09094 54.7676 17.9107 54.7676 17.9107Z" fill="#00EAFF"/>
<path d="M15.6203 72.6335C13.3935 70.136 11.9532 67.0369 11.4798 63.7245C11.0065 60.412 11.5217 57.0334 12.9609 54.0124C14.7985 51.0071 17.2905 48.4552 20.2513 46.5467C23.2123 44.6386 26.5657 43.423 30.0616 42.9906H60.0829C60.0829 42.9906 76.0437 42.9907 81.3637 52.1128C86.6837 61.2349 80.9837 72.2529 80.9837 72.2529C80.9837 72.2529 100.745 72.6335 93.524 91.2527C87.8236 106.074 68.0627 100.375 68.0627 100.375C68.0627 100.375 71.1031 117.475 50.9619 117.475C30.8208 117.475 29.3011 103.034 29.3011 103.034C29.3011 103.034 3.45998 113.675 0.419996 93.9139C-3.00055 73.393 15.6203 72.6335 15.6203 72.6335Z" fill="#00EAFF"/>
<path d="M36.8626 77.1529C38.4816 77.1525 40.0846 76.8332 41.5802 76.2133C43.0758 75.5934 44.4346 74.685 45.5791 73.5399C46.7236 72.3948 47.6313 71.0354 48.2504 69.5395C48.8696 68.0436 49.188 66.4404 49.1875 64.8214C49.1881 61.552 47.8899 58.4163 45.5786 56.104C43.2672 53.7917 40.132 52.4923 36.8626 52.4915C33.5931 52.4922 30.4578 53.7916 28.1464 56.1039C25.8349 58.4162 24.5367 61.552 24.5372 64.8214C24.5368 66.4404 24.8553 68.0436 25.4744 69.5396C26.0936 71.0355 27.0014 72.3948 28.1459 73.5399C29.2904 74.685 30.6493 75.5934 32.1449 76.2134C33.6405 76.8333 35.2436 77.1526 36.8626 77.1529Z" fill="white"/>
<path d="M58.3349 77.2487C61.6044 77.2479 64.7396 75.9485 67.051 73.6362C69.3625 71.324 70.6607 68.1882 70.6603 64.9188C70.6607 63.2998 70.3422 61.6966 69.723 60.2007C69.1038 58.7048 68.1961 57.3454 67.0516 56.2003C65.907 55.0552 64.5482 54.1468 63.0526 53.5269C61.557 52.9069 59.9539 52.5877 58.3349 52.5873C56.7159 52.5877 55.1129 52.9069 53.6173 53.5269C52.1217 54.1468 50.7628 55.0553 49.6183 56.2004C48.4738 57.3455 47.5661 58.7048 46.9469 60.2007C46.3278 61.6966 46.0093 63.2998 46.0098 64.9188C46.0092 68.1882 47.3075 71.324 49.6189 73.6362C51.9302 75.9485 55.0655 77.2479 58.3349 77.2487Z" fill="white"/>
<path d="M34.1657 71.9516C35.089 71.9514 36.0033 71.7693 36.8562 71.4158C37.7092 71.0622 38.4842 70.5441 39.1369 69.891C39.7896 69.2379 40.3074 68.4627 40.6605 67.6096C41.0136 66.7564 41.1952 65.842 41.1949 64.9187C41.1952 63.9954 41.0136 63.081 40.6605 62.2279C40.3074 61.3747 39.7896 60.5995 39.1369 59.9464C38.4842 59.2933 37.7092 58.7752 36.8562 58.4217C36.0033 58.0681 35.089 57.886 34.1657 57.8858C33.2423 57.886 32.328 58.0681 31.4751 58.4217C30.6221 58.7752 29.8471 59.2933 29.1944 59.9464C28.5417 60.5995 28.0239 61.3747 27.6708 62.2279C27.3177 63.081 27.1361 63.9954 27.1364 64.9187C27.1361 65.842 27.3177 66.7564 27.6709 67.6095C28.024 68.4627 28.5417 69.2379 29.1945 69.891C29.8472 70.544 30.6222 71.0621 31.4751 71.4157C32.3281 71.7692 33.2423 71.9513 34.1657 71.9516Z" fill="#0A2759"/>
<path d="M60.9353 71.2751C62.7998 71.2747 64.5878 70.5338 65.9061 69.2153C67.2243 67.8967 67.9648 66.1085 67.9646 64.244C67.9649 63.3206 67.7832 62.4063 67.4301 61.5532C67.077 60.7 66.5593 59.9247 65.9066 59.2717C65.2538 58.6186 64.4789 58.1005 63.6259 57.747C62.7729 57.3934 61.8586 57.2113 60.9353 57.2111C60.012 57.2113 59.0977 57.3934 58.2447 57.747C57.3918 58.1005 56.6168 58.6186 55.964 59.2717C55.3113 59.9247 54.7936 60.7 54.4405 61.5532C54.0874 62.4063 53.9057 63.3206 53.906 64.244C53.9058 66.1085 54.6463 67.8967 55.9646 69.2153C57.2828 70.5338 59.0708 71.2747 60.9353 71.2751Z" fill="#0A2759"/>
<path d="M47.6983 84.9902H47.5056C31.9065 84.9902 25.3588 80.4637 25.0699 80.2705C24.8847 80.1043 24.7637 79.8782 24.7282 79.6318C24.6932 79.3847 24.746 79.1331 24.8774 78.921C24.946 78.8125 25.0354 78.7187 25.1405 78.645C25.2462 78.5722 25.3651 78.5207 25.4905 78.4934C25.616 78.4663 25.7457 78.4645 25.8719 78.4879C25.9979 78.5129 26.1179 78.562 26.2253 78.6323C26.3218 78.7298 32.5806 83.0634 47.5056 83.0634C62.4305 83.0634 67.9193 79.3071 67.9193 79.2114C68.0203 79.1287 68.1367 79.0669 68.2616 79.0293C68.3868 78.9929 68.5177 78.9807 68.6474 78.9931C68.7771 79.007 68.9028 79.0462 69.0174 79.1085C69.1318 79.1705 69.2328 79.2546 69.3146 79.3558C69.3971 79.4569 69.4587 79.5734 69.4957 79.6985C69.5327 79.823 69.5449 79.9536 69.5317 80.0829C69.5182 80.213 69.4794 80.3393 69.4174 80.4545C69.3549 80.5685 69.271 80.6694 69.1704 80.7517C68.9784 80.9452 63.6824 84.9902 47.6983 84.9902Z" fill="#0A2759"/>
<path d="M54.4175 81.8115C54.4175 87.1319 51.7575 88.651 47.9572 88.651C44.1568 88.651 41.4968 87.1319 41.4968 81.8115C41.4968 76.4911 47.9572 69.2712 47.9572 69.2712C47.9572 69.2712 54.4175 76.1101 54.4175 81.8115Z" fill="#F728E3"/>
</svg>
