<svg width="192" height="128" viewBox="0 0 192 128" fill="none" xmlns="http://www.w3.org/2000/svg">
<rect x="44.9998" width="104" height="8" rx="4" fill="black"/>
<path d="M46.9998 4C46.9998 2.89543 47.8952 2 48.9998 2H145C146.104 2 147 2.89543 147 4C147 5.10457 146.104 6 145 6H48.9998C47.8952 6 46.9998 5.10457 46.9998 4Z" fill="#05D344"/>
<g clip-path="url(#clip0_14_17942)">
<path d="M128.9 74C137.5 75.6 150.5 96.6 154 107.6C158.2 121 168.2 118.6 166.2 110.7C169.1 116.8 178.5 115.8 175.8 107.2C178.9 112.9 184.1 111.3 184.5 106C183.7 87.2 166.9 59.1 143.1 56.1C123.2 53.6 116.4 67.5 128.9 74Z" fill="#070723"/>
<path d="M50.3 46.4C26.6 49.4 9.7 77.5 9 96.3C9.3 101.6 14.5 103.2 17.6 97.4C14.9 106 24.3 107.1 27.2 101C25.2 108.8 35.2 111.2 39.5 97.9C43 86.9 55.9 65.8 64.5 64.3C77.1 57.7 70.2 43.9 50.3 46.4Z" fill="#070723"/>
<path d="M57.2999 98.1C53.7999 104 53.0999 120 55.7999 123.8C58.4999 127.6 76.1999 127 77.9999 125.2C82.3999 120.7 79.0999 100.8 77.5999 98.9C76.0999 97 57.2999 98.1 57.2999 98.1Z" fill="#070723"/>
<path d="M141.9 90.5C145.3 96.4 146 112.4 143.4 116.2C140.8 120 123 119.4 121.2 117.6C116.8 113.1 120.1 93.2 121.5 91.2C122.9 89.2 141.9 90.5 141.9 90.5Z" fill="#070723"/>
<path d="M155.2 81.8C155.3 105.4 144 113.6 102.1 115.6C68.0998 117.2 43.9998 109 43.9998 84.1C43.9998 59.2 52.3998 19.1 101.6 19.9C142.7 18.8 154.9 56.9 155.2 81.8Z" fill="#20204C"/>
<path d="M80.7 65.3C82.4404 65.3107 84.1683 65.0057 85.8 64.4C87.437 63.7206 88.9301 62.7365 90.2 61.5C91.4212 60.294 92.4049 58.8693 93.0999 57.3C93.8075 55.6918 94.1817 53.9569 94.2 52.2C94.1931 50.4419 93.8184 48.7046 93.0999 47.1C92.4055 45.5008 91.4224 44.0431 90.2 42.8C88.8996 41.6279 87.4125 40.6815 85.8 40C84.1814 39.3473 82.4441 39.0407 80.7 39.1C78.9463 39.0464 77.1997 39.3457 75.5639 39.98C73.9281 40.6143 72.4363 41.5707 71.1772 42.7926C69.9181 44.0144 68.9172 45.4767 68.234 47.0927C67.5508 48.7087 67.1991 50.4455 67.2 52.2C67.2108 53.9389 67.5704 55.6579 68.2575 57.2554C68.9445 58.8528 69.9451 60.2962 71.2 61.5C72.4509 62.7338 73.9355 63.7054 75.5668 64.3579C77.1981 65.0104 78.9433 65.3307 80.7 65.3Z" fill="#070723"/>
<path d="M115.5 65.3C117.24 65.3107 118.968 65.0057 120.6 64.4C122.237 63.7206 123.73 62.7365 125 61.5C126.221 60.294 127.205 58.8693 127.9 57.3C128.607 55.6918 128.981 53.9569 129 52.2C128.993 50.4419 128.618 48.7046 127.9 47.1C127.205 45.5008 126.222 44.0431 125 42.8C123.699 41.6279 122.212 40.6815 120.6 40C117.306 38.8 113.694 38.8 110.4 40C108.787 40.6815 107.3 41.6279 106 42.8C104.777 44.0431 103.794 45.5008 103.1 47.1C102.381 48.7046 102.007 50.4419 102 52.2C102.018 53.9569 102.392 55.6918 103.1 57.3C103.795 58.8693 104.779 60.294 106 61.5C107.27 62.7365 108.763 63.7206 110.4 64.4C112.034 64.9974 113.76 65.3021 115.5 65.3Z" fill="#070723"/>
<path d="M56.5998 93.8C52.9998 90 70.8998 71.9 96.6998 68.5C124.6 64.8 143.8 80.6 139.7 84.4C135.6 88.2 123.8 73.7 97.9998 76.1C74.7998 78.3 61.2998 98.6 56.5998 93.8Z" stroke="#2050CE" stroke-width="10" stroke-miterlimit="10"/>
<path d="M64.4998 88.7L75.4998 95.9C75.8116 96.0922 76.1683 96.1995 76.5344 96.2112C76.9005 96.2229 77.2633 96.1387 77.5868 95.9668C77.9103 95.795 78.1832 95.5415 78.3784 95.2315C78.5737 94.9216 78.6845 94.566 78.6998 94.2L78.8998 76.7C78.8998 76.7 68.7998 82.3 64.4998 88.7Z" fill="white"/>
<path d="M133.1 77.2L127.8 84.3C127.651 84.4945 127.454 84.6466 127.229 84.7412C127.003 84.8358 126.757 84.8697 126.514 84.8393C126.271 84.809 126.04 84.7155 125.845 84.5682C125.649 84.421 125.496 84.225 125.4 84L121.2 73C121.2 73 128.9 74.2 133.1 77.2Z" fill="white"/>
<path d="M88.7001 72.1H108.9C109.775 72.1 110.615 72.4477 111.234 73.0666C111.852 73.6854 112.2 74.5248 112.2 75.4V98.3C112.2 101.854 110.788 105.262 108.275 107.775C105.762 110.288 102.354 111.7 98.8001 111.7C95.2462 111.7 91.8379 110.288 89.3249 107.775C86.8119 105.262 85.4001 101.854 85.4001 98.3V75.4C85.4001 74.9666 85.4855 74.5375 85.6513 74.1371C85.8172 73.7368 86.0603 73.373 86.3667 73.0666C86.6731 72.7601 87.0369 72.517 87.4373 72.3512C87.8377 72.1854 88.2668 72.1 88.7001 72.1Z" fill="#BC317A"/>
<path d="M98.8 102.4V73.1" stroke="#9E1E6D" stroke-width="4" stroke-miterlimit="10" stroke-linecap="round"/>
<path d="M58.8 91.7C80.7 69.2 115.6 64.5 138.8 82.7" stroke="#070723" stroke-width="4" stroke-miterlimit="10" stroke-linecap="round"/>
<path d="M85.5999 62.9C93.0006 62.9 99 56.9006 99 49.5C99 42.0994 93.0006 36.1 85.5999 36.1C78.1993 36.1 72.2 42.0994 72.2 49.5C72.2 56.9006 78.1993 62.9 85.5999 62.9Z" fill="white"/>
<path d="M110.9 62.9C118.3 62.9 124.3 56.9006 124.3 49.5C124.3 42.0994 118.3 36.1 110.9 36.1C103.499 36.1 97.4998 42.0994 97.4998 49.5C97.4998 56.9006 103.499 62.9 110.9 62.9Z" fill="white"/>
<path d="M87.9 54.8C91.3241 54.8 94.1 52.0242 94.1 48.6C94.1 45.1758 91.3241 42.4 87.9 42.4C84.4758 42.4 81.7 45.1758 81.7 48.6C81.7 52.0242 84.4758 54.8 87.9 54.8Z" fill="#070723"/>
<path d="M109.1 54.8C112.524 54.8 115.3 52.0242 115.3 48.6C115.3 45.1758 112.524 42.4 109.1 42.4C105.676 42.4 102.9 45.1758 102.9 48.6C102.9 52.0242 105.676 54.8 109.1 54.8Z" fill="#070723"/>
<path d="M159.5 18.6C120.8 15.2 99.7002 44.1 99.7002 44.1C99.7002 44.1 79.5002 15.3 40.9002 18.7C39.0002 18.9 33.3002 22.7 39.9002 25.1C44.3002 26.6 49.6002 28.7 55.1002 31.1C49.4002 32.6 36.3002 35.8 38.2002 39C41.3002 44.3 83.1002 47.8 96.5002 49.9C100 50.4 100.3 50 105 47.9C122 40.4 153.6 40.2 157.1 37.6C160.6 35 150.9 32.5 145.2 31C150.7 28.6 156 26.4 160.4 25C167 22.6 161.3 18.7 159.5 18.6Z" fill="#070723"/>
<path d="M66.5 16.1C69.2424 18.6942 71.846 21.4313 74.3 24.3C70.4 24.6 64 25.6 65.3 28.1C66.6 30.6 97.1 48.1 97.1 48.1L98.3 43.9C98.3 43.9 93.5 14.4 68.8 10.6C67.7 10.4 63.1 12.8 66.5 16.1Z" fill="#070723"/>
<path d="M123.9 8.29999C100.2 21 97.4998 45.9 97.4998 45.9L100.7 47.4C100.7 47.4 128.1 23.3 129.4 19.9C130.7 16.5 124 19.4 120.1 20.7C122.5 17.2 124.8 14 126.8 11.6C128.8 9.19999 125 7.69999 123.9 8.29999Z" fill="#070723"/>
</g>
<defs>
<clipPath id="clip0_14_17942">
<rect width="175.5" height="118.7" fill="white" transform="translate(9 8)"/>
</clipPath>
</defs>
</svg>
