<svg width="99" height="63" viewBox="0 0 99 63" fill="none" xmlns="http://www.w3.org/2000/svg">
<path d="M13.168 31.3603C10.7231 25.1611 1.06705 30.8826 2.30545 37.1702C2.65929 39.0667 4.59474 39.9477 6.7708 39.3745C8.94686 38.8013 12.5913 38.7624 14.5197 38.6103C19.8413 38.1927 18.1217 30.3271 13.168 31.3603Z" fill="#D75F3B"/>
<path d="M0.00463919 39.4808C0.199246 40.3441 3.25632 41.4481 3.25632 41.4481C3.61016 40.7015 4.12675 38.483 3.96399 37.6479C0.811353 38.0053 -0.0732036 39.1305 0.00463919 39.4808Z" fill="#F9A846"/>
<path d="M14.3103 59.1148L14.6252 61.443C13.1002 60.7354 10.9419 61.3015 10.3545 62.8265H16.635L16.083 58.8777L14.3103 59.1148Z" fill="#D74F3D"/>
<path d="M11.501 56.7335C12.1202 61.6128 19.0375 60.7353 18.4183 55.856L11.501 56.7335Z" fill="#F2D3AB"/>
<path d="M9.62968 59.1148L9.94105 61.443C8.41604 60.7354 6.25765 61.3015 5.67383 62.8265H11.9543L11.3988 58.8777L9.62968 59.1148Z" fill="#DE664E"/>
<path d="M6.82422 56.7335C7.44342 61.6128 14.3608 60.7353 13.7381 55.856L6.82422 56.7335Z" fill="#F2D3AB"/>
<path d="M15.6442 45.2764C17.5442 39.7389 14.7772 33.1152 8.98857 32.9985C1.67843 32.8499 0.850462 40.6377 2.00041 43.9212C1.34229 45.6125 0.606348 47.6364 1.01325 50.3751C1.7563 55.3464 6.91868 58.867 15.3328 57.4836C20.0847 56.7051 21.9565 50.2937 19.975 48.1495L15.6442 45.2764Z" fill="#FFEED6"/>
<path d="M11.7523 42.5059L9.71777 57.3137C19.4906 59.373 26.1886 51.978 24.5787 47.3817C23.1987 43.4966 11.7523 42.5059 11.7523 42.5059Z" fill="#FFEED6"/>
<path d="M2.81821 48.3901C0.992446 50.4954 3.59309 53.9099 5.32332 54.8192C8.98193 56.7441 12.1134 54.0443 9.98683 51.2632C13.7587 51.5817 14.8343 50.3539 14.5866 49.5365C14.1833 48.0858 5.23488 45.609 2.81821 48.3901Z" fill="#E9C4A0"/>
<path d="M25.7993 46.0407C25.7993 46.0407 23.5348 40.9561 21.3092 41.5895C17.5621 42.651 18.4503 49.6568 18.4503 49.6568C18.4503 49.6568 21.9107 51.932 22.8023 52.2858C23.694 52.6396 27.756 51.3269 27.9471 48.9527C28.1381 46.5785 25.7993 46.0407 25.7993 46.0407Z" fill="#FFEED6"/>
<path d="M13.076 31.5973C7.11394 28.8551 4.28331 31.8945 2.25586 36.9614C2.25586 36.9614 4.69729 32.7756 8.57527 34.0104C11.8553 35.0542 12.9875 39.2577 15.7262 38.3484C17.1698 37.8707 19.0345 34.3395 13.076 31.5973Z" fill="#D75F3B"/>
<path d="M20.2834 51.2067C19.2219 53.411 21.7448 54.5822 22.4666 53.8781C22.9402 53.4045 23.3537 52.8745 23.6979 52.3C22.4489 52.5689 20.2834 51.2067 20.2834 51.2067Z" fill="#E9C4A0"/>
<path d="M17.6545 46.6422L18.539 46.0159C18.4545 45.2773 18.6149 44.5315 18.9955 43.8929C16.2144 43.4577 16.4939 46.2883 17.6545 46.6422Z" fill="#E9C4A0"/>
<path d="M21.8115 41.5151C22.873 43.1463 22.1936 47.7143 22.1936 47.7143C24.5219 48.6873 25.8947 46.3414 25.7992 46.0406C23.6408 41.225 21.8115 41.5151 21.8115 41.5151Z" fill="#E9C4A0"/>
<path d="M1.59668 41.7982C1.63119 42.5215 1.76816 43.2363 2.00355 43.9212C2.00355 43.9212 2.93059 42.3395 7.31101 43.355C7.29332 43.355 5.15622 41.4797 1.59668 41.7982Z" fill="#E9C4A0"/>
<path d="M3.5996 40.2662C4.18584 40.2662 4.66107 39.4741 4.66107 38.497C4.66107 37.52 4.18584 36.7279 3.5996 36.7279C3.01336 36.7279 2.53809 37.52 2.53809 38.497C2.53809 39.4741 3.01336 40.2662 3.5996 40.2662Z" fill="white"/>
<path d="M3.29168 37.0989C2.96215 36.9785 2.55159 37.4868 2.53809 38.6773C2.53809 39.5735 2.88923 40.3493 3.29168 40.259C3.67252 40.0684 3.95341 39.4364 3.95341 38.6773C3.95341 37.9182 3.67252 37.2929 3.29168 37.0989Z" fill="#745146"/>
<path d="M3.67498 38.1432C3.4348 38.1432 3.24609 38.4606 3.24609 38.8509C3.24609 39.2411 3.43909 39.5585 3.67498 39.5585C3.91087 39.5585 4.10387 39.2411 4.10387 38.8509C4.10387 38.4606 3.91516 38.1432 3.67498 38.1432Z" fill="white"/>
<path d="M2.90633 47.1128C1.07703 49.2358 2.71173 52.4698 4.41366 53.6693C7.79274 56.0541 11.37 52.5194 9.24346 49.7347C13.0153 50.0532 13.9282 49.204 13.6946 48.3866C13.2842 46.9359 5.32654 44.3317 2.90633 47.1128Z" fill="#D75F3B"/>
<path d="M62.9863 35.1144C62.9863 38.8509 98.3694 38.8509 98.3694 35.1144C98.3517 12.9434 62.9863 12.9434 62.9863 35.1144Z" fill="#CA6F49"/>
<path d="M78.0672 22.9603C72.4908 23.9368 68.2943 26.587 68.6977 28.8798C69.1011 31.1727 73.945 32.2342 79.5214 31.2576C85.0978 30.281 89.2942 27.6273 88.8944 25.338C88.4946 23.0487 83.6436 21.9801 78.0672 22.9603Z" fill="#A04839"/>
<path d="M65.262 23.0205C63.9776 24.3014 64.8621 27.2665 66.4296 28.8375C67.9971 30.4085 69.6601 29.9874 70.9445 28.703C72.2289 27.4186 72.6464 25.7592 71.079 24.1917C69.5115 22.6242 66.5464 21.7361 65.262 23.0205Z" fill="#FDBC7F"/>
<path d="M69.4446 23.0381C67.9408 22.2915 65.0076 27.3655 68.6025 29.8494C69.5029 29.7873 70.3434 29.3759 70.9448 28.7029C72.2293 27.4221 72.6468 25.7591 71.0793 24.1916C70.5994 23.7224 70.0475 23.333 69.4446 23.0381Z" fill="#F09D62"/>
<path d="M79.1712 2.78848C79.1322 -2.37745 71.033 -0.130625 70.9092 7.58643C71.2206 9.52896 72.2254 12.2145 74.4475 11.6661C76.6695 11.1177 79.2879 10.4772 80.6431 9.04775C83.1871 6.36571 82.5998 2.63987 79.1712 2.78848Z" fill="#D75F3B"/>
<path d="M83.3921 17.8227C85.7168 12.0942 81.6902 4.21084 74.5463 5.61909C69.4193 6.63458 68.05 11.9668 69.2389 16.8603C68.4326 18.7186 68.1382 20.7588 68.3862 22.7693C69.0584 27.8467 75.0134 31.3532 81.7468 30.0086C87.5001 28.8587 91.2295 23.6008 89.248 21.3858L83.3921 17.8227Z" fill="#FFEED6"/>
<path d="M77.3174 16.2128L78.6442 30.3023C88.8133 30.1856 93.8837 21.3221 91.2123 17.1398C89.1671 13.927 77.3174 16.2128 77.3174 16.2128Z" fill="#FFEED6"/>
<path d="M92.9172 16.701C92.9172 16.701 92.5634 15.0274 90.4404 13.2193C87.3444 10.5868 85.8229 17.8191 86.7146 19.9846C86.7146 19.9846 89.5806 22.2349 90.5465 22.3906C91.5125 22.5463 95.5321 20.1119 94.8669 17.7908C94.5767 16.7364 92.9172 16.701 92.9172 16.701Z" fill="#FFEED6"/>
<path d="M74.157 29.4743C80.9647 31.8025 85.8334 28.9188 88.204 26.8312C87.7476 25.8582 73.6121 25.6671 74.157 29.4743Z" fill="#E9C4A0"/>
<path d="M69.8476 25.0832C68.3544 26.6684 68.8144 28.2854 70.113 29.5097C71.4115 30.7339 73.0498 31.0948 74.5465 29.5097C76.0432 27.9245 76.8216 24.9877 75.5231 23.767C74.2245 22.5463 71.3408 23.4981 69.8476 25.0832Z" fill="#FDBC7F"/>
<path d="M88.986 32.6092C91.1141 32.6092 92.8393 31.1772 92.8393 29.4106C92.8393 27.644 91.1141 26.212 88.986 26.212C86.858 26.212 85.1328 27.644 85.1328 29.4106C85.1328 31.1772 86.858 32.6092 88.986 32.6092Z" fill="#CA6F49"/>
<path d="M82.9948 28.2617L82.9558 28.341C82.6943 28.8723 82.9131 29.5149 83.4444 29.7764L87.07 31.5604C87.6012 31.8218 88.2439 31.603 88.5053 31.0717L88.5443 30.9924C88.8057 30.4611 88.587 29.8185 88.0557 29.5571L84.4301 27.7731C83.8988 27.5117 83.2562 27.7304 82.9948 28.2617Z" fill="#CA6F49"/>
<path d="M68.7186 29.1169L64.4231 27.4575C64.059 27.3332 63.6609 27.355 63.3125 27.5182C62.9642 27.6815 62.6927 27.9735 62.5552 28.3328C62.4177 28.6921 62.4249 29.0908 62.5753 29.4449C62.7257 29.799 63.0076 30.0809 63.3616 30.2315L67.6571 31.8874C67.8417 31.9711 68.0414 32.0161 68.244 32.0197C68.4466 32.0234 68.6478 31.9855 68.8352 31.9086C69.0226 31.8316 69.1923 31.7171 69.3339 31.5721C69.4755 31.4272 69.5859 31.2548 69.6584 31.0656C69.7309 30.8764 69.7639 30.6743 69.7554 30.4719C69.747 30.2694 69.6972 30.0709 69.6092 29.8884C69.5212 29.7058 69.3968 29.5433 69.2436 29.4106C69.0905 29.2779 68.9118 29.178 68.7186 29.1169Z" fill="#CA6F49"/>
<path d="M77.4882 33.5848L77.3795 33.5996C76.6689 33.6963 76.1712 34.3508 76.2679 35.0614L76.7517 38.6165C76.8484 39.3271 77.5029 39.8247 78.2135 39.728L78.3222 39.7132C79.0328 39.6165 79.5305 38.9621 79.4338 38.2514L78.95 34.6964C78.8533 33.9857 78.1988 33.4881 77.4882 33.5848Z" fill="#A96346"/>
<path d="M80.5347 35.7312L80.4571 35.8087C79.9501 36.3159 79.9502 37.1381 80.4574 37.6452L81.611 38.7984C82.1183 39.3054 82.9405 39.3052 83.4475 38.798L83.525 38.7205C84.0321 38.2133 84.0319 37.3911 83.5247 36.884L82.3711 35.7308C81.8639 35.2238 81.0417 35.224 80.5347 35.7312Z" fill="#A96346"/>
<path d="M75.4878 4.16128C73.5877 4.13651 71.4328 5.382 70.9092 7.59345C71.8221 10.4772 74.6315 10.3604 76.3334 7.57575C77.6426 5.43153 80.1654 6.58856 80.1654 6.58856C80.1654 6.58856 78.8704 4.20374 75.4878 4.16128Z" fill="#D75F3B"/>
<path d="M79.7794 17.8368C78.6082 18.8629 79.0399 21.5626 80.5331 22.8577C84.5774 26.3677 88.3987 23.6679 85.6565 20.4764C89.2408 20.7276 90.504 19.8465 90.2563 19.061C89.8565 17.7023 82.4084 15.5263 79.7794 17.8368Z" fill="#D75F3B"/>
<path d="M70.1133 29.5097C71.4083 30.7304 73.0501 31.0949 74.5468 29.5097C75.0528 28.9573 75.4555 28.3185 75.7357 27.6238C76.3266 26.1802 72.0523 26.7427 70.1133 29.5097Z" fill="#F09D62"/>
<path d="M73.1458 26.6402C73.7301 26.6402 74.2038 26.3836 74.2038 26.067C74.2038 25.7504 73.7301 25.4938 73.1458 25.4938C72.5615 25.4938 72.0879 25.7504 72.0879 26.067C72.0879 26.3836 72.5615 26.6402 73.1458 26.6402Z" fill="#F09D62"/>
<path d="M92.1745 19.5528L91.4668 22.1818C91.4668 22.1818 93.8587 21.2972 94.7574 19.2238C94.7609 19.2238 92.2098 21.2335 92.1745 19.5528Z" fill="#E9C4A0"/>
<path d="M78.1807 18.2367C80.5266 15.5441 83.9977 15.4379 83.9977 15.4379C84.1554 14.4384 84.1144 13.4176 83.8773 12.4339C79.7269 13.8421 78.1807 18.2367 78.1807 18.2367Z" fill="#E9C4A0"/>
<path d="M75.9346 9.48288C75.2368 9.48288 74.7197 10.262 74.7197 11.2342C74.7197 12.2063 75.2368 13.0212 75.9346 13.0212C76.6325 13.0212 77.1965 12.2313 77.1965 11.2592C77.1965 10.287 76.6325 9.48288 75.9346 9.48288Z" fill="white"/>
<path d="M76.2557 9.85376C75.7802 10.0463 75.4277 10.6705 75.4277 11.4241C75.4277 12.1777 75.7699 12.8018 76.2557 12.9944C76.7416 13.1869 77.2103 12.3105 77.1966 11.4241C77.1795 10.2422 76.68 9.73425 76.2557 9.85376Z" fill="#745146"/>
<path d="M75.5686 10.5444C75.2916 10.5444 75.0732 10.8063 75.0732 11.1283C75.0732 11.4502 75.2916 11.7085 75.5686 11.7085C75.8457 11.7085 76.064 11.4502 76.064 11.1283C76.064 10.8063 75.8415 10.5444 75.5686 10.5444Z" fill="white"/>
<path d="M70.9889 9.65947C70.4904 9.65897 70.1204 10.3989 70.1194 11.3225C70.1185 12.2461 70.487 13.0207 70.9855 13.0212C71.4839 13.0217 71.8876 12.2716 71.8886 11.348C71.8895 10.4244 71.4873 9.65997 70.9889 9.65947Z" fill="white"/>
<path d="M71.136 9.85376C70.7555 10.0463 70.4736 10.6705 70.4736 11.4241C70.4736 12.1777 70.7473 12.8018 71.136 12.9944C71.5247 13.1869 71.8997 12.3105 71.8887 11.4241C71.875 10.2422 71.4645 9.73425 71.136 9.85376Z" fill="#745146"/>
<path d="M70.5465 10.5444C70.31 10.5444 70.1201 10.8063 70.1201 11.1283C70.1201 11.4502 70.31 11.7085 70.5465 11.7085C70.783 11.7085 70.9693 11.4502 70.9693 11.1283C70.9693 10.8063 70.7722 10.5444 70.5465 10.5444Z" fill="white"/>
<path d="M70.3887 15.1513C71.2131 15.9863 72.8266 16.1915 73.3184 16.0748C74.3339 15.8377 74.8257 14.5462 74.7019 13.145C74.0438 12.2958 71.3263 12.5258 70.3887 15.1513Z" fill="#E49D44"/>
<path d="M71.769 12.5648C70.6085 13.1769 70.2653 14.8045 70.3891 15.1477L74.7023 13.1415C74.6032 11.0645 72.2821 10.7107 71.769 12.5648Z" fill="#EEA949"/>
<path d="M41.8491 41.08L42.2029 38.766L40.3771 38.6492L39.9277 42.4494H46.0242C45.4263 40.9244 43.3741 40.3688 41.8491 41.08Z" fill="#D74F3D"/>
<path d="M45.1215 36.3811L38.9577 35.5991C38.3385 40.482 44.5023 41.2675 45.1215 36.3811Z" fill="#F2D3AB"/>
<path d="M36.6055 41.08L36.9593 38.766L35.1335 38.6492L34.6807 42.4494H40.7665C40.1827 40.9244 38.1305 40.3688 36.6055 41.08Z" fill="#DE664E"/>
<path d="M39.8779 36.3811L33.7106 35.5991C33.0914 40.482 39.2587 41.2675 39.8779 36.3811Z" fill="#F2D3AB"/>
<path d="M40.3162 10.5515C36.8911 10.4029 36.3037 14.1287 38.8478 16.8107C40.2029 18.2261 42.8213 18.8771 45.0433 19.4291C47.2654 19.9811 48.2703 17.3061 48.5816 15.3494C48.4649 7.61467 40.3586 5.36785 40.3162 10.5515Z" fill="#D75F3B"/>
<path d="M44.9273 13.3822C37.8011 11.9669 33.7745 19.8573 36.0815 25.5858L31.7188 28.5828C29.7373 30.7942 33.0704 35.9141 37.7339 37.4639C44.2515 39.6329 50.3975 35.6098 51.0733 30.5324C51.3213 28.5219 51.0268 26.4817 50.2206 24.6234C51.4236 19.7122 50.0543 14.38 44.9273 13.3822Z" fill="#FFEED6"/>
<path d="M28.2788 24.871C25.6074 29.0533 30.6778 37.9167 40.8469 38.0335L42.1738 23.9404C42.1738 23.9404 30.3204 21.6723 28.2788 24.871Z" fill="#FFEED6"/>
<path d="M28.6728 20.6781C26.5498 22.4862 26.5746 24.4464 26.5746 24.4464C26.5746 24.4464 24.9151 24.4818 24.6179 25.5256C23.9527 27.8574 27.9687 30.2917 28.9381 30.1254C29.9076 29.9591 33.3823 27.4328 33.3823 27.4328C34.2739 25.2779 31.7688 18.0456 28.6728 20.6781Z" fill="#FFEED6"/>
<path d="M31.0073 26.672C27.4336 26.902 27.9183 29.8565 31.867 29.5592C30.5189 30.3589 29.0364 33.8052 34.1386 33.4797C36.8596 33.3063 39.7999 31.4558 39.7539 29.3009C39.6443 25.1894 33.9794 26.4738 31.0073 26.672Z" fill="#E9C4A0"/>
<path d="M44.0038 11.9067C40.6212 11.9491 39.3262 14.3339 39.3262 14.3339C39.3262 14.3339 41.9799 12.54 43.8764 15.2221C45.957 18.1695 48.1224 18.2119 48.5824 15.3388C48.0587 13.1274 45.9039 11.8784 44.0038 11.9067Z" fill="#D75F3B"/>
<path d="M42.8608 17.858C42.1779 17.858 41.626 18.64 41.626 19.6024C41.626 20.5648 42.1779 21.3468 42.8608 21.3468C43.5437 21.3468 44.0497 20.5542 44.0497 19.5777C44.0497 18.6011 43.5437 17.858 42.8608 17.858Z" fill="white"/>
<path d="M43.108 17.991C42.6974 17.8745 42.1841 18.3806 42.167 19.566C42.167 20.4551 42.6187 21.2942 43.108 21.141C43.5974 20.9878 43.9361 20.3219 43.9361 19.566C43.9361 18.8102 43.5837 18.1842 43.108 17.991Z" fill="#745146"/>
<path d="M42.3239 18.6824C42.0408 18.6824 41.8135 18.9998 41.8135 19.3901C41.8135 19.7804 42.0408 20.0978 42.3239 20.0978C42.6069 20.0978 42.8299 19.7804 42.8299 19.3901C42.8299 18.9998 42.6027 18.6824 42.3239 18.6824Z" fill="white"/>
<path d="M48.1968 17.5042C47.5139 17.5042 46.9619 18.2862 46.9619 19.2486C46.9619 20.211 47.5139 20.993 48.1968 20.993C48.8797 20.993 49.3856 20.2004 49.3856 19.2239C49.3856 18.2473 48.8691 17.5042 48.1968 17.5042Z" fill="white"/>
<path d="M48.4156 17.6373C48.005 17.5207 47.4917 18.0269 47.4746 19.2123C47.4746 20.1013 47.9263 20.9404 48.4156 20.7873C48.905 20.6341 49.2438 19.9681 49.2438 19.2123C49.2438 18.4564 48.881 17.8304 48.4156 17.6373Z" fill="#745146"/>
<path d="M47.6314 18.3286C47.3484 18.3286 47.1211 18.646 47.1211 19.0363C47.1211 19.4266 47.3484 19.744 47.6314 19.744C47.9145 19.744 48.1376 19.4266 48.1376 19.0363C48.1376 18.646 47.9102 18.3286 47.6314 18.3286Z" fill="white"/>
<path d="M44.4251 20.6463C44.2977 22.0616 44.648 23.76 45.8122 23.8307C46.9763 23.9015 48.5968 23.4061 48.7773 23.1478C48.5508 20.434 45.0797 19.8041 44.4251 20.6463Z" fill="#E49D44"/>
<path d="M47.553 20.9215C47.4152 19.2326 44.2715 19.4192 44.2901 21.105L48.8716 23.2822C49.0057 22.9899 48.3836 21.301 47.553 20.9215Z" fill="#EEA949"/>
<path d="M35.4939 23.1337C35.4939 23.1337 36.5872 24.6127 39.2339 25.4371C37.6346 23.8378 35.9857 21.5167 35.8123 19.3866C35.4702 20.6042 35.3621 21.8757 35.4939 23.1337Z" fill="#E9C4A0"/>
<path d="M26.0391 28.6357C26.618 29.204 27.3033 29.6525 28.0559 29.9555C27.8515 29.0372 27.8481 28.0855 28.046 27.1657C28.2439 26.246 28.6383 25.3799 29.2023 24.6268C27.7615 25.6069 26.6572 27.0065 26.0391 28.6357Z" fill="#E9C4A0"/>
<path d="M29.1891 26.4066C28.8353 27.1142 29.9286 28.2076 33.5023 28.5614C30.2647 31.247 33.5801 34.5482 38.1552 31.7636C39.8465 30.7375 40.724 28.1474 39.7403 26.9373C37.5359 24.2234 29.826 25.1221 29.1891 26.4066Z" fill="#D75F3B"/>
</svg>
