<svg width="121" height="95" viewBox="0 0 121 95" fill="none" xmlns="http://www.w3.org/2000/svg">
<path d="M24.1101 38.418C21.7012 38.3167 21.1142 37.2102 20.4495 37.254C18.9853 37.3519 20.2505 39.3963 20.2505 39.3963C20.2505 39.3963 16.4955 38.6777 16.3471 42.1932C16.1952 45.8402 28.8299 40.9719 28.8299 40.9719C28.8299 40.9719 29.6261 38.6507 24.1101 38.418Z" fill="#FEFAEC"/>
<path d="M46.8418 62.8877L46.8789 64.5982C48.5125 64.5312 50.1291 64.2394 51.6831 63.7312C55.0569 62.601 56.9597 60.5531 57.2093 57.8069L55.5224 57.6517C55.0467 62.6414 46.9228 62.8877 46.8418 62.8877Z" fill="#F0D9BE"/>
<path d="M41.0969 79.1222C39.7474 80.4514 36.5626 81.2577 35.8271 82.8603L36.2387 89.3514C36.2637 89.8069 36.4623 90.2357 36.7936 90.5494C37.1249 90.8631 37.5638 91.038 38.0201 91.0382H41.6435C42.0999 91.0364 42.5442 90.8911 42.9136 90.6229C43.2829 90.3547 43.5585 89.9771 43.7015 89.5437C45.3648 84.6441 46.3722 79.546 46.6973 74.382C46.2115 73.2822 42.6725 73.7815 41.0969 79.1222Z" fill="#DC9A6F"/>
<path d="M38.3398 87.6588L38.4186 89.2669C38.4387 89.74 38.5985 90.1852 38.8651 90.511C39.1318 90.8368 39.485 91.0184 39.8522 91.0186H42.1383C42.1791 89.4491 40.941 87.0598 38.3398 87.6588Z" fill="#B8745C"/>
<path d="M47.4656 68.478C47.4656 68.478 50.367 64.966 49.8609 61.8452C47.3171 60.128 43.832 59.0956 39.3449 58.8089C29.2237 58.1712 15.2395 67.8876 15.2395 67.8876C15.2395 67.8876 10.9448 75.9239 15.3677 80.2963C15.3677 80.2963 18.1646 88.3932 29.8107 87.8737C38.4307 87.8737 50.1038 83.7544 50.1038 83.7544C50.1038 83.7544 55.3028 78.6701 55.0936 71.9732C55.0868 71.7944 47.4656 68.478 47.4656 68.478Z" fill="#FEFAEC"/>
<path d="M12.7217 69.2236C11.9592 70.2931 12.7217 74.5372 12.7217 74.5372C12.7217 74.5372 13.6866 79.021 20.2755 78.5419C27.637 78.0088 36.321 71.258 37.2353 64.6454C38.1496 58.0329 13.4842 68.1406 12.7217 69.2236Z" fill="#F0D9BE"/>
<path d="M11.1884 45.7658C6.24246 46.1842 0.442991 45.172 0.0381412 48.1106C-0.538769 52.2839 5.56772 57.6819 8.9617 56.2076C12.3557 54.7332 13.5264 45.5701 11.1884 45.7658Z" fill="#D37C4E"/>
<path d="M8.59441 49.9392C5.78745 51.1504 2.0696 53.4749 3.23692 54.4701C5.07898 56.0389 7.33939 56.9195 8.97228 56.2076C10.5073 55.5329 11.5869 53.3129 12.0896 51.0829C12.3359 49.9594 11.6611 48.6099 8.59441 49.9392Z" fill="#AF6138"/>
<path d="M15.8257 43.492C11.4769 40.567 13.1267 36.586 11.2104 36.4544C8.97358 36.2992 6.44327 44.4299 11.4263 48.1444C13.6327 49.7875 17.634 44.7066 15.8257 43.492Z" fill="#7A4E37"/>
<path d="M21.4944 39.8281C16.8184 40.1958 14.7469 41.4778 11.5418 46.4743L11.1235 51.2516L7.70249 56.5045C7.39034 58.1324 7.23219 59.7861 7.23016 61.4437C4.94276 67.3916 10.3475 73.1101 23.6569 72.4286C36.5244 71.7538 40.6505 62.3444 39.3212 52.0343C37.8469 40.5905 24.5982 39.5851 21.4944 39.8281Z" fill="#FEFAEC"/>
<path d="M43.2353 68.8457C41.6699 68.8457 40.4014 69.5542 40.4014 70.4314C40.4014 71.3085 41.6699 72.017 43.2353 72.017C44.8007 72.017 46.0659 71.3052 46.0659 70.4314C46.0659 69.5576 44.7974 68.8457 43.2353 68.8457Z" fill="#DC9A6F"/>
<path d="M44.6657 74.9792C42.7967 74.9792 41.292 75.6877 41.292 76.5649C41.292 77.4421 42.8068 78.1505 44.6657 78.1505C46.5247 78.1505 48.0395 77.4387 48.0395 76.5649C48.0395 75.6911 46.5314 74.9792 44.6657 74.9792Z" fill="#DC9A6F"/>
<path d="M55.4983 54.821C55.2318 57.2298 52.5598 60.5833 53.7878 61.727C55.8728 63.6737 61.986 59.75 61.3349 57.6583C60.5792 55.2495 55.6299 53.6334 55.4983 54.821Z" fill="#D37C4E"/>
<path d="M29.2411 90.9302C29.3693 92.924 31.0225 93.6663 33.0163 93.6663H35.4522C36.3699 93.6663 37.7598 92.2695 37.7598 92.2695L40.0709 85.7144L28.9375 86.3115L29.2411 90.9302Z" fill="#FEFAEC"/>
<path d="M48.5257 80.8192C47.1762 82.1484 44.7066 81.8852 43.9678 83.4878L44.3861 89.9822C44.4111 90.4378 44.6097 90.8666 44.941 91.1803C45.2723 91.494 45.7112 91.6689 46.1675 91.6691H49.7841C50.241 91.6671 50.6856 91.5213 51.055 91.2524C51.4243 90.9836 51.6997 90.6053 51.8421 90.1712C53.5108 85.2681 54.5205 80.1651 54.8447 74.9961C54.9729 73.6466 50.1653 75.988 48.5257 80.8192Z" fill="#F0D9BE"/>
<path d="M29.151 53.485C27.9271 53.4877 26.7315 53.8531 25.7152 54.5349C24.6989 55.2168 23.9075 56.1846 23.441 57.3161C22.9745 58.4475 22.8538 59.6919 23.0942 60.8919C23.3346 62.0919 23.9253 63.1937 24.7917 64.0582C25.658 64.9226 26.7611 65.5109 27.9616 65.7487C29.1622 65.9865 30.4063 65.8631 31.5367 65.3941C32.6671 64.9252 33.6332 64.1317 34.3129 63.1139C34.9925 62.0961 35.3553 60.8997 35.3553 59.6759C35.3526 58.0324 34.6977 56.4573 33.5343 55.2965C32.371 54.1357 30.7944 53.4842 29.151 53.485Z" fill="#DC9A6F"/>
<path d="M29.6396 59.0652C26.4919 59.0652 23.9414 60.7825 23.9414 62.8978C23.9414 65.0132 26.4919 66.7338 29.6396 66.7338C32.7874 66.7338 35.3345 65.0165 35.3345 62.8978C35.3345 60.7791 32.784 59.0652 29.6396 59.0652Z" fill="#DC9A6F"/>
<path d="M29.015 53.4918C25.8201 53.4918 23.2324 55.037 23.2324 56.9398C23.2324 58.8426 25.8302 60.381 29.015 60.381C32.1998 60.381 32.21 53.4918 29.015 53.4918Z" fill="#DC9A6F"/>
<path d="M12.7766 57.068C14.6423 57.4729 14.6862 65.2628 12.7766 65.2628C10.8671 65.2628 9.31517 63.4275 9.32529 61.1671C9.33541 58.0194 11.3866 56.7678 12.7766 57.068Z" fill="#FFF3D3"/>
<path d="M12.902 64.6892C14.3349 64.6892 15.4964 62.9839 15.4964 60.8803C15.4964 58.7767 14.3349 57.0713 12.902 57.0713C11.4692 57.0713 10.3076 58.7767 10.3076 60.8803C10.3076 62.9839 11.4692 64.6892 12.902 64.6892Z" fill="#4A3836"/>
<path d="M12.8042 60.6442C11.9685 60.643 11.1339 60.7051 10.3076 60.8297C10.3076 60.8466 10.3076 60.8635 10.3076 60.8803C10.3076 62.9855 11.4716 64.6893 12.9054 64.6893C14.3392 64.6893 15.4998 63.0024 15.4998 60.8803V60.8601C14.6087 60.7141 13.7071 60.6419 12.8042 60.6442Z" fill="#745146"/>
<path d="M13.9775 59.6826C13.7749 59.6684 13.5727 59.7154 13.3972 59.8176C13.2217 59.9199 13.0811 60.0725 12.9935 60.2558C12.9059 60.439 12.8755 60.6443 12.9061 60.8451C12.9368 61.0459 13.0272 61.2328 13.1655 61.3815C13.3038 61.5302 13.4837 61.6339 13.6817 61.679C13.8797 61.7242 14.0867 61.7087 14.2758 61.6346C14.4649 61.5605 14.6274 61.4313 14.742 61.2637C14.8567 61.096 14.9183 60.8978 14.9188 60.6947C14.9242 60.5662 14.9041 60.438 14.8596 60.3174C14.8151 60.1968 14.747 60.0862 14.6595 59.9921C14.5719 59.8979 14.4666 59.8221 14.3495 59.769C14.2325 59.7158 14.106 59.6865 13.9775 59.6826Z" fill="#FEFAEC"/>
<path d="M28.7592 57.068C26.8935 57.4729 26.853 65.2628 28.7592 65.2628C30.6654 65.2628 32.2207 63.4275 32.2139 61.1671C32.2038 58.0194 30.1526 56.7678 28.7592 57.068Z" fill="#FFF3D3"/>
<path d="M28.7585 64.6892C30.1913 64.6892 31.3529 62.9839 31.3529 60.8803C31.3529 58.7767 30.1913 57.0713 28.7585 57.0713C27.3256 57.0713 26.1641 58.7767 26.1641 60.8803C26.1641 62.9839 27.3256 64.6892 28.7585 64.6892Z" fill="#4A3836"/>
<path d="M28.6606 60.6442C27.825 60.6433 26.9904 60.7053 26.1641 60.8297V60.8803C26.1641 62.9855 27.3246 64.6893 28.7585 64.6893C30.1923 64.6893 31.3529 63.0024 31.3529 60.8803V60.8601C30.4629 60.7142 29.5625 60.642 28.6606 60.6442Z" fill="#745146"/>
<path d="M29.8388 59.6826C29.6362 59.6684 29.434 59.7154 29.2585 59.8176C29.0831 59.9199 28.9424 60.0725 28.8548 60.2558C28.7672 60.439 28.7368 60.6443 28.7675 60.8451C28.7982 61.0459 28.8885 61.2328 29.0268 61.3815C29.1651 61.5302 29.345 61.6339 29.543 61.679C29.741 61.7242 29.948 61.7087 30.1371 61.6346C30.3262 61.5605 30.4887 61.4313 30.6034 61.2637C30.718 61.096 30.7796 60.8978 30.7801 60.6947C30.7855 60.5662 30.7654 60.438 30.7209 60.3174C30.6764 60.1968 30.6084 60.0862 30.5208 59.9921C30.4333 59.8979 30.3279 59.8221 30.2108 59.769C30.0938 59.7158 29.9673 59.6865 29.8388 59.6826Z" fill="#FEFAEC"/>
<path d="M20.9457 64.6083C15.4903 64.6083 11.8096 66.5279 11.8096 68.8153C11.8096 71.1027 16.7285 72.82 21.5934 72.7086C27.3895 72.5703 31.2828 69.8477 31.2828 67.5569C31.2828 65.2662 26.4044 64.6083 20.9457 64.6083Z" fill="#E0A985"/>
<path d="M21.9816 60.8026C18.9453 60.7183 15.6997 61.3357 14.249 62.9652C11.3509 63.758 9.57298 64.9524 9.7754 67.0879C10.0419 69.8915 13.996 71.2309 20.3285 71.2309C26.661 71.2309 31.6103 69.8814 31.7992 67.0778C31.9848 64.1899 27.356 60.9511 21.9816 60.8026Z" fill="#FFBF95"/>
<path d="M25.2524 65.8262C24.761 66.2264 24.407 66.7702 24.2402 67.3815C24.8463 67.7073 25.38 68.1526 25.809 68.6905C26.289 68.5567 26.7328 68.3169 27.1079 67.9888C28.0796 67.1555 28.4574 65.9983 27.9446 65.4011C27.4318 64.804 26.224 64.9963 25.2524 65.8262Z" fill="#DC7660"/>
<path d="M14.8106 65.8701C13.8761 65.0705 12.7189 64.8883 12.2263 65.4619C11.7337 66.0354 12.0947 67.1488 13.0293 67.9517C13.3902 68.2683 13.8181 68.499 14.2809 68.6265C14.6949 68.1095 15.209 67.6815 15.7924 67.368C15.6308 66.7779 15.2873 66.2537 14.8106 65.8701Z" fill="#DC7660"/>
<path d="M17.183 44.3625C15.7795 44.3625 14.6426 44.9427 14.6426 45.658C14.6426 46.3732 15.7795 46.9569 17.183 46.9569C18.5865 46.9569 19.7268 46.3766 19.7268 45.658C19.7268 44.9394 18.5899 44.3625 17.183 44.3625Z" fill="#D37C4E"/>
<path d="M36.7033 46.2618C34.362 46.0594 35.5057 55.4924 38.9132 57.0174C42.3207 58.5423 48.4271 52.9689 47.8536 48.6775C47.4454 45.6512 41.6459 46.6937 36.7033 46.2618Z" fill="#D37C4E"/>
<path d="M39.2942 50.56C36.2173 49.1937 35.5426 50.5803 35.7956 51.7375C36.3017 54.035 37.3779 56.3291 38.9129 57.0174C40.5492 57.7495 42.8096 56.842 44.6483 55.2293C45.819 54.2037 42.1011 51.805 39.2942 50.56Z" fill="#AF6138"/>
<path d="M35.8003 36.4544C33.7962 36.758 35.5337 40.567 31.185 43.492C29.3766 44.7066 33.3779 49.7874 35.5708 48.1444C40.5674 44.4299 38.0168 36.117 35.8003 36.4544Z" fill="#7A4E37"/>
<path d="M40.6047 86.4567C40.6047 86.4567 45.5472 85.5053 48.8265 84.0343L51.7043 80.6403C52.5443 77.3611 38.432 83.5384 40.6047 86.4567Z" fill="#F0D9BE"/>
<path d="M47.253 88.9161C46.0485 87.904 44.2706 87.904 44.2942 88.6125L44.3819 89.9822C44.4069 90.4378 44.6055 90.8666 44.9368 91.1803C45.2681 91.494 45.707 91.6689 46.1632 91.6691H49.7833C50.2401 91.6671 50.6848 91.5213 51.0541 91.2524C51.4235 90.9836 51.6989 90.6053 51.8412 90.1712C51.9222 89.9249 51.9964 89.6786 52.074 89.4289C50.5255 88.3055 47.7961 88.0828 47.253 88.9161Z" fill="#B8745C"/>
<path d="M33.4478 91.5746C31.9498 90.9504 30.4114 90.4241 29.2373 90.8728L29.3385 92.4484C29.3729 92.9967 29.615 93.5114 30.0155 93.8875C30.4161 94.2636 30.9449 94.4728 31.4943 94.4726H35.4518C35.8964 94.4702 36.3295 94.3305 36.6918 94.0727C37.0541 93.8148 37.328 93.4514 37.476 93.0321L37.7594 92.2257C36.727 91.4869 35.0368 92.2358 33.4478 91.5746Z" fill="#B8745C"/>
<path d="M27.1235 87.8298C26.5061 85.0093 16.7223 79.4966 15.7607 81.1295C16.5367 84.763 18.2202 91.2777 20.7606 93.889C22.2619 94.945 28.0884 92.9275 27.7274 91.7534L27.1235 87.8298Z" fill="#F0D9BE"/>
<path d="M27.3318 89.1928C26.259 89.0803 25.1815 89.3569 24.2954 89.9722C22.7805 91.0489 20.9362 91.561 19.083 91.4195C19.5243 92.3232 20.0924 93.1593 20.7699 93.9026C22.2712 94.9585 28.0977 92.9411 27.7367 91.767L27.3318 89.1928Z" fill="#B8745C"/>
<path d="M24.066 92.8364C24.0182 93.158 23.8712 93.4565 23.6457 93.6906C23.4201 93.9246 23.1271 94.0824 22.8076 94.1421C25.0748 93.9329 27.1328 92.7926 27.4803 92.354C25.1558 93.4437 24.066 92.8364 24.066 92.8364Z" fill="#E0A985"/>
<path d="M46.9687 90.0127C46.9687 90.0127 46.2636 90.9168 46.8675 91.6354H47.6232C47.6232 91.6354 46.9181 91.207 46.9687 90.0127Z" fill="#D49167"/>
<path d="M49.8568 61.8588C44.442 61.8588 40.0527 64.3149 40.0527 67.3445C40.0527 70.3742 44.4386 72.8336 49.8568 72.8336C51.6363 72.8478 53.4054 72.5615 55.0895 71.9868C55.0895 71.7945 55.0895 71.6022 55.0592 71.4099C54.7353 67.2298 53.0349 64.0079 49.8568 61.8588Z" fill="#DC9A6F"/>
<path d="M11.543 46.471C9.62973 49.5371 8.32719 52.9441 7.70703 56.5046C11.1955 56.4303 16.0301 53.1949 16.0301 50.3002C16.0469 47.8711 14.1779 46.7747 11.543 46.471Z" fill="#D37C4E"/>
<path d="M58.4136 23.1444V23.9694L58.3935 24.7943C56.942 24.7379 55.5053 24.4806 54.1245 24.0297C51.1399 23.0237 49.4464 21.2061 49.2217 18.7647L50.8649 18.6138C51.274 22.9298 58.3432 23.1444 58.4136 23.1444Z" fill="#F0D9BE"/>
<path d="M63.4573 37.4706C64.6377 38.6409 67.4345 39.3452 68.0851 40.7536L67.7195 46.4546C67.6948 46.852 67.5192 47.2249 67.2288 47.4972C66.9384 47.7696 66.555 47.9208 66.1568 47.92H62.9777C62.5763 47.9193 62.1855 47.7918 61.8609 47.5557C61.5363 47.3197 61.2945 46.9871 61.1702 46.6055C59.7087 42.3047 58.8246 37.8289 58.541 33.2955C58.9669 32.3464 62.0723 32.7824 63.4573 37.4706Z" fill="#DC9A6F"/>
<path d="M67.0988 45.0931L67.0116 46.4546C66.9868 46.852 66.8113 47.2249 66.5209 47.4973C66.2305 47.7696 65.847 47.9209 65.4489 47.9201H62.9572C62.9103 46.6089 64.2617 44.5867 67.0988 45.0931Z" fill="#B8745C"/>
<path d="M56.946 27.4502C56.946 27.4502 54.6456 24.9351 55.7589 22.3127C57.9923 20.8036 61.0507 19.8982 64.9911 19.65C73.8812 19.09 86.155 27.6213 86.155 27.6213C86.155 27.6213 89.9277 34.6636 86.0443 38.5134C86.0443 38.5134 83.5862 45.6128 73.3614 45.1668C65.7926 45.1668 55.5476 41.5517 55.5476 41.5517C55.5476 41.5517 50.9802 37.0748 51.1646 31.2062C51.1713 31.0385 56.946 27.4502 56.946 27.4502Z" fill="#FEFAEC"/>
<path d="M88.3671 28.7816C89.0378 29.7205 88.3671 33.4463 88.3671 33.4463C88.3671 33.4463 87.5186 37.3833 81.7372 36.9641C75.2717 36.4946 67.6525 30.5656 66.8443 24.7641C66.0361 18.9625 87.6964 27.8426 88.3671 28.7816Z" fill="#E6CCB5"/>
<path d="M61.5777 28.4497C62.9526 28.4497 64.066 29.0734 64.066 29.8414C64.066 30.6093 62.9526 31.2331 61.5777 31.2331C60.2028 31.2331 59.0928 30.6093 59.0928 29.8414C59.0928 29.0734 60.2061 28.4497 61.5777 28.4497Z" fill="#D37C4E"/>
<path d="M50.8103 16.1356C51.0451 18.2516 53.3925 21.196 52.3127 22.202C50.4817 23.909 45.1127 20.4649 45.6862 18.6272C46.3435 16.5111 50.6929 15.0993 50.8103 16.1356Z" fill="#8C5034"/>
<path d="M73.8665 47.806C73.7525 49.5733 72.287 49.9053 70.513 49.9053H68.4104C67.6055 49.9053 66.3715 48.9764 66.3715 48.9764L64.3594 43.2587L74.1248 43.7818L73.8665 47.806Z" fill="#FEFAEC"/>
<path d="M56.9334 38.9628C58.1139 40.1299 60.2869 39.8985 60.9342 41.3103L60.5686 47.0112C60.5439 47.4089 60.3685 47.7822 60.0781 48.0551C59.7878 48.328 59.4044 48.48 59.0059 48.4801H55.8268C55.4254 48.4793 55.0345 48.3518 54.7099 48.1158C54.3853 47.8797 54.1436 47.5471 54.0192 47.1655C52.5581 42.8646 51.674 38.3889 51.3901 33.8555C51.2727 32.665 55.4914 34.7274 56.9334 38.9628Z" fill="#E6CCB5"/>
<path d="M63.8851 43.9126C63.8851 43.9126 59.5491 43.0742 56.6684 41.7865L54.1399 38.8052C53.4054 35.9246 65.7933 41.3506 63.8851 43.9126Z" fill="#E6CCB5"/>
<path d="M58.0519 46.0689C59.1082 45.1769 60.671 45.1769 60.6475 45.804L60.5703 47.0045C60.5456 47.4022 60.3702 47.7755 60.0799 48.0484C59.7895 48.3213 59.4061 48.4733 59.0076 48.4733H55.8285C55.4271 48.4726 55.0363 48.3451 54.7117 48.109C54.3871 47.873 54.1453 47.5404 54.021 47.1588C53.9505 46.9442 53.8835 46.7228 53.8164 46.5082C55.1779 45.5323 57.5757 45.3412 58.0519 46.0689Z" fill="#B8745C"/>
<path d="M70.1706 48.4062C71.4885 47.8562 72.8534 47.4002 73.8594 47.7892L73.7723 49.1742C73.7416 49.6558 73.5286 50.1076 73.1766 50.4378C72.8246 50.7679 72.3601 50.9516 71.8775 50.9515H68.41C68.0176 50.9509 67.635 50.8287 67.3149 50.6017C66.9948 50.3747 66.753 50.054 66.6226 49.6839L66.3711 48.9763C67.29 48.3257 68.7755 48.9864 70.1706 48.4062Z" fill="#B8745C"/>
<path d="M75.7235 45.1232C76.2668 42.6517 84.8618 37.8059 85.7001 39.2412C85.0294 42.4304 83.5405 48.1515 81.3104 50.4419C79.9925 51.3708 74.8784 49.6002 75.1936 48.5673L75.7235 45.1232Z" fill="#E6CCB5"/>
<path d="M75.5403 46.3137C76.4862 46.2061 77.4391 46.4444 78.2231 46.9844C79.556 47.929 81.179 48.3742 82.8073 48.242C82.4213 49.0364 81.922 49.7707 81.3251 50.4218C80.0071 51.3507 74.8931 49.58 75.2083 48.5471L75.5403 46.3137Z" fill="#B8745C"/>
<path d="M78.4058 49.5129C78.4483 49.7954 78.5777 50.0575 78.776 50.2631C78.9743 50.4686 79.2317 50.6073 79.5125 50.6598C77.5205 50.4754 75.7163 49.4827 75.4111 49.087C77.4434 50.0495 78.4058 49.5129 78.4058 49.5129Z" fill="#EDA870"/>
<path d="M58.2983 47.0347C58.2983 47.0347 58.9187 47.8261 58.3855 48.4566H57.7148C57.7148 48.4566 58.3453 48.081 58.2983 47.0347Z" fill="#DC9A6F"/>
<path d="M55.7632 22.3194C60.5151 22.3194 64.3717 24.479 64.3717 27.1384C64.3717 29.7977 60.5151 31.9573 55.7632 31.9573C54.2009 31.9688 52.6477 31.7172 51.1689 31.2129C51.1689 31.0452 51.169 30.8775 51.1958 30.7065C51.4808 27.0311 52.9731 24.2007 55.7632 22.3194Z" fill="#D37C4E"/>
<path d="M78.3693 1.73567C80.4854 1.64512 80.9984 0.672612 81.5853 0.712854C82.8663 0.800045 81.7563 2.59416 81.7563 2.59416C81.7563 2.59416 85.0562 1.96371 85.1836 5.04892C85.3177 8.25151 74.2344 3.97916 74.2344 3.97916C74.2344 3.97916 73.5268 1.94023 78.3693 1.73567Z" fill="#FEFAEC"/>
<path d="M89.7148 8.18776C94.0743 8.55329 99.1481 7.66462 99.5036 10.2468C100.01 13.8954 94.6477 18.654 91.6564 17.3562C88.6651 16.0584 87.6591 8.01338 89.7148 8.18776Z" fill="#9C6141"/>
<path d="M91.9909 11.8497C94.4557 12.9295 97.7186 14.9416 96.7126 15.8303C95.0929 17.2052 93.1109 17.9799 91.6824 17.3561C90.341 16.7693 89.3886 14.8108 88.9459 12.8524C88.6977 11.8664 89.2913 10.6827 91.9909 11.8497Z" fill="#8C5034"/>
<path d="M85.6473 6.18913C89.4669 3.62035 87.9947 0.126011 89.7016 0.00863906C91.6634 -0.125501 93.8868 7.01409 89.5105 10.2737C87.5655 11.7157 84.0543 7.25554 85.6473 6.18913Z" fill="#7A4E37"/>
<path d="M80.6639 2.97302C84.772 3.30837 87.5386 5.75642 89.4032 8.80475C89.3206 12.0427 90.4631 15.1925 92.6024 17.6244C92.8927 19.0565 93.0887 20.5061 93.1892 21.9639C95.2013 27.1886 90.4528 32.2088 78.7692 31.6085C67.4746 31.0284 63.8529 22.7553 65.0199 13.7042C66.311 3.64371 77.9342 2.75839 80.6639 2.97302Z" fill="#FEFAEC"/>
<path d="M73.9465 14.9652C75.0212 14.9679 76.071 15.289 76.9633 15.8881C77.8555 16.4872 78.5502 17.3373 78.9595 18.331C79.3688 19.3247 79.4743 20.4175 79.2628 21.4712C79.0512 22.5249 78.5321 23.4922 77.771 24.251C77.0099 25.0097 76.041 25.5259 74.9866 25.7342C73.9323 25.9425 72.8399 25.8335 71.8474 25.4212C70.855 25.0089 70.007 24.3116 69.4107 23.4175C68.8143 22.5234 68.4964 21.4726 68.4971 20.3979C68.498 19.6833 68.6396 18.9759 68.914 18.3161C69.1884 17.6562 69.5901 17.057 70.0962 16.5524C70.6022 16.0479 71.2027 15.6481 71.8634 15.3757C72.5241 15.1034 73.2319 14.9639 73.9465 14.9652Z" fill="#D37C4E"/>
<path d="M73.5137 26.5952C76.2752 26.5952 78.5138 25.0878 78.5138 23.2283C78.5138 21.3688 76.2752 19.8614 73.5137 19.8614C70.7523 19.8614 68.5137 21.3688 68.5137 23.2283C68.5137 25.0878 70.7523 26.5952 73.5137 26.5952Z" fill="#D37C4E"/>
<path d="M74.0609 14.9685C76.8678 14.9685 79.1415 16.3099 79.1415 17.9866C79.1415 19.6634 76.8678 21.0048 74.0609 21.0048C71.2541 21.0048 71.2574 14.9685 74.0609 14.9685Z" fill="#D37C4E"/>
<path d="M88.2118 18.1108C89.8483 18.4662 89.8886 25.304 88.2118 25.304C86.5351 25.304 85.1702 23.6943 85.1937 21.7057C85.187 18.9324 86.9878 17.8458 88.2118 18.1108Z" fill="#FFF3D3"/>
<path d="M88.2126 24.8009C89.4701 24.8009 90.4896 23.3025 90.4896 21.4542C90.4896 19.6058 89.4701 18.1074 88.2126 18.1074C86.955 18.1074 85.9355 19.6058 85.9355 21.4542C85.9355 23.3025 86.955 24.8009 88.2126 24.8009Z" fill="#4A3836"/>
<path d="M88.2959 21.2496C89.03 21.249 89.7632 21.3039 90.4891 21.4139V21.4541C90.4891 23.3019 89.483 24.8076 88.212 24.8076C86.9411 24.8076 85.9316 23.3086 85.9316 21.4541V21.4374C86.7133 21.3103 87.504 21.2475 88.2959 21.2496Z" fill="#745146"/>
<path d="M87.2617 20.4046C87.4366 20.3945 87.6105 20.4372 87.7609 20.527C87.9113 20.6169 88.0313 20.7498 88.1053 20.9086C88.1794 21.0674 88.204 21.2447 88.1762 21.4177C88.1483 21.5906 88.0691 21.7512 87.949 21.8787C87.8288 22.0062 87.6731 22.0947 87.5021 22.1328C87.3311 22.1708 87.1526 22.1567 86.9898 22.0922C86.8269 22.0277 86.6871 21.9158 86.5885 21.7709C86.4899 21.6261 86.4371 21.455 86.4368 21.2798C86.4313 21.0547 86.5149 20.8365 86.6694 20.6727C86.8238 20.5088 87.0367 20.4125 87.2617 20.4046Z" fill="#FEFAEC"/>
<path d="M74.2889 18.1108C75.9254 18.4662 75.9656 25.304 74.2889 25.304C72.6121 25.304 71.2506 23.6943 71.2707 21.7057C71.264 18.9324 73.0648 17.8458 74.2889 18.1108Z" fill="#FFF3D3"/>
<path d="M74.2897 24.8009C75.5473 24.8009 76.5667 23.3025 76.5667 21.4542C76.5667 19.6058 75.5473 18.1074 74.2897 18.1074C73.0321 18.1074 72.0127 19.6058 72.0127 21.4542C72.0127 23.3025 73.0321 24.8009 74.2897 24.8009Z" fill="#4A3836"/>
<ellipse cx="62.4506" cy="30.2525" rx="3.71522" ry="2.65373" fill="#D37C4E"/>
<path d="M74.373 21.2496C75.1072 21.249 75.8403 21.304 76.5662 21.4139V21.4541C76.5662 23.3019 75.5601 24.8076 74.2892 24.8076C73.0182 24.8076 72.0088 23.3086 72.0088 21.4541C72.0091 21.4486 72.0091 21.4429 72.0088 21.4374C72.7904 21.3101 73.5811 21.2473 74.373 21.2496Z" fill="#745146"/>
<path d="M73.3406 22.1552C73.7962 22.1552 74.1655 21.7633 74.1655 21.2799C74.1655 20.7965 73.7962 20.4046 73.3406 20.4046C72.885 20.4046 72.5156 20.7965 72.5156 21.2799C72.5156 21.7633 72.885 22.1552 73.3406 22.1552Z" fill="#FEFAEC"/>
<path d="M81.1456 24.7305C85.9377 24.7305 89.1705 26.4073 89.1705 28.4194C89.1705 30.4315 84.8479 31.9372 80.5621 31.8366C75.4748 31.7159 72.0576 29.3248 72.0576 27.3161C72.0576 25.3073 76.3568 24.7305 81.1456 24.7305Z" fill="#CA8C76"/>
<path d="M80.2379 21.3871C82.9206 21.3134 85.7543 21.8566 87.0253 23.2886C89.5706 23.9828 91.1334 25.029 90.9556 26.907C90.7209 29.3685 87.2668 30.5455 81.6899 30.5455C76.1131 30.5455 71.7837 29.3651 71.6294 26.8969C71.455 24.3617 75.5228 21.5179 80.2379 21.3871Z" fill="#FFBF95"/>
<path d="M77.364 25.7969C77.7988 26.1482 78.113 26.6266 78.2628 27.1652C77.7302 27.4514 77.2605 27.8413 76.8811 28.312C76.4591 28.1957 76.0692 27.9846 75.7409 27.695C74.8891 26.9673 74.5605 25.9512 75.0099 25.4247C75.4592 24.8982 76.5122 25.0692 77.364 25.7969Z" fill="#DC7660"/>
<path d="M86.5349 25.8372C87.3531 25.133 88.3692 24.9754 88.8018 25.4784C89.2344 25.9815 88.9158 26.9607 88.0976 27.6649C87.7795 27.9419 87.4038 28.1446 86.9976 28.2585C86.6307 27.8019 86.1742 27.4253 85.6562 27.1518C85.8049 26.6327 86.1121 26.1731 86.5349 25.8372Z" fill="#DC7660"/>
<path d="M83.857 7.43036C84.8346 7.43036 85.6262 7.9056 85.6262 8.49341C85.6262 9.08122 84.8293 9.55334 83.857 9.55334C82.8848 9.55334 82.0879 9.07809 82.0879 8.49341C82.0879 7.90873 82.8795 7.43036 83.857 7.43036Z" fill="#D37C4E"/>
<path d="M67.3135 8.62031C69.3692 8.44258 68.3632 16.7257 65.3718 18.0638C62.3805 19.4018 57.0183 14.5023 57.5247 10.7431C57.8801 8.08711 62.9708 8.99926 67.3135 8.62031Z" fill="#9C6141"/>
<path d="M65.0366 12.3931C67.7395 11.1959 68.3331 12.4132 68.1084 13.4294C67.6658 15.4414 66.7201 17.4535 65.372 18.0639C63.9367 18.7078 61.9514 17.913 60.3417 16.4945C59.3088 15.5924 62.5718 13.4897 65.0366 12.3931Z" fill="#8C5034"/>
<path d="M68.1035 0.00868644C69.864 0.276966 68.3382 3.6204 72.1578 6.18918C73.7441 7.25559 70.2329 11.7157 68.2946 10.2737C63.9183 7.01413 66.1584 -0.286421 68.1035 0.00868644Z" fill="#7A4E37"/>
<path d="M89.3999 8.8082C91.137 11.6486 92.0827 15.0021 92.6025 17.6111C89.5541 17.4502 85.4629 14.6634 85.4629 12.1718C85.4629 10.0356 87.0893 9.07312 89.3999 8.8082Z" fill="#D37C4E"/>
<path d="M115.31 54.9463L116.665 55.3242C116.06 57.5045 114.21 58.8743 111.328 59.2916C109.999 59.4764 108.65 59.4764 107.321 59.2916L107.542 57.9067C107.608 57.9067 114.207 58.9076 115.31 54.9463Z" fill="#F0D9BE"/>
<path d="M102.672 71.2572C103.966 66.8756 106.869 66.4644 107.269 67.3534C107.006 71.593 106.179 75.7787 104.81 79.7997C104.694 80.1561 104.469 80.4667 104.165 80.6871C103.862 80.9076 103.498 81.0267 103.123 81.0274H100.147C99.7753 81.0274 99.4174 80.8858 99.1461 80.6314C98.8748 80.377 98.7106 80.0288 98.6867 79.6576L98.3481 74.3295C98.9528 73.0111 101.569 72.3489 102.672 71.2572Z" fill="#DC9A6F"/>
<path d="M102.479 81.0243H100.148C99.7761 81.0243 99.4181 80.8827 99.1468 80.6283C98.8755 80.3738 98.7113 80.0257 98.6875 79.6545L98.6058 78.3845C101.261 77.9097 102.522 79.7996 102.479 81.0243Z" fill="#B8745C"/>
<path d="M101.239 54.5955C104.919 54.8284 107.782 55.675 109.866 57.0842C110.283 59.6484 107.903 62.5272 107.903 62.5272C107.903 62.5272 114.157 65.2487 114.163 65.3969C114.335 70.8943 110.066 75.0733 110.066 75.0733C110.066 75.0733 100.486 78.4571 93.4099 78.4571C83.8513 78.8744 81.5562 72.2369 81.5562 72.2369C77.9275 68.6476 81.4504 62.0494 81.4504 62.0494C81.4504 62.0494 92.923 54.0724 101.239 54.5955Z" fill="#FEFAEC"/>
<path d="M99.507 59.3763C98.7541 64.8193 91.6267 70.344 85.5971 70.7824C80.1904 71.1755 79.3981 67.4955 79.3981 67.4955C79.3981 67.4955 78.7722 64.0089 79.3981 63.132C80.024 62.255 100.257 53.9484 99.507 59.3763Z" fill="#F0D9BE"/>
<path d="M104.43 62.8236C105.713 62.8236 106.756 63.4042 106.756 64.1239C106.756 64.8436 105.713 65.4242 104.43 65.4242C103.148 65.4242 102.105 64.8436 102.105 64.1239C102.105 63.4042 103.145 62.8236 104.43 62.8236Z" fill="#FEFAEC"/>
<path d="M120.671 54.6107C119.891 52.9899 114.018 54.0573 113.861 56.3917C113.761 57.7676 117.245 58.2847 118.754 59.582C119.495 60.217 121.569 56.4764 120.671 54.6107Z" fill="#8C5034"/>
<path d="M99.9351 82.0496C99.9351 82.0496 98.792 83.1986 98.0391 83.1986H96.0433C94.4044 83.1986 93.0467 82.5939 92.9438 80.9519L92.7019 77.1599L101.831 76.67L99.9351 82.0496Z" fill="#FEFAEC"/>
<path d="M108.773 72.6512C110.121 68.6838 114.065 66.7637 113.956 67.8704C113.691 72.1088 112.865 76.2932 111.497 80.3137C111.381 80.6703 111.155 80.981 110.851 81.2015C110.548 81.4219 110.182 81.5409 109.807 81.5414H106.835C106.462 81.5422 106.104 81.4008 105.833 81.1462C105.561 80.8916 105.397 80.543 105.374 80.1716L105.032 74.8435C105.64 73.5281 107.669 73.7519 108.773 72.6512Z" fill="#F0D9BE"/>
<path d="M111.381 72.503L109.016 75.2911C106.325 76.5006 102.27 77.2778 102.27 77.2778C100.485 74.8829 112.07 69.8209 111.381 72.503Z" fill="#F0D9BE"/>
<path d="M107.728 79.2947C108.173 78.6143 110.413 78.7957 111.689 79.7059C111.623 79.9085 111.562 80.1111 111.496 80.3107C111.379 80.6673 111.153 80.978 110.85 81.1984C110.546 81.4189 110.181 81.5379 109.806 81.5384H106.833C106.461 81.5391 106.103 81.3978 105.831 81.1432C105.56 80.8886 105.396 80.54 105.373 80.1686L105.3 79.0437C105.279 78.4601 106.733 78.4601 107.728 79.2947Z" fill="#B8745C"/>
<path d="M96.3962 81.481C97.7025 82.0222 99.0904 81.4054 99.9492 82.0132L99.7164 82.6754C99.5934 83.0213 99.3663 83.3207 99.0664 83.5324C98.7664 83.7441 98.4083 83.8577 98.0411 83.8577H94.7935C94.3428 83.8579 93.909 83.6863 93.5803 83.3779C93.2517 83.0694 93.053 82.6474 93.0245 82.1976L92.9429 80.9034C93.8984 80.5345 95.1685 80.9669 96.3962 81.481Z" fill="#B8745C"/>
<path d="M91.2042 78.4058L91.7002 81.6141C92.0026 82.5787 87.2127 84.2328 85.982 83.368C83.8955 81.224 82.5136 75.8747 81.8786 72.8932C82.6648 71.5657 90.7083 76.0955 91.2042 78.4058Z" fill="#F0D9BE"/>
<path d="M88.8927 80.1656C89.6198 79.6584 90.5057 79.4307 91.3874 79.5245L91.7109 81.6261C92.0133 82.5908 87.2235 84.2448 85.9927 83.38C85.4359 82.7687 84.9686 82.0814 84.6048 81.3389C86.1275 81.464 87.6457 81.0486 88.8927 80.1656Z" fill="#B8745C"/>
<path d="M88.6969 82.5213C88.6969 82.5213 89.6041 83.0233 91.4971 82.1252C91.2128 82.4941 89.5255 83.4224 87.6628 83.5918C87.9251 83.5431 88.1657 83.4139 88.3511 83.222C88.5365 83.0301 88.6574 82.7852 88.6969 82.5213Z" fill="#E0A985"/>
<path d="M108.031 81.5293H107.426C106.928 80.9246 107.508 80.1988 107.508 80.1988C107.454 81.1755 108.031 81.5293 108.031 81.5293Z" fill="#D49167"/>
<path d="M109.866 57.0872C112.473 58.8502 113.87 61.4961 114.136 64.9282C114.136 65.0855 114.157 65.2306 114.16 65.3999C112.778 65.8722 111.327 66.1073 109.866 66.0954C105.421 66.0954 101.817 64.0785 101.817 61.5929C101.817 59.1072 105.421 57.0872 109.866 57.0872Z" fill="#FEFAEC"/>
<path d="M105.324 68.6431C102.784 68.6431 100.724 66.9005 100.724 64.7509C100.724 62.6014 102.784 60.8588 105.324 60.8588C107.864 60.8588 109.924 62.6014 109.924 64.7509C109.924 66.9005 107.864 68.6431 105.324 68.6431Z" fill="#DC9A6F"/>
<path d="M87.9364 38.4147C87.9364 38.4147 87.1321 36.6004 88.3296 36.6941C88.8769 36.7304 89.2367 37.692 91.1811 38.0397C95.6443 38.835 94.7342 40.6342 94.7342 40.6342C94.7342 40.6342 83.9298 43.2136 84.4529 40.2623C84.9609 37.4168 87.9364 38.4147 87.9364 38.4147Z" fill="#FEFAEC"/>
<path d="M79.8668 42.6058C81.79 42.7025 79.8668 50.0264 76.9215 50.858C73.9763 51.6895 69.6158 46.6245 70.5381 43.2982C71.1913 40.9456 75.7966 42.4001 79.8668 42.6058Z" fill="#9C6141"/>
<path d="M77.2994 45.7143C79.9483 44.9704 80.3505 46.1407 80.0209 47.0267C79.3647 48.7836 78.2459 50.48 76.9214 50.8549C75.5123 51.2571 73.7735 50.2925 72.446 48.8138C71.6024 47.8764 74.8833 46.3917 77.2994 45.7143Z" fill="#8C5034"/>
<path d="M80.9082 35.0461C82.4625 35.3636 80.6754 38.4207 83.8898 41.2753C85.2294 42.4637 81.4163 46.1558 79.8015 44.5774C76.1547 40.9971 79.106 34.659 80.9082 35.0461Z" fill="#7A4E37"/>
<path d="M75.8571 50.9578L79.2167 47.06L80.0785 43.2105C83.2233 39.4972 85.0558 38.6747 88.9022 38.8954C91.4514 39.0376 102.12 41.3145 102.065 50.7763C102.02 59.3098 97.6292 66.5217 87.0909 65.6509C76.2049 64.7437 72.4189 59.5063 74.9318 54.916C75.1142 53.5703 75.424 52.2449 75.8571 50.9578Z" fill="#FEFAEC"/>
<path d="M93.6309 50.849C94.6265 50.9853 95.5593 51.4137 96.3115 52.08C97.0638 52.7462 97.6017 53.6205 97.8573 54.5924C98.1128 55.5642 98.0746 56.59 97.7475 57.5402C97.4203 58.4903 96.8188 59.3221 96.0191 59.9306C95.2193 60.5391 94.2572 60.8968 93.2542 60.9587C92.2513 61.0206 91.2524 60.7838 90.384 60.2782C89.5155 59.7727 88.8164 59.0211 88.3749 58.1184C87.9334 57.2156 87.7694 56.2023 87.9036 55.2064C88.0861 53.8695 88.7918 52.6597 89.8657 51.8427C90.9395 51.0257 92.2937 50.6683 93.6309 50.849Z" fill="#DC9A6F"/>
<path d="M93.4288 55.4423C95.987 55.787 97.874 57.4622 97.6441 59.1858C97.4143 60.9095 95.1494 62.0253 92.5882 61.6806C90.0269 61.3358 88.1431 59.6606 88.3759 57.937C88.6087 56.2134 90.8615 55.0975 93.4288 55.4423Z" fill="#DC9A6F"/>
<path d="M81.8691 48.9174C84.8853 49.3529 84.0084 56.321 80.9957 55.8855C77.983 55.45 75.7348 53.539 75.9733 51.6131C76.2118 49.6871 78.8563 48.4819 81.8691 48.9174Z" fill="#D37C4E"/>
<path d="M80.0193 51.9799C81.1865 51.8862 82.7196 53.1169 82.3809 55.6902C82.139 57.5318 80.6755 58.8532 79.1242 58.6446C77.5729 58.4359 78.459 52.1099 80.0193 51.9799Z" fill="#FFF3D3"/>
<path d="M80.0214 51.9799C81.1886 52.1371 81.9476 53.6521 81.7178 55.3636C81.488 57.0752 80.354 58.3361 79.1868 58.1789C78.0195 58.0216 77.2636 56.5067 77.4934 54.7952C77.7232 53.0836 78.8572 51.8287 80.0214 51.9799Z" fill="#4A3836"/>
<path d="M79.5527 54.8858C80.2861 54.9815 81.0104 55.1383 81.7178 55.3545C81.4849 57.066 80.354 58.327 79.1868 58.1697C78.0196 58.0125 77.2636 56.4975 77.4934 54.786C77.4948 54.7729 77.4948 54.7597 77.4934 54.7467C78.1824 54.7406 78.8708 54.7871 79.5527 54.8858Z" fill="#745146"/>
<path d="M80.613 54.2297C80.7766 54.242 80.9327 54.303 81.0611 54.405C81.1896 54.507 81.2845 54.6452 81.3335 54.8016C81.3826 54.9581 81.3836 55.1258 81.3364 55.2828C81.2892 55.4399 81.1959 55.5792 81.0686 55.6826C80.9414 55.7861 80.786 55.849 80.6226 55.8632C80.4592 55.8774 80.2953 55.8423 80.1521 55.7623C80.0089 55.6824 79.893 55.5613 79.8194 55.4147C79.7458 55.2682 79.7178 55.1029 79.7391 54.9403C79.7612 54.7304 79.8656 54.5378 80.0294 54.4046C80.1932 54.2714 80.403 54.2085 80.613 54.2297Z" fill="#FEFAEC"/>
<path d="M92.9197 53.7216C94.0869 53.6279 95.62 54.8616 95.2813 57.432C95.0394 59.2735 93.5759 60.598 92.0246 60.3893C90.4733 60.1807 91.3593 53.8456 92.9197 53.7216Z" fill="#FFF3D3"/>
<path d="M92.9198 53.7216C94.087 53.8789 94.846 55.3939 94.6162 57.1054C94.3864 58.8169 93.2524 60.0779 92.0882 59.9206C90.924 59.7634 90.162 58.2484 90.3918 56.5369C90.6216 54.8254 91.7556 53.5644 92.9198 53.7216Z" fill="#4A3836"/>
<path d="M92.453 56.6216C93.1865 56.7174 93.9107 56.8741 94.6182 57.0903V57.1205C94.3853 58.832 93.2544 60.093 92.0902 59.9358C90.926 59.7785 90.1639 58.2636 90.3938 56.552V56.5127C91.0819 56.4965 91.7704 56.5329 92.453 56.6216Z" fill="#745146"/>
<path d="M93.5138 55.9684C93.6775 55.9808 93.8336 56.042 93.9621 56.1442C94.0905 56.2463 94.1854 56.3847 94.2343 56.5414C94.2832 56.698 94.2839 56.8658 94.2364 57.0229C94.1888 57.18 94.0952 57.3192 93.9677 57.4224C93.8401 57.5257 93.6845 57.5883 93.521 57.6021C93.3574 57.6159 93.1935 57.5803 93.0504 57.4999C92.9074 57.4195 92.7917 57.298 92.7185 57.1511C92.6454 57.0042 92.6179 56.8387 92.6399 56.676C92.6504 56.572 92.6815 56.4712 92.7312 56.3792C92.7809 56.2873 92.8483 56.2061 92.9295 56.1403C93.0108 56.0745 93.1042 56.0255 93.2045 55.996C93.3048 55.9665 93.4099 55.9571 93.5138 55.9684Z" fill="#FEFAEC"/>
<path d="M85.7411 59.0014C90.1802 59.6062 94.0901 60.6706 93.8391 62.5333C93.5881 64.396 90.1258 66.1862 85.3934 65.66C81.4109 65.2185 77.5948 63.2832 77.8337 61.4266C78.0726 59.5699 81.299 58.4027 85.7411 59.0014Z" fill="#E0A985"/>
<path d="M80.4755 56.93C81.8332 55.7628 84.5365 55.6146 87.001 56.0228C91.3554 56.7334 94.7664 59.8753 94.2977 62.2037C93.838 64.4686 89.6651 65.0189 84.5124 64.3204C79.3596 63.6219 76.2934 62.1039 76.3811 59.7845C76.4506 58.0277 78.0291 57.2566 80.4755 56.93Z" fill="#FFBF95"/>
<path d="M89.1134 60.4619C89.9933 59.8934 90.9912 59.8571 91.342 60.4105C91.6927 60.9639 91.2603 61.8529 90.3804 62.4244C90.0385 62.649 89.6513 62.7956 89.2464 62.8538C88.9544 62.3694 88.5689 61.948 88.1125 61.614C88.317 61.1345 88.6672 60.7315 89.1134 60.4619Z" fill="#DC7660"/>
<path d="M80.611 59.3521C80.9565 59.7175 81.1795 60.1815 81.249 60.6796C80.7391 60.8704 80.2731 61.1625 79.8792 61.5384C79.517 61.3836 79.1945 61.1489 78.9357 60.8519C78.2644 60.099 78.0921 59.1525 78.5548 58.7352C79.0174 58.3179 79.9397 58.5991 80.611 59.3521Z" fill="#DC7660"/>
<path d="M100.567 45.7991C104.544 46.6911 109.373 46.4794 109.373 48.9862C109.373 52.5333 103.794 56.4069 101.187 54.7921C98.5808 53.1774 98.6866 45.3787 100.567 45.7991Z" fill="#9C6141"/>
<path d="M102.198 49.5789C104.345 50.9034 107.106 53.259 106.045 53.9636C104.369 55.0764 102.416 55.5693 101.179 54.7921C100.006 54.0634 99.383 52.0706 99.2227 50.1565C99.1532 49.1858 99.8547 48.1305 102.198 49.5789Z" fill="#8C5034"/>
<path d="M96.3826 42.9414C100.238 41.0394 99.2432 37.7524 100.918 37.7222C102.76 37.6889 103.924 44.7346 99.464 47.2081C97.4773 48.3028 94.7769 43.7337 96.3826 42.9414Z" fill="#7A4E37"/>
<path d="M80.0765 43.2106C82.1933 43.7458 83.5722 44.8405 83.3061 46.8211C83.0037 49.1737 78.7007 51.2753 75.8552 50.9518C76.7542 48.1226 78.1917 45.494 80.0887 43.2106H80.0765Z" fill="#D37C4E"/>
<ellipse cx="107.607" cy="60.997" rx="2.67032" ry="1.90737" fill="#DC9A6F"/>
</svg>
