<svg width="693" height="332" viewBox="0 0 693 332" fill="none" xmlns="http://www.w3.org/2000/svg">
<g clip-path="url(#clip0_16_22408)">
<path d="M692.921 0H0V331.175H692.921V0Z" fill="#FB8CFF"/>
<path d="M692.921 0H0V331.175H692.921V0Z" fill="#FB8CFF"/>
<mask id="mask0_16_22408" style="mask-type:luminance" maskUnits="userSpaceOnUse" x="0" y="2" width="692" height="330">
<path d="M691.121 2.59552H0.599365V331.457H691.121V2.59552Z" fill="white"/>
</mask>
<g mask="url(#mask0_16_22408)">
<path d="M346.478 216.736C346.478 216.736 358.149 246.76 349.549 258.568C326.191 290.636 299.326 278.953 297.645 295.192C295.964 311.431 316.607 341.688 310.576 359.959C299.575 393.28 246.707 399.283 241.858 424.705C235.286 459.153 254.919 490.297 243.377 516.295C231.835 542.294 165.746 610.275 165.746 610.275L50.1677 528.313C50.1677 528.313 146.255 462.795 152.394 451.685C158.532 440.574 172.159 392.822 190.19 374.092C208.22 355.362 247.924 372.555 268.578 340.296C273.928 331.94 265.776 294.394 275.958 277.212C295.111 244.896 323.619 268.772 340.689 246.227C349.597 234.462 346.478 216.736 346.478 216.736Z" fill="#ED6BEB"/>
<path d="M348.082 217.066C348.082 217.066 339.879 248.217 325.978 252.714C288.232 264.929 273.365 239.686 262.46 251.835C251.555 263.985 250.47 300.595 234.852 311.833C206.365 332.327 160.067 306.106 141.202 323.823C115.638 347.829 113.215 384.564 88.5948 398.814C63.9742 413.063 -29.4513 429.213 -29.4513 429.213L-74.7791 294.971C-74.7791 294.971 41.4686 298.445 52.966 293.064C64.4634 287.683 103.555 257.06 129.151 252.508C154.746 247.955 176.762 285.2 212.433 271.241C221.671 267.624 237.144 232.459 255.486 224.544C289.975 209.657 299.005 245.73 326.067 237.524C340.186 233.24 348.082 217.066 348.082 217.066Z" fill="#ED6BEB"/>
<path d="M349.187 218.277C349.187 218.277 324.239 238.657 310.351 234.122C272.634 221.817 275.444 192.658 259.481 196.077C243.517 199.496 221.119 228.481 201.879 228.388C166.787 228.224 144.744 179.797 119.067 183.043C84.2751 187.439 60.7219 215.733 32.4293 212.79C4.13674 209.848 -80.9407 167.998 -80.9407 167.998L-38.7031 32.7508C-38.7031 32.7508 53.299 103.891 65.7629 106.295C78.2268 108.699 127.853 106.904 151.237 118.263C174.622 129.623 170.54 172.697 207.602 182.372C217.202 184.877 250.392 165.521 269.879 169.897C306.532 178.126 292.634 212.617 319.352 221.884C333.292 226.721 349.187 218.277 349.187 218.277Z" fill="#ED6BEB"/>
<path d="M349.369 219.906C349.369 219.906 317.207 221.728 308.635 209.9C285.355 177.776 304.767 155.836 289.843 149.218C274.919 142.6 239.762 152.883 224.25 141.502C195.957 120.742 206.587 68.6075 183.908 56.14C153.176 39.247 117.49 48.2932 96.3305 29.2822C75.1709 10.2712 30.9407 -73.5926 30.9407 -73.5926L144.606 -158.184C144.606 -158.184 177.224 -46.5529 185.895 -37.28C194.565 -28.0071 235.768 -0.290237 248.01 22.6429C260.252 45.576 231.631 78.0256 255.929 107.638C262.222 115.307 300.45 119.157 313.645 134.151C338.46 162.353 306.943 182.087 323.11 205.289C331.546 217.394 349.369 219.906 349.369 219.906Z" fill="#ED6BEB"/>
<path d="M348.559 221.331C348.559 221.331 321.468 203.901 321.486 189.293C321.533 149.62 350.134 143.281 341.949 129.155C333.764 115.029 299.279 102.684 293.419 84.3582C282.732 50.9324 321.976 15.0029 310.956 -8.41374C296.025 -40.1449 261.837 -53.8016 255.892 -81.6193C249.947 -109.437 263.459 -203.282 263.459 -203.282L405.138 -204.908C405.138 -204.908 365.912 -95.4232 367.476 -82.8258C369.041 -70.2284 386.084 -23.5872 382.507 2.16298C378.93 27.9131 336.703 37.3425 338.954 75.582C339.538 85.4852 368.2 111.07 370.063 130.956C373.564 168.357 336.466 165.798 335.908 194.071C335.616 208.823 348.559 221.331 348.559 221.331Z" fill="#ED6BEB"/>
<path d="M347.065 222.007C347.065 222.007 335.393 191.982 343.994 180.174C367.352 148.106 394.217 159.789 395.897 143.55C397.578 127.312 376.936 97.0538 382.967 78.7841C393.968 45.4598 446.837 39.4594 451.685 14.0378C458.257 -20.4105 438.624 -51.5537 450.166 -77.553C461.708 -103.552 527.799 -171.532 527.799 -171.532L643.375 -89.5711C643.375 -89.5711 547.287 -24.0524 541.149 -12.9423C535.01 -1.83209 521.383 45.9203 503.353 64.6501C485.323 83.3798 445.619 66.1873 424.965 98.4463C419.615 106.802 427.767 144.348 417.585 161.53C398.434 193.847 369.924 169.97 352.854 192.516C343.946 204.281 347.065 222.007 347.065 222.007Z" fill="#ED6BEB"/>
<path d="M345.459 221.676C345.459 221.676 353.662 190.525 367.564 186.028C405.309 173.814 420.176 199.056 431.082 186.907C441.987 174.758 443.071 138.145 458.689 126.909C487.177 106.415 533.474 132.636 552.34 114.919C577.904 90.9123 580.326 54.1778 604.947 39.9271C629.567 25.6763 722.993 9.52823 722.993 9.52823L768.32 143.77C768.32 143.77 652.073 140.297 640.575 145.677C629.078 151.058 589.987 181.68 564.391 186.234C538.795 190.787 516.779 153.542 481.108 167.5C471.87 171.117 456.398 206.283 438.058 214.198C403.568 229.085 394.539 193.012 367.476 201.218C353.355 205.502 345.459 221.676 345.459 221.676Z" fill="#ED6BEB"/>
<path d="M344.354 220.465C344.354 220.465 369.303 200.085 383.19 204.62C420.907 216.925 418.097 246.084 434.061 242.666C450.025 239.247 468.988 222.289 488.227 222.379C523.32 222.544 544.828 273.459 570.505 270.215C605.297 265.819 632.82 223.01 661.112 225.952C689.405 228.895 774.482 270.745 774.482 270.745L732.247 405.992C732.247 405.992 640.243 334.851 627.779 332.447C615.315 330.042 565.689 331.838 542.304 320.478C518.92 309.119 523.001 266.043 485.939 256.37C476.34 253.865 443.15 273.22 423.662 268.845C387.009 260.616 400.908 226.125 374.19 216.857C360.249 212.021 344.354 220.465 344.354 220.465Z" fill="#ED6BEB"/>
<path d="M344.173 218.836C344.173 218.836 376.335 217.014 384.907 228.842C408.188 260.967 388.775 282.906 403.699 289.524C418.624 296.142 466.3 281.277 481.81 292.661C510.103 313.421 509.029 357.748 531.709 370.215C562.44 387.109 603.734 369.24 624.896 388.252C646.059 407.263 695.835 485.645 695.835 485.645L548.937 596.926C548.937 596.926 516.318 485.295 507.648 476.022C498.977 466.749 457.774 439.035 445.532 416.099C433.291 393.163 461.911 360.716 437.614 331.104C431.32 323.435 393.092 319.585 379.898 304.591C355.082 276.389 386.599 256.655 370.432 233.453C361.996 221.347 344.173 218.836 344.173 218.836Z" fill="#ED6BEB"/>
<path d="M344.983 217.411C344.983 217.411 373.611 237.172 373.594 251.78C373.546 291.453 343.408 295.461 351.592 309.587C359.777 323.712 394.262 336.058 400.122 354.384C410.81 387.809 371.566 423.739 382.585 447.156C397.518 478.887 431.706 492.544 437.65 520.361C443.594 548.178 430.083 642.024 430.083 642.024L288.404 643.649C288.404 643.649 327.63 534.165 326.065 521.568C324.501 508.971 307.457 462.329 311.035 436.579C314.613 410.828 356.839 401.4 354.587 363.16C354.004 353.256 322.336 327.726 323.479 307.786C324.897 283.04 362.171 276.427 357.634 244.67C355.548 230.064 344.983 217.411 344.983 217.411Z" fill="#ED6BEB"/>
</g>
<path d="M-16.9902 149.066C-65.4682 149.102 -63.6508 201.707 -29.876 225.608C3.89881 249.508 148.073 219.274 205.926 234.9C238.491 243.695 268.579 247.292 284.396 250.365C303.904 254.155 323.525 263.14 328.282 242.25C332.953 221.741 303.215 192.444 276.952 186.479C244.938 179.207 228.201 189.551 209.768 167.746C191.335 145.94 164.899 70.2456 101.011 106.174C101.011 106.174 91.1778 71.285 64.2899 48.8751C37.402 26.4652 -24.6944 41.3676 -9.91936 86.4003C4.85565 131.433 -16.9902 149.066 -16.9902 149.066Z" fill="#8839E3"/>
<path d="M-20.6938 171.198C-69.0454 174.688 -63.4863 227.029 -28.0948 248.464C7.29661 269.899 148.951 229.471 207.771 240.936C240.878 247.389 271.147 248.833 287.142 250.772C306.871 253.163 327.082 260.727 330.339 239.552C333.537 218.765 301.789 191.659 275.167 187.579C242.716 182.606 223.722 195.076 203.783 174.637C183.844 154.198 152.792 79.4187 91.6256 119.807C91.6256 119.807 81.6562 85.9102 53.2434 65.4726C24.8306 45.035 -36.0497 64.3222 -18.1045 108.188C-0.15942 152.054 -20.6938 171.198 -20.6938 171.198Z" fill="#2B2869"/>
<path d="M67.1558 205.005C66.6463 210.253 64.5272 213.37 59.4832 213.829C58.668 213.88 59.0007 215.453 59.8668 215.555C64.809 216.065 66.1159 218.136 66.6763 222.365C66.7721 223.516 67.8268 223.803 67.9231 222.46C68.4835 218.232 70.6891 215.157 75.0199 214.596C75.988 214.443 76.2758 213.547 75.3078 213.445C70.9261 212.987 68.6241 210.496 68.1146 205.197C67.9108 204.331 67.2577 204.139 67.1558 205.005Z" stroke="#814EBD" stroke-width="1.5285" stroke-miterlimit="10" stroke-linecap="round"/>
<path d="M59.0554 167.433C58.6478 171.204 57.5779 172.07 53.9604 172.426C53.8282 172.453 53.7087 172.523 53.621 172.626C53.5333 172.729 53.4825 172.858 53.4766 172.992C53.4708 173.127 53.5102 173.26 53.5887 173.37C53.6671 173.48 53.78 173.56 53.9095 173.598C57.476 174.006 58.444 175.076 58.8516 178.133C58.9026 178.693 60.0235 178.744 60.0744 178.184C60.482 175.127 61.7558 174.108 64.8637 173.7C65.0108 173.674 65.1435 173.595 65.237 173.479C65.3305 173.362 65.3787 173.216 65.3724 173.066C65.3662 172.917 65.3061 172.775 65.2032 172.667C65.1003 172.559 64.9616 172.491 64.8128 172.477C61.6539 172.121 60.6349 171.305 60.2273 167.484C60.2201 167.338 60.1584 167.199 60.0544 167.095C59.9503 166.992 59.8113 166.931 59.6646 166.924C59.5179 166.918 59.3741 166.967 59.2614 167.061C59.1488 167.155 59.0753 167.288 59.0554 167.433Z" fill="#8457DE"/>
<path d="M140.626 149.739C140.218 153.509 139.148 154.375 135.531 154.732C135.399 154.759 135.279 154.829 135.192 154.932C135.104 155.034 135.053 155.163 135.047 155.298C135.041 155.433 135.081 155.566 135.159 155.676C135.238 155.785 135.351 155.866 135.48 155.904C139.047 156.311 140.015 157.381 140.422 160.438C140.473 160.999 141.594 161.05 141.645 160.489C142.053 157.432 143.326 156.413 146.434 156.006C146.581 155.98 146.714 155.901 146.808 155.784C146.901 155.668 146.949 155.521 146.943 155.372C146.937 155.223 146.877 155.081 146.774 154.973C146.671 154.864 146.532 154.797 146.383 154.783C143.224 154.426 142.205 153.611 141.798 149.79C141.791 149.643 141.729 149.505 141.625 149.401C141.521 149.297 141.382 149.237 141.235 149.23C141.088 149.224 140.945 149.272 140.832 149.367C140.719 149.461 140.646 149.593 140.626 149.739Z" fill="#8457DE"/>
<path d="M44.2452 204.139C44.2452 204.139 38.2529 203.8 38.5923 205.044C38.9316 206.288 44.2477 206.175 44.2477 206.175C44.2477 206.175 43.5696 212.023 45.1521 212.023C46.7346 212.023 46.5343 205.842 46.5343 205.842C46.5343 205.842 50.9161 207.079 50.805 206.062C50.6939 205.044 46.622 204.027 46.622 204.027C46.622 204.027 47.7872 198.643 45.526 198.417C43.2649 198.191 44.2452 204.139 44.2452 204.139Z" fill="#8457DE"/>
<path d="M187.399 208.427C187.399 208.427 181.407 208.087 181.746 209.331C182.085 210.575 187.399 210.462 187.399 210.462C187.399 210.462 186.721 216.31 188.303 216.31C189.886 216.31 189.686 210.129 189.686 210.129C189.686 210.129 194.067 211.367 193.956 210.349C193.845 209.332 189.773 208.311 189.773 208.311C189.773 208.311 190.938 202.928 188.677 202.701C186.416 202.475 187.399 208.427 187.399 208.427Z" fill="#8457DE"/>
<path d="M127.994 169.303C127.572 173.469 126.384 174.416 122.339 174.798C121.676 174.838 121.614 175.985 122.278 176.066C126.201 176.489 127.271 177.697 127.733 181.078C127.814 181.702 129.001 181.741 129.082 181.119C129.545 177.737 130.914 176.609 134.376 176.147C134.538 176.122 134.685 176.039 134.79 175.914C134.895 175.788 134.95 175.628 134.945 175.465C134.94 175.301 134.875 175.145 134.763 175.026C134.651 174.907 134.498 174.833 134.335 174.818C130.833 174.435 129.706 173.53 129.283 169.303C129.257 169.15 129.179 169.012 129.061 168.913C128.943 168.813 128.793 168.758 128.639 168.758C128.484 168.758 128.335 168.813 128.217 168.913C128.099 169.012 128.02 169.15 127.994 169.303Z" fill="#6B4CE5"/>
<path d="M20.1004 124.419C19.6775 128.585 18.4898 129.532 14.4449 129.914C13.7826 129.955 13.7204 131.102 14.3848 131.182C18.3079 131.605 19.3779 132.813 19.8395 136.194C19.92 136.819 21.1076 136.857 21.1881 136.235C21.6513 132.853 23.0198 131.726 26.4824 131.263C26.6442 131.238 26.7915 131.156 26.8964 131.03C27.0013 130.904 27.0565 130.744 27.0515 130.581C27.0465 130.417 26.9818 130.261 26.8695 130.142C26.7572 130.023 26.6052 129.949 26.4421 129.934C22.9393 129.552 21.8123 128.646 21.3894 124.419C21.3643 124.266 21.2857 124.127 21.1676 124.027C21.0496 123.927 20.8997 123.872 20.7449 123.872C20.59 123.872 20.4402 123.927 20.3222 124.027C20.2041 124.127 20.1255 124.266 20.1004 124.419Z" fill="#6B4CE5"/>
<path d="M112.894 150.89C112.242 157.318 110.41 158.777 104.168 159.367C103.143 159.43 103.05 161.202 104.074 161.324C110.13 161.976 111.776 163.839 112.49 169.057C112.615 170.02 114.447 170.081 114.571 169.119C115.285 163.902 117.397 162.163 122.739 161.448C122.988 161.41 123.215 161.283 123.377 161.089C123.539 160.895 123.624 160.648 123.616 160.396C123.609 160.143 123.509 159.903 123.335 159.719C123.162 159.535 122.928 159.421 122.676 159.399C117.273 158.809 115.534 157.412 114.881 150.89C114.84 150.656 114.719 150.443 114.537 150.29C114.355 150.137 114.125 150.054 113.887 150.054C113.65 150.054 113.42 150.137 113.238 150.29C113.056 150.443 112.934 150.656 112.894 150.89Z" fill="#6B4CE5"/>
<path d="M187.983 183.113C187.561 187.28 186.373 188.226 182.328 188.608C181.666 188.648 181.603 189.796 182.267 189.876C186.191 190.299 187.26 191.507 187.723 194.889C187.803 195.512 188.991 195.551 189.071 194.929C189.534 191.547 190.903 190.42 194.365 189.957C194.526 189.932 194.673 189.849 194.778 189.723C194.882 189.598 194.937 189.438 194.932 189.275C194.927 189.112 194.863 188.956 194.751 188.837C194.639 188.718 194.487 188.644 194.325 188.629C190.822 188.246 189.695 187.34 189.272 183.113C189.247 182.961 189.168 182.823 189.05 182.723C188.932 182.623 188.782 182.569 188.628 182.569C188.474 182.569 188.324 182.623 188.206 182.723C188.088 182.823 188.009 182.961 187.983 183.113Z" fill="#6B4CE5"/>
<path d="M167.705 189.3C167.052 195.728 165.22 197.188 158.978 197.778C157.953 197.84 157.86 199.612 158.885 199.734C164.94 200.386 166.586 202.25 167.3 207.467C167.425 208.43 169.257 208.492 169.381 207.529C170.095 202.312 172.207 200.573 177.549 199.859C177.798 199.821 178.025 199.693 178.187 199.499C178.349 199.305 178.434 199.058 178.426 198.806C178.419 198.554 178.319 198.313 178.146 198.129C177.972 197.945 177.738 197.831 177.486 197.809C172.086 197.219 170.344 195.822 169.691 189.3C169.65 189.066 169.528 188.854 169.347 188.702C169.165 188.549 168.935 188.465 168.698 188.465C168.46 188.465 168.231 188.549 168.049 188.702C167.867 188.854 167.745 189.066 167.705 189.3Z" fill="#6B4CE5"/>
<path d="M34.7557 95.6916C33.9578 103.558 31.7155 105.344 24.0775 106.066C22.8237 106.142 22.7095 108.308 23.9634 108.461C31.3736 109.259 33.3892 111.539 34.262 117.923C34.4148 119.101 36.6566 119.177 36.8095 117.999C37.6832 111.615 40.2674 109.487 46.8033 108.613C47.1084 108.566 47.3859 108.41 47.5833 108.172C47.7808 107.935 47.8847 107.634 47.8754 107.325C47.866 107.017 47.7441 106.722 47.5327 106.498C47.3212 106.273 47.0348 106.133 46.7274 106.105C40.1151 105.383 37.9874 103.673 37.1895 95.6926C36.9598 94.2854 34.9075 94.3618 34.7557 95.6916Z" fill="#6B4CE5"/>
<path d="M813.417 250.177C814.112 293.465 776.288 327.843 702.689 299.173C629.089 270.503 628.141 257.41 580.213 255.107C532.285 252.804 352.102 269.633 358.507 229.372C363.641 197.102 406.007 169.959 424.98 181.556C429.56 184.358 437.972 197.323 442.243 194.071C451.14 187.301 464.402 168.393 485.832 175.514C511.67 184.098 493.078 163.469 515.179 140.988C546.335 109.297 575.168 131.493 581.642 124.588C595.629 109.668 610.371 71.6934 626.958 58.5564C655.118 36.2541 680.16 24.1682 718.883 41.2935C761.27 60.0386 736.886 91.3774 734.051 128.618C734.051 128.618 787.231 134.554 752.082 201.387C752.082 201.387 812.739 207.849 813.417 250.177Z" fill="#8839E3"/>
<path d="M818.493 273.167C816.799 316.427 777.136 348.668 705.231 315.982C633.327 283.296 633.099 270.17 585.372 265.228C537.644 260.286 356.81 267.151 365.42 227.304C372.326 195.367 409.788 178.403 428.093 191.027C432.512 194.076 442.976 196.651 447.42 193.64C456.677 187.37 466.497 173.847 487.501 182.138C512.826 192.135 506.113 175.973 526.83 152.209C556.177 118.546 577.953 144.418 586.388 133.219C598.692 116.884 620.891 93.631 638.176 81.4305C667.524 60.7148 697.13 49.248 734.85 68.4831C776.137 89.5372 750.835 110.39 745.95 147.415C745.95 147.415 798.722 156.276 759.94 221.069C759.942 221.069 820.15 230.866 818.493 273.167Z" fill="#2B2869"/>
<path d="M632.233 213.253C631.723 218.551 629.421 221.042 625.04 221.501C624.072 221.603 624.359 222.498 625.327 222.651C629.658 223.212 631.864 226.287 632.424 230.516C632.521 231.858 633.575 231.571 633.671 230.42C634.231 226.191 635.538 224.12 640.481 223.611C641.347 223.509 641.679 221.935 640.864 221.885C635.82 221.426 633.701 218.309 633.192 213.061C633.09 212.195 632.437 212.386 632.233 213.253Z" stroke="#814EBD" stroke-width="1.5285" stroke-miterlimit="10" stroke-linecap="round"/>
<path d="M640.12 175.54C639.712 179.362 638.693 180.177 635.534 180.533C635.385 180.547 635.247 180.615 635.144 180.723C635.041 180.831 634.981 180.973 634.974 181.123C634.968 181.272 635.016 181.418 635.11 181.535C635.203 181.651 635.336 181.73 635.483 181.756C638.591 182.164 639.865 183.183 640.272 186.24C640.323 186.8 641.444 186.749 641.495 186.189C641.903 183.132 642.871 182.062 646.437 181.654C646.567 181.616 646.68 181.536 646.758 181.426C646.837 181.316 646.876 181.183 646.87 181.048C646.864 180.914 646.813 180.785 646.726 180.682C646.638 180.58 646.519 180.509 646.386 180.482C642.769 180.126 641.699 179.26 641.291 175.489C641.272 175.344 641.198 175.211 641.085 175.117C640.973 175.023 640.829 174.974 640.682 174.981C640.536 174.987 640.397 175.048 640.293 175.151C640.188 175.255 640.127 175.394 640.12 175.54Z" fill="#8457DE"/>
<path d="M558.551 157.846C558.143 161.667 557.124 162.482 553.965 162.839C553.817 162.853 553.678 162.92 553.575 163.028C553.472 163.137 553.412 163.279 553.406 163.428C553.4 163.577 553.448 163.724 553.541 163.84C553.635 163.957 553.767 164.036 553.915 164.062C557.022 164.469 558.296 165.488 558.704 168.545C558.755 169.106 559.876 169.055 559.927 168.494C560.334 165.437 561.302 164.367 564.869 163.96C564.998 163.922 565.111 163.841 565.19 163.732C565.268 163.622 565.307 163.489 565.302 163.354C565.296 163.219 565.245 163.09 565.157 162.988C565.07 162.885 564.95 162.815 564.818 162.788C561.2 162.431 560.13 161.565 559.723 157.795C559.703 157.649 559.63 157.517 559.517 157.423C559.404 157.328 559.26 157.28 559.114 157.286C558.967 157.293 558.828 157.353 558.724 157.457C558.62 157.561 558.558 157.699 558.551 157.846Z" fill="#8457DE"/>
<path d="M656.104 212.196C656.104 212.196 662.096 211.857 661.759 213.101C661.423 214.344 656.104 214.231 656.104 214.231C656.104 214.231 656.782 220.079 655.2 220.079C653.617 220.079 653.817 213.899 653.817 213.899C653.817 213.899 649.436 215.136 649.546 214.119C649.657 213.101 653.73 212.081 653.73 212.081C653.73 212.081 652.564 206.697 654.826 206.471C657.087 206.245 656.104 212.196 656.104 212.196Z" fill="#8457DE"/>
<path d="M572.355 177.359C572.777 181.525 573.965 182.472 578.01 182.854C578.672 182.894 578.735 184.041 578.071 184.122C574.148 184.545 573.078 185.752 572.615 189.134C572.535 189.758 571.347 189.797 571.267 189.175C570.804 185.793 569.433 184.666 565.973 184.202C565.812 184.177 565.665 184.094 565.56 183.969C565.456 183.843 565.401 183.684 565.406 183.52C565.411 183.357 565.475 183.201 565.587 183.082C565.699 182.963 565.851 182.889 566.013 182.874C569.516 182.492 570.643 181.586 571.066 177.359C571.091 177.207 571.17 177.068 571.288 176.969C571.406 176.869 571.556 176.814 571.71 176.814C571.865 176.814 572.014 176.869 572.132 176.969C572.25 177.068 572.329 177.207 572.355 177.359Z" fill="#6B4CE5"/>
<path d="M680.248 132.475C680.671 136.642 681.859 137.588 685.904 137.97C686.566 138.01 686.628 139.157 685.964 139.238C682.041 139.661 680.971 140.868 680.509 144.25C680.429 144.874 679.241 144.913 679.161 144.291C678.698 140.909 677.326 139.782 673.866 139.318C673.705 139.294 673.558 139.21 673.454 139.085C673.349 138.959 673.294 138.8 673.299 138.637C673.304 138.473 673.369 138.317 673.481 138.198C673.593 138.079 673.744 138.005 673.907 137.99C677.409 137.608 678.537 136.702 678.959 132.475C678.984 132.322 679.063 132.184 679.181 132.084C679.299 131.984 679.449 131.929 679.604 131.929C679.758 131.929 679.908 131.984 680.026 132.084C680.144 132.184 680.223 132.322 680.248 132.475Z" fill="#6B4CE5"/>
<path d="M587.454 158.946C588.106 165.375 589.938 166.835 596.18 167.425C597.205 167.487 597.298 169.259 596.273 169.381C590.217 170.033 588.571 171.896 587.857 177.114C587.733 178.076 585.901 178.138 585.776 177.176C585.063 171.959 582.951 170.22 577.609 169.505C577.359 169.468 577.132 169.34 576.971 169.146C576.809 168.952 576.724 168.705 576.731 168.453C576.739 168.201 576.839 167.96 577.012 167.776C577.185 167.592 577.42 167.478 577.671 167.456C583.075 166.866 584.814 165.469 585.467 158.947C585.507 158.713 585.629 158.501 585.811 158.347C585.992 158.194 586.222 158.11 586.46 158.11C586.697 158.11 586.928 158.194 587.109 158.347C587.291 158.5 587.413 158.712 587.454 158.946Z" fill="#6B4CE5"/>
<path d="M512.365 191.169C512.787 195.336 513.975 196.282 518.021 196.664C518.683 196.704 518.746 197.852 518.081 197.932C514.158 198.355 513.088 199.563 512.626 202.944C512.545 203.568 511.358 203.607 511.277 202.985C510.815 199.603 509.443 198.476 505.984 198.013C505.822 197.988 505.675 197.905 505.571 197.779C505.467 197.654 505.412 197.494 505.417 197.331C505.422 197.168 505.486 197.012 505.598 196.893C505.71 196.774 505.861 196.7 506.024 196.685C509.526 196.302 510.654 195.396 511.076 191.169C511.102 191.017 511.181 190.879 511.299 190.779C511.417 190.679 511.566 190.625 511.721 190.625C511.875 190.625 512.025 190.679 512.142 190.779C512.26 190.879 512.339 191.017 512.365 191.169Z" fill="#6B4CE5"/>
<path d="M532.644 197.356C533.296 203.784 535.128 205.244 541.371 205.834C542.395 205.896 542.489 207.668 541.463 207.79C535.408 208.442 533.762 210.306 533.048 215.523C532.924 216.485 531.092 216.547 530.967 215.585C530.254 210.368 528.141 208.629 522.8 207.914C522.55 207.877 522.323 207.749 522.161 207.555C522 207.361 521.915 207.114 521.922 206.862C521.93 206.61 522.03 206.369 522.203 206.185C522.376 206.001 522.611 205.887 522.862 205.865C528.265 205.275 530.004 203.878 530.657 197.356C530.698 197.122 530.82 196.91 531.002 196.758C531.184 196.605 531.413 196.521 531.651 196.521C531.888 196.521 532.118 196.605 532.299 196.757C532.481 196.91 532.603 197.122 532.644 197.356Z" fill="#6B4CE5"/>
<path d="M665.592 103.748C666.39 111.614 668.633 113.4 676.27 114.122C677.524 114.198 677.638 116.363 676.385 116.516C668.974 117.314 666.959 119.594 666.086 125.978C665.933 127.157 663.691 127.233 663.539 126.055C662.665 119.671 660.081 117.542 653.545 116.668C653.239 116.622 652.961 116.465 652.764 116.228C652.566 115.991 652.462 115.689 652.471 115.381C652.48 115.072 652.602 114.777 652.814 114.552C653.026 114.328 653.313 114.188 653.621 114.16C660.232 113.438 662.361 111.728 663.158 103.748C663.388 102.341 665.44 102.417 665.592 103.748Z" fill="#6B4CE5"/>
<path d="M512.951 216.483C512.951 216.483 518.943 216.143 518.607 217.387C518.27 218.631 512.951 218.518 512.951 218.518C512.951 218.518 513.629 224.366 512.047 224.366C510.464 224.366 510.665 218.185 510.665 218.185C510.665 218.185 506.283 219.422 506.393 218.405C506.504 217.387 510.577 216.37 510.577 216.37C510.577 216.37 509.412 210.986 511.673 210.76C513.934 210.534 512.951 216.483 512.951 216.483Z" fill="#8F5EF0"/>
<path d="M693.232 333.196H0.621094V248.882C237.277 203.033 473.645 204.908 693.232 248.882V333.196Z" fill="#9334B8"/>
<mask id="mask1_16_22408" style="mask-type:luminance" maskUnits="userSpaceOnUse" x="0" y="215" width="694" height="119">
<path d="M693.232 333.196H0.62207V248.882C237.278 203.033 473.646 204.908 693.232 248.882V333.196Z" fill="white"/>
</mask>
<g mask="url(#mask1_16_22408)">
<path d="M320.253 141.851C320.253 141.851 355.354 148.181 355.823 160.947C356.485 178.992 311.046 179.254 323.526 187.258C334.997 194.612 381.249 194.791 394.766 207.647C410.6 222.709 352.848 239.215 369.024 249.873C390.943 264.315 431.045 259.945 449.853 283.194C469.753 307.79 438.746 338.569 438.746 338.569L230.773 339.31C230.773 339.31 293.753 304.934 293.416 290.754C293.035 274.816 258.48 261.144 261.113 249.197C265.258 230.407 329.28 229.305 327.921 211.642C327.157 201.695 281.121 199.393 282.256 186.438C283.801 168.809 330.608 167.368 334.872 159.313C339.242 151.058 320.253 141.851 320.253 141.851Z" fill="#7524A0"/>
</g>
<path opacity="0.57" d="M384.701 270.173C418.07 270.173 445.121 266.308 445.121 261.541C445.121 256.774 418.07 252.91 384.701 252.91C351.331 252.91 324.28 256.774 324.28 261.541C324.28 266.308 351.331 270.173 384.701 270.173Z" fill="#472487"/>
<path opacity="0.57" d="M511.872 266.691C534.008 266.691 551.953 264.128 551.953 260.966C551.953 257.803 534.008 255.24 511.872 255.24C489.736 255.24 471.791 257.803 471.791 260.966C471.791 264.128 489.736 266.691 511.872 266.691Z" fill="#472487"/>
<path opacity="0.57" d="M261.559 268.418C283.695 268.418 301.64 265.855 301.64 262.692C301.64 259.53 283.695 256.967 261.559 256.967C239.422 256.967 221.477 259.53 221.477 262.692C221.477 265.855 239.422 268.418 261.559 268.418Z" fill="#472487"/>
<path opacity="0.57" d="M166.611 271.295C188.747 271.295 206.692 268.732 206.692 265.569C206.692 262.407 188.747 259.844 166.611 259.844C144.474 259.844 126.529 262.407 126.529 265.569C126.529 268.732 144.474 271.295 166.611 271.295Z" fill="#472487"/>
<path opacity="0.57" d="M591.857 268.418C613.994 268.418 631.939 265.855 631.939 262.692C631.939 259.53 613.994 256.967 591.857 256.967C569.721 256.967 551.776 259.53 551.776 262.692C551.776 265.855 569.721 268.418 591.857 268.418Z" fill="#472487"/>
<path d="M339.242 164.293C342.263 164.725 317.807 -19.4148 307.881 -22.0041C297.954 -24.5934 336.221 163.861 339.242 164.293Z" fill="#FFE158"/>
<path d="M430.737 140.125C432.463 142.427 609.266 -3.44593 599.339 -6.03572C589.412 -8.62552 428.905 137.684 430.737 140.125Z" fill="#E078FF"/>
<path d="M449.725 96.3917C451.451 98.6936 532.731 29.3537 522.805 26.7644C512.879 24.1751 447.894 93.9502 449.725 96.3917Z" fill="#B057FF"/>
<path d="M574.573 155.458C574.68 158.333 680.983 147.652 674.301 139.867C667.618 132.083 574.459 152.408 574.573 155.458Z" fill="#B057FF"/>
<path d="M565.388 84.8831C567.114 87.185 686.586 26.5066 682.777 16.982C678.173 5.47288 563.557 82.4416 565.388 84.8831Z" fill="#FFD078"/>
<path d="M471.015 155.661C472.742 157.963 589.268 123.005 586.678 113.079C583.225 99.8446 469.184 153.22 471.015 155.661Z" fill="#2EA8FF"/>
<path d="M621.205 100.995C622.931 103.297 687.092 89.0548 684.503 79.1287C681.05 65.8934 619.374 98.5539 621.205 100.995Z" fill="#2EA8FF"/>
<path d="M288.172 118.977C291.067 118.012 218.476 6.48983 208.762 9.7914C201.138 12.3781 285.151 119.985 288.172 118.977Z" fill="#E078FF"/>
<path d="M217.825 141.851C219.761 140.744 136.421 84.0709 93.5308 60.7149C77.7495 52.1211 73.3235 54.6747 72.2398 56.6868C70.7622 59.434 72.2398 63.592 95.2575 76.2516C137.876 99.6917 212.727 144.764 217.825 141.851Z" fill="#FFE158"/>
<path d="M268.286 58.2918C271.255 58.9995 233.854 -19.434 224.208 -22.9226C214.562 -26.4111 265.317 57.5841 268.286 58.2918Z" fill="#B057FF"/>
<path d="M292.283 100.381C295.252 101.089 288.892 76.086 279.246 72.5949C269.599 69.1038 289.315 99.6733 292.283 100.381Z" fill="#B057FF"/>
<path d="M157.502 163.29C160.083 161.663 77.8581 133.565 68.6178 138.019C59.3775 142.473 154.921 164.918 157.502 163.29Z" fill="#2EA8FF"/>
<path d="M204.373 175.561C206.954 173.933 184.632 160.999 175.391 165.455C166.151 169.911 201.792 177.187 204.373 175.561Z" fill="#2EA8FF"/>
<path d="M420.349 240.901C415.445 245.375 578.012 337.599 586.183 331.396C594.354 325.194 422.604 238.844 420.349 240.901Z" fill="#FFE158"/>
<path d="M292.959 244.875C291.443 242.43 102.405 372.052 112.061 375.511C121.717 378.971 294.566 247.47 292.959 244.875Z" fill="#E078FF"/>
<path d="M268.805 281.902C267.146 279.552 183.911 346.533 193.759 349.406C203.607 352.279 270.566 284.395 268.805 281.902Z" fill="#2EA8FF"/>
<path d="M155.236 298.207C153.741 295.748 28.938 344.531 31.8045 354.381C35.2681 366.283 156.821 300.815 155.236 298.207Z" fill="#FFD078"/>
<path d="M229.064 237.578C227.572 235.118 108.173 258.441 109.773 268.574C111.907 282.085 230.646 240.188 229.064 237.578Z" fill="#B057FF"/>
<path d="M83.1556 275.767C81.6638 273.306 16.411 281.168 18.0134 291.299C20.1462 304.81 84.735 278.376 83.1556 275.767Z" fill="#B057FF"/>
<path d="M422.218 266.792C419.665 268.464 518.326 357.754 526.876 352.082C533.587 347.634 424.882 265.047 422.218 266.792Z" fill="#E078FF"/>
<path d="M483.074 244.088C481.308 246.577 640.229 302.684 646.068 291.128C650.695 281.972 486.166 239.73 483.074 244.088Z" fill="#BD6AF7"/>
<path d="M408.081 285.449C405.043 285.161 452.981 357.635 463.019 359.751C473.057 361.868 411.121 285.737 408.081 285.449Z" fill="#B057FF"/>
<path d="M378.467 247.103C375.429 246.815 385.202 270.693 395.24 272.808C405.277 274.923 381.505 247.391 378.467 247.103Z" fill="#B057FF"/>
<path d="M256.737 243.953C220.46 251.143 217.77 204.39 217.77 204.39C217.77 204.39 204.979 188.363 204.982 185.161C204.996 179.188 228.733 186.546 228.733 186.546C228.733 186.546 219.559 172.856 221.396 170.124C226.81 162.298 244.65 180.875 244.65 180.875C244.65 180.875 254.795 156.802 264.577 160.843C267.43 162.047 262.539 178.328 262.539 178.328C262.539 178.328 276.258 164.044 278.423 168.078C280.488 172.048 276.456 190.739 276.456 190.739C276.456 190.739 295.013 236.418 256.737 243.953Z" fill="#F728E2"/>
<path d="M272.811 227.345C269.937 232.894 264.168 237.459 256.722 239.06C248.366 240.856 242.201 239.549 237.472 236.065C231.418 231.656 228.524 224.231 229.134 217.003C229.622 211.622 260.09 201.178 270.028 206.743C276.235 210.253 276.914 219.454 272.811 227.345Z" fill="#6C0490"/>
<mask id="mask2_16_22408" style="mask-type:luminance" maskUnits="userSpaceOnUse" x="229" y="205" width="47" height="35">
<path d="M272.811 227.345C269.937 232.894 264.168 237.459 256.722 239.06C248.366 240.856 242.201 239.549 237.472 236.065C231.418 231.656 228.524 224.231 229.134 217.003C229.622 211.622 260.09 201.178 270.028 206.743C276.235 210.253 276.914 219.454 272.811 227.345Z" fill="white"/>
</mask>
<g mask="url(#mask2_16_22408)">
<path d="M272.81 227.345C277.168 237.102 265.721 245.322 258.358 246.905C250.003 248.701 235.775 245.518 237.471 236.066C239.402 232.969 243.666 228.244 252.909 225.738C259.522 223.879 266.582 224.449 272.81 227.345Z" fill="#9B20AF"/>
</g>
<path d="M240.763 207.496C242.578 207.105 244.238 206.185 245.53 204.852C246.823 203.518 247.692 201.831 248.026 200.005C248.36 198.178 248.145 196.293 247.408 194.588C246.671 192.883 245.445 191.435 243.885 190.427C242.325 189.419 240.501 188.897 238.644 188.925C236.787 188.954 234.98 189.533 233.452 190.588C231.924 191.644 230.743 193.128 230.059 194.855C229.374 196.582 229.217 198.472 229.608 200.288C230.131 202.723 231.601 204.85 233.693 206.202C235.785 207.553 238.328 208.019 240.763 207.496Z" fill="#9B20AF"/>
<path d="M256.729 204.064C258.545 203.674 260.204 202.754 261.497 201.42C262.79 200.087 263.659 198.4 263.993 196.573C264.327 194.746 264.112 192.861 263.375 191.156C262.638 189.452 261.412 188.004 259.852 186.996C258.292 185.988 256.468 185.465 254.611 185.494C252.754 185.523 250.947 186.101 249.419 187.157C247.89 188.212 246.71 189.697 246.025 191.424C245.341 193.15 245.184 195.041 245.574 196.857C246.098 199.292 247.568 201.419 249.66 202.77C251.751 204.122 254.294 204.587 256.729 204.064Z" fill="#9B20AF"/>
<path d="M245.294 201.592C245.166 201.626 245.031 201.627 244.903 201.594C244.774 201.561 244.657 201.495 244.561 201.403C239.158 197.2 232.325 196.418 232.325 196.418C232.101 196.386 231.898 196.266 231.762 196.084C231.625 195.903 231.567 195.675 231.599 195.45C231.631 195.225 231.751 195.022 231.932 194.886C232.114 194.75 232.342 194.691 232.567 194.723C232.832 194.752 239.931 195.562 245.737 200.025C245.828 200.09 245.904 200.172 245.962 200.267C246.02 200.362 246.057 200.468 246.073 200.578C246.088 200.688 246.081 200.8 246.052 200.907C246.023 201.014 245.972 201.114 245.903 201.201C245.739 201.385 245.529 201.52 245.294 201.592Z" fill="#0A2759"/>
<path d="M249.927 200.593C249.748 200.628 249.563 200.608 249.395 200.535C249.297 200.484 249.21 200.413 249.14 200.328C249.069 200.242 249.017 200.143 248.986 200.036C248.955 199.93 248.946 199.818 248.959 199.708C248.972 199.598 249.008 199.492 249.063 199.396C252.44 192.959 258.577 189.303 258.891 189.149C259.083 189.027 259.315 188.987 259.537 189.037C259.758 189.086 259.951 189.222 260.073 189.414C260.194 189.606 260.235 189.838 260.185 190.06C260.135 190.282 260 190.474 259.808 190.596C259.725 190.614 253.818 194.133 250.702 200.168C250.481 200.369 250.215 200.515 249.927 200.593Z" fill="#0A2759"/>
<path d="M467.664 186.037L538.261 233.953C538.863 234.384 539.596 234.594 540.335 234.547C541.075 234.501 541.776 234.2 542.319 233.697C542.863 233.193 543.216 232.518 543.319 231.784C543.422 231.05 543.269 230.303 542.885 229.67C537.354 219.981 527.556 205.968 512.598 195.788C497.64 185.608 480.932 181.686 469.915 180.146C466.526 179.705 464.825 184.155 467.664 186.037Z" fill="#FFDE22"/>
<path d="M538.429 233.735L467.831 185.817C467.228 185.387 466.495 185.177 465.756 185.224C465.017 185.272 464.316 185.572 463.773 186.076C463.23 186.579 462.877 187.255 462.774 187.988C462.671 188.722 462.824 189.468 463.208 190.102C468.676 199.764 478.536 213.804 493.494 223.984C508.452 234.164 525.098 238.061 536.178 239.629C539.539 240.128 541.241 235.677 538.429 233.735Z" fill="#FFDE22"/>
<path d="M536.573 233.298C536.711 233.334 536.857 233.33 536.993 233.284C537.128 233.239 537.248 233.155 537.337 233.043C537.39 232.97 537.427 232.887 537.447 232.799C537.467 232.711 537.469 232.62 537.452 232.531C537.437 232.442 537.402 232.357 537.351 232.282C537.301 232.207 537.237 232.142 537.162 232.092L470.971 187.173C470.898 187.12 470.814 187.082 470.726 187.062C470.638 187.043 470.547 187.041 470.458 187.057C470.368 187.073 470.284 187.108 470.209 187.159C470.122 187.22 470.051 187.302 470.003 187.396C469.954 187.491 469.93 187.595 469.931 187.702C469.932 187.808 469.959 187.912 470.009 188.006C470.059 188.099 470.132 188.179 470.22 188.238L536.45 233.247L536.573 233.298Z" fill="#0A2759"/>
<path d="M514.401 210.222C512.843 209.55 511.519 208.43 510.597 207.005C509.675 205.58 509.196 203.914 509.221 202.217C509.246 200.52 509.773 198.868 510.737 197.471C511.7 196.074 513.056 194.994 514.634 194.367C516.211 193.741 517.939 193.596 519.599 193.952C521.258 194.307 522.775 195.147 523.958 196.364C525.14 197.582 525.935 199.123 526.242 200.792C526.548 202.461 526.353 204.184 525.681 205.743C524.779 207.832 523.084 209.478 520.969 210.318C518.853 211.158 516.491 211.124 514.401 210.222Z" fill="white"/>
<path d="M502.089 201.696C500.531 201.024 499.207 199.904 498.285 198.479C497.363 197.054 496.884 195.388 496.909 193.691C496.934 191.994 497.462 190.342 498.425 188.945C499.389 187.548 500.745 186.468 502.322 185.841C503.9 185.215 505.628 185.07 507.287 185.426C508.947 185.782 510.464 186.621 511.646 187.839C512.828 189.057 513.623 190.597 513.93 192.267C514.236 193.936 514.041 195.659 513.369 197.217C512.467 199.307 510.772 200.953 508.656 201.793C506.541 202.633 504.179 202.598 502.089 201.696Z" fill="white"/>
<path d="M518.383 208.081C517.531 207.713 516.807 207.101 516.303 206.322C515.799 205.543 515.537 204.632 515.551 203.704C515.565 202.776 515.853 201.873 516.38 201.109C516.907 200.345 517.649 199.754 518.511 199.412C519.374 199.069 520.319 198.99 521.226 199.185C522.134 199.379 522.963 199.838 523.609 200.504C524.256 201.17 524.691 202.012 524.858 202.925C525.026 203.838 524.919 204.78 524.552 205.632C524.307 206.198 523.954 206.71 523.512 207.139C523.07 207.569 522.547 207.907 521.975 208.134C521.402 208.362 520.79 208.474 520.174 208.465C519.557 208.456 518.949 208.325 518.383 208.081Z" fill="#0A2759"/>
<path d="M501.945 195.79C501.093 195.423 500.369 194.81 499.865 194.031C499.36 193.252 499.099 192.341 499.112 191.413C499.126 190.484 499.415 189.581 499.942 188.817C500.469 188.053 501.21 187.463 502.073 187.12C502.935 186.778 503.88 186.698 504.788 186.893C505.695 187.087 506.525 187.546 507.172 188.212C507.818 188.878 508.253 189.721 508.421 190.634C508.588 191.546 508.482 192.489 508.114 193.341C507.87 193.907 507.517 194.419 507.074 194.848C506.632 195.278 506.11 195.616 505.537 195.843C504.964 196.071 504.352 196.183 503.736 196.174C503.119 196.165 502.511 196.035 501.945 195.79Z" fill="#0A2759"/>
<path d="M598.865 184.523C598.865 184.523 609.102 179.093 611.622 185.979C614.073 192.673 600.849 193.448 600.849 193.448C595.494 195.129 588.319 194.463 584.147 192.285C584.147 192.285 571.722 190.671 575.478 183.633C580.024 174.818 588.683 185.95 588.683 185.95C588.683 185.95 588.452 170.49 598.628 171.041C609.876 172.129 598.865 184.523 598.865 184.523Z" fill="#00EAFF"/>
<path d="M563.374 209.19C563.374 209.19 559.934 200.023 565.903 195.662C574.514 189.366 583.224 197.205 583.224 197.205C588.839 195.951 594.517 196.064 600.318 198.842C600.318 198.842 615.858 191.2 622.69 199.25C629.521 207.3 621.062 214.097 621.062 214.097C621.062 214.097 631.456 221.863 626.328 232.072C622.274 240.2 607.385 238.889 607.385 238.889C605.223 241.421 602.479 243.393 599.39 244.636C596.3 245.879 592.956 246.356 589.642 246.026C586.171 245.594 582.841 244.393 579.893 242.511C576.944 240.629 574.453 238.113 572.6 235.146C572.6 235.146 558.44 237.066 554.644 225.205C550.847 213.345 563.374 209.19 563.374 209.19Z" fill="#00EAFF"/>
<path d="M600.848 193.448L584.146 192.285L583.235 197.22L600.329 198.857L600.848 193.448Z" fill="#F728E3"/>
<path d="M586.341 216.921C587.717 216.691 588.993 216.058 590.009 215.102C591.025 214.146 591.735 212.91 592.049 211.551C592.363 210.192 592.266 208.77 591.772 207.465C591.277 206.161 590.407 205.032 589.271 204.222C588.135 203.412 586.785 202.958 585.39 202.915C583.996 202.873 582.62 203.245 581.437 203.985C580.254 204.725 579.317 205.798 578.745 207.071C578.172 208.343 577.99 209.756 578.221 211.132C578.374 212.045 578.705 212.919 579.196 213.705C579.687 214.49 580.328 215.171 581.082 215.708C581.836 216.246 582.688 216.63 583.59 216.838C584.493 217.046 585.427 217.074 586.341 216.921Z" fill="white"/>
<path d="M598.464 214.94C599.84 214.71 601.116 214.077 602.132 213.121C603.148 212.164 603.858 210.929 604.171 209.569C604.485 208.21 604.388 206.788 603.893 205.484C603.399 204.179 602.528 203.051 601.392 202.241C600.256 201.431 598.906 200.977 597.511 200.935C596.117 200.893 594.741 201.265 593.559 202.005C592.376 202.744 591.439 203.818 590.867 205.091C590.294 206.363 590.112 207.776 590.343 209.152C590.652 210.997 591.682 212.643 593.205 213.728C594.728 214.814 596.619 215.25 598.464 214.94Z" fill="white"/>
<path d="M584.327 214.241C585.112 214.11 585.84 213.748 586.419 213.203C586.998 212.658 587.403 211.953 587.581 211.178C587.76 210.403 587.705 209.592 587.422 208.848C587.14 208.104 586.644 207.461 585.996 206.999C585.348 206.538 584.578 206.279 583.783 206.255C582.988 206.231 582.203 206.443 581.529 206.865C580.854 207.287 580.32 207.899 579.994 208.625C579.668 209.35 579.564 210.156 579.695 210.941C579.783 211.462 579.972 211.96 580.252 212.408C580.532 212.856 580.898 213.244 581.328 213.55C581.758 213.857 582.244 214.076 582.759 214.194C583.273 214.313 583.806 214.329 584.327 214.241Z" fill="#0A2759"/>
<path d="M599.365 211.327C600.15 211.195 600.878 210.834 601.457 210.289C602.037 209.744 602.441 209.039 602.62 208.264C602.799 207.488 602.744 206.678 602.462 205.934C602.18 205.19 601.683 204.546 601.035 204.085C600.387 203.623 599.617 203.364 598.822 203.34C598.027 203.316 597.242 203.528 596.568 203.95C595.894 204.372 595.359 204.984 595.033 205.71C594.707 206.436 594.603 207.242 594.735 208.026C594.911 209.078 595.498 210.016 596.366 210.635C597.235 211.254 598.314 211.503 599.365 211.327Z" fill="#0A2759"/>
<path d="M590.801 221.951L590.694 221.926C581.994 219.944 578.918 216.588 578.782 216.443C578.698 216.327 578.659 216.186 578.672 216.044C578.683 215.901 578.744 215.768 578.844 215.667C578.897 215.615 578.959 215.574 579.027 215.546C579.095 215.518 579.168 215.505 579.241 215.506C579.315 215.507 579.387 215.522 579.455 215.552C579.522 215.581 579.583 215.624 579.634 215.677C579.675 215.743 582.615 218.955 590.939 220.851C599.263 222.747 602.801 221.35 602.813 221.296C602.88 221.263 602.953 221.244 603.027 221.239C603.102 221.234 603.177 221.244 603.247 221.267C603.318 221.292 603.383 221.329 603.439 221.378C603.495 221.428 603.541 221.488 603.573 221.555C603.607 221.621 603.626 221.694 603.63 221.768C603.64 221.919 603.59 222.067 603.491 222.18C603.442 222.236 603.382 222.282 603.316 222.315C603.184 222.398 599.717 223.981 590.801 221.951Z" fill="#0A2759"/>
<path d="M594.474 220.371C594.146 223.792 592.537 224.623 590.374 224.416C588.21 224.209 586.788 223.087 587.116 219.666C587.444 216.245 591.567 211.956 591.567 211.956C591.567 211.956 594.825 216.706 594.474 220.371Z" fill="#F728E3"/>
<path d="M123.355 211.385C123.355 201.056 127.272 189.186 133.604 183.687C139.935 177.531 148.682 177.744 158.345 176.401C168.008 175.057 176.754 183.103 183.086 189.608C189.418 196.771 193.334 202.392 193.334 211.385C193.334 221.713 189.418 233.583 183.086 239.082C176.754 245.238 168.008 245.024 158.345 246.368C148.682 247.712 139.935 239.667 133.604 233.162C127.271 225.997 123.355 220.377 123.355 211.385Z" fill="#FFC400"/>
<path d="M137.75 208.972C137.75 215.218 140.118 222.395 143.947 225.72C147.775 229.443 153.064 229.314 158.908 230.126C164.752 230.938 170.039 226.073 173.868 222.14C177.697 217.809 180.065 214.409 180.065 208.973C180.065 202.727 177.697 195.55 173.869 192.224C170.039 188.502 164.749 188.632 158.908 187.82C153.067 187.008 147.775 191.872 143.947 195.805C140.117 200.135 137.75 203.534 137.75 208.972Z" fill="#FF960D"/>
<path d="M153.364 215.075C154.288 213.68 155.41 213.335 157.19 212.829C158.882 212.454 161.231 211.92 162.582 213.205C163.933 214.489 165.461 215.197 165.823 216.829C166.271 218.331 165.554 220.756 164.451 222.421C163.527 223.816 162.405 224.162 160.625 224.668C158.935 225.044 156.585 225.576 155.233 224.292C153.88 223.008 152.355 222.302 151.993 220.669C151.544 219.169 152.259 216.741 153.364 215.075Z" fill="#0A2759"/>
<path d="M129.374 179.159C129.159 179.158 128.948 179.098 128.765 178.985C128.582 178.873 128.433 178.712 128.335 178.52C128.237 178.329 128.194 178.114 128.21 177.9C128.226 177.685 128.3 177.48 128.426 177.305L135.322 167.721C135.459 167.53 135.651 167.385 135.872 167.305C136.093 167.224 136.334 167.213 136.562 167.272L142.072 168.686L152.876 164.05C153.15 163.931 153.459 163.923 153.739 164.026L166.833 168.815C167.109 168.933 167.329 169.152 167.449 169.428C167.568 169.703 167.577 170.014 167.474 170.296C167.37 170.577 167.163 170.809 166.895 170.942C166.626 171.076 166.316 171.101 166.029 171.013L153.373 166.384L142.627 170.99C142.39 171.092 142.125 171.112 141.874 171.049L136.754 169.734L130.324 178.668C130.216 178.819 130.074 178.941 129.909 179.026C129.744 179.11 129.561 179.155 129.376 179.155L129.374 179.159Z" fill="#FF9500"/>
<path d="M175.877 254.997C175.846 254.998 175.814 254.997 175.783 254.994L161.887 253.873C161.729 253.868 161.573 253.83 161.429 253.763C161.286 253.696 161.157 253.6 161.052 253.482C160.946 253.363 160.866 253.225 160.816 253.075C160.765 252.924 160.746 252.765 160.758 252.607C160.771 252.449 160.816 252.296 160.89 252.155C160.964 252.015 161.065 251.891 161.188 251.791C161.312 251.692 161.454 251.618 161.606 251.574C161.759 251.531 161.918 251.519 162.076 251.539L175.508 252.624L184.628 245.313C184.829 245.152 185.079 245.063 185.337 245.059L190.623 244.957L194.433 234.63C194.553 234.356 194.773 234.138 195.048 234.021C195.323 233.904 195.632 233.896 195.913 234C196.193 234.103 196.424 234.31 196.557 234.578C196.69 234.845 196.715 235.154 196.628 235.44L192.542 246.517C192.46 246.738 192.314 246.929 192.123 247.065C191.931 247.201 191.703 247.277 191.468 247.281L185.781 247.389L176.61 254.741C176.402 254.907 176.144 254.998 175.877 254.997Z" fill="#FF9500"/>
<path d="M145.824 212.852C147.739 212.875 149.618 212.328 151.222 211.281C152.826 210.234 154.083 208.733 154.832 206.97C155.581 205.207 155.789 203.261 155.43 201.38C155.071 199.498 154.16 197.766 152.814 196.403C151.467 195.04 149.746 194.109 147.869 193.726C145.992 193.344 144.044 193.528 142.272 194.256C140.5 194.984 138.984 196.222 137.917 197.813C136.851 199.404 136.281 201.276 136.281 203.192C136.266 205.738 137.262 208.186 139.052 209.998C140.841 211.809 143.277 212.836 145.824 212.852Z" fill="white"/>
<path d="M175.739 210.156C177.638 210.156 179.494 209.593 181.073 208.538C182.652 207.483 183.882 205.983 184.609 204.229C185.336 202.474 185.526 200.544 185.155 198.681C184.785 196.819 183.87 195.108 182.527 193.766C181.185 192.423 179.474 191.508 177.611 191.138C175.749 190.768 173.819 190.958 172.064 191.685C170.31 192.411 168.81 193.642 167.756 195.221C166.701 196.8 166.138 198.656 166.138 200.555C166.138 201.816 166.386 203.064 166.869 204.229C167.351 205.394 168.058 206.452 168.95 207.344C169.841 208.235 170.9 208.943 172.065 209.425C173.229 209.907 174.478 210.156 175.739 210.156Z" fill="white"/>
<path d="M148.007 207.44C149.038 207.44 150.045 207.135 150.902 206.562C151.758 205.99 152.426 205.176 152.821 204.224C153.215 203.272 153.318 202.224 153.117 201.213C152.916 200.203 152.42 199.274 151.691 198.546C150.963 197.817 150.034 197.321 149.023 197.12C148.013 196.919 146.965 197.022 146.013 197.416C145.061 197.811 144.247 198.479 143.675 199.335C143.102 200.192 142.797 201.199 142.797 202.23C142.797 203.612 143.346 204.937 144.323 205.914C145.3 206.891 146.625 207.44 148.007 207.44Z" fill="#0A2759"/>
<path d="M175.288 205.82C176.333 205.832 177.357 205.533 178.231 204.961C179.106 204.389 179.79 203.57 180.198 202.608C180.605 201.646 180.718 200.585 180.521 199.559C180.324 198.533 179.827 197.588 179.092 196.846C178.358 196.103 177.419 195.595 176.395 195.388C175.371 195.18 174.309 195.281 173.342 195.678C172.376 196.075 171.55 196.751 170.968 197.619C170.387 198.487 170.077 199.508 170.077 200.553C170.07 201.942 170.614 203.278 171.592 204.266C172.569 205.254 173.899 205.813 175.288 205.82Z" fill="#0A2759"/>
<path fill-rule="evenodd" clip-rule="evenodd" d="M431.463 98.6041L397.377 146.893C396.685 147.889 396.415 149.118 396.626 150.312C396.837 151.506 397.513 152.569 398.504 153.266C399.496 153.964 400.724 154.241 401.919 154.036C403.115 153.832 404.181 153.162 404.884 152.174L438.969 103.885C439.319 103.393 439.568 102.837 439.702 102.249C439.835 101.66 439.851 101.051 439.747 100.456C439.644 99.8614 439.424 99.2932 439.099 98.7843C438.774 98.2754 438.352 97.836 437.857 97.4914C436.855 96.8091 435.628 96.5436 434.434 96.7514C433.241 96.9591 432.175 97.6237 431.463 98.6041Z" fill="white"/>
<path fill-rule="evenodd" clip-rule="evenodd" d="M444.763 86.4825C445.067 87.2522 445.142 88.0938 444.976 88.9047C444.939 89.1197 444.767 89.3286 444.348 89.5803C443.749 89.9345 443.084 90.1619 442.393 90.2483C441.686 90.386 440.963 90.4164 440.248 90.3385C439.434 90.2443 438.609 90.3699 437.859 90.7022C437.11 91.0345 436.463 91.5614 435.986 92.2282L431.463 98.6041C430.77 99.5998 430.5 100.829 430.711 102.023C430.922 103.217 431.598 104.28 432.59 104.977C433.582 105.675 434.809 105.952 436.005 105.747C437.2 105.543 438.266 104.873 438.969 103.885L442.046 99.4743C444.58 99.3345 447.041 98.5838 449.222 97.2865C451.255 96.0501 452.798 94.1493 453.591 91.9057C454.466 89.3989 454.376 86.6578 453.531 83.8556C453.363 83.2741 453.082 82.7317 452.703 82.2597C452.324 81.7877 451.856 81.3954 451.325 81.1057C450.793 80.8159 450.21 80.6343 449.608 80.5715C449.006 80.5087 448.398 80.5658 447.818 80.7396C447.239 80.9134 446.699 81.2004 446.231 81.5841C445.763 81.9677 445.376 82.4403 445.092 82.9746C444.808 83.5089 444.632 84.0942 444.576 84.6967C444.52 85.2991 444.583 85.9068 444.763 86.4846V86.4825Z" fill="#FBBF96"/>
<path d="M433.177 156.644C434.071 156.79 434.986 156.589 435.736 156.081C436.48 155.557 436.988 154.76 437.149 153.865L454.982 47.6128C455.107 46.8649 453.663 46.0186 451.823 45.693C449.924 45.3873 448.32 45.7496 448.194 46.4975L430.361 152.749C430.28 153.193 430.285 153.648 430.375 154.089C430.474 154.529 430.661 154.944 430.925 155.309C431.198 155.671 431.524 155.99 431.893 156.256C432.311 156.419 432.741 156.549 433.18 156.644H433.177Z" fill="#FC896D"/>
<path d="M444.747 49.1169C444.938 48.8158 445.19 48.5575 445.485 48.3582C445.781 48.1588 446.115 48.0227 446.466 47.9583C446.817 47.8942 447.178 47.9027 447.525 47.9832L455.366 49.7792C456.031 49.9114 456.619 50.2983 457.004 50.8574C457.388 51.4165 457.539 52.1036 457.425 52.7725L456.372 59.5999C456.32 59.9528 456.197 60.2916 456.011 60.5961C455.824 60.9005 455.579 61.1642 455.288 61.3715C454.998 61.5788 454.669 61.7253 454.32 61.8025C453.972 61.8796 453.612 61.8856 453.261 61.8203L445.179 60.3356C444.834 60.272 444.505 60.1411 444.211 59.9503C443.917 59.7595 443.663 59.5126 443.464 59.2237C443.266 58.9347 443.126 58.6094 443.053 58.2664C442.98 57.9234 442.975 57.5694 443.039 57.2246L444.374 50.1063C444.429 49.7544 444.556 49.4176 444.747 49.1169Z" fill="#FFC96B"/>
<path d="M451.422 54.8778C459.775 55.4856 466.954 50.383 467.454 43.4838C467.955 36.5847 461.593 30.4961 453.241 29.8898C444.89 29.2835 437.712 34.3826 437.209 41.2838C436.706 48.185 443.07 54.2694 451.422 54.8778Z" fill="#FFC96B"/>
<path d="M461.339 34.8972C461.339 34.8972 464.971 33.0813 464.152 24.3841C463.334 15.687 462.487 12.4379 470.056 12.5296C477.625 12.6213 487.761 27.4524 481.358 34.9899C481.358 34.9899 476.811 20.1517 471.326 22.8174L466.638 40.9602L461.339 34.8972Z" fill="#FFC96B"/>
<path d="M452.148 46.6111C456.53 46.5571 460.054 43.9021 460.014 40.679C459.974 37.4559 456.386 34.886 452.004 34.94C447.621 34.994 444.099 37.65 444.139 40.8726C444.178 44.0952 447.764 46.6651 452.148 46.6111Z" fill="white"/>
<path d="M437.785 92.6129C436.071 91.7309 435.867 88.7274 437.311 85.8594C438.754 82.9915 441.322 81.3371 443.017 82.162C444.73 83.0434 444.935 86.0469 443.491 88.9149C442.007 91.8598 439.499 93.4943 437.785 92.6129Z" fill="#FBBF96"/>
<path d="M448.278 94.6269C446.168 94.2667 445.024 91.1389 445.6 87.6101C446.233 84.0614 448.369 81.5307 450.479 81.8915C452.589 82.2522 453.732 85.38 453.157 88.9088C452.524 92.4565 450.33 95.0075 448.278 94.6269Z" fill="#FBBF96"/>
<path d="M406.579 175.106L411.305 121.239L371.226 145.445L342.71 135.367L347.02 184.431L406.579 175.106Z" fill="white"/>
<path fill-rule="evenodd" clip-rule="evenodd" d="M349.82 144.764C350.381 147.272 348.198 147.801 345.691 148.362C338.114 150.076 332.727 153.27 327.663 156.128C322.732 158.847 318.486 163.227 314.129 170.566L311.951 174.234L308.232 172.355C308.188 172.341 308.141 172.338 308.096 172.344C308.05 172.35 308.006 172.367 307.968 172.391C307.845 172.464 307.735 172.556 307.642 172.664C307.413 172.948 307.26 173.287 307.2 173.647C307.069 174.236 306.823 174.794 306.476 175.288C306.129 175.782 305.689 176.203 305.18 176.527C304.67 176.851 304.102 177.071 303.508 177.176C302.913 177.28 302.304 177.266 301.715 177.135C301.125 177.004 300.568 176.758 300.074 176.411C299.579 176.065 299.158 175.624 298.834 175.115C298.511 174.605 298.29 174.037 298.186 173.443C298.082 172.848 298.095 172.239 298.226 171.65C299.449 166.157 303.674 163.261 307.841 163.128C312.502 156.108 317.532 151.492 323.347 148.241C329.698 144.709 336.76 142.924 344.282 141.239C344.877 141.106 345.493 141.091 346.094 141.196C346.695 141.301 347.269 141.524 347.783 141.851C348.298 142.179 348.743 142.605 349.092 143.105C349.442 143.605 349.689 144.169 349.82 144.764Z" fill="#FBBF96"/>
<path fill-rule="evenodd" clip-rule="evenodd" d="M344.284 141.24C331.745 144.049 320.969 146.96 311.699 157.966C311.313 158.428 311.021 158.962 310.842 159.537C310.662 160.112 310.598 160.717 310.652 161.317C310.706 161.917 310.877 162.5 311.157 163.034C311.436 163.567 311.818 164.041 312.281 164.427C312.743 164.813 313.277 165.104 313.852 165.283C314.427 165.463 315.032 165.528 315.632 165.474C316.232 165.42 316.815 165.248 317.349 164.968C317.882 164.689 318.355 164.307 318.741 163.845C325.839 155.344 333.944 152.941 346.294 150.166C346.88 150.034 347.434 149.787 347.925 149.441C348.416 149.095 348.834 148.656 349.155 148.148C349.476 147.64 349.694 147.074 349.796 146.482C349.899 145.89 349.883 145.284 349.751 144.698C349.619 144.112 349.373 143.557 349.027 143.067C348.681 142.576 348.241 142.158 347.734 141.837C347.226 141.516 346.66 141.298 346.068 141.195C345.476 141.093 344.87 141.108 344.284 141.24Z" fill="white"/>
<path d="M411.278 121.185L410.615 129.051C407.397 135.257 402.756 140.615 397.073 144.686C391.393 148.753 384.841 151.436 377.941 152.52C365.17 154.494 349.636 150.671 341.949 142.259L342.739 135.285L371.253 145.363L411.278 121.185Z" fill="#BEE7EB"/>
<path fill-rule="evenodd" clip-rule="evenodd" d="M377.032 146.093L377.757 165.873C377.771 166.36 377.882 166.84 378.083 167.283C378.284 167.727 378.571 168.127 378.927 168.459C379.284 168.791 379.702 169.049 380.159 169.218C380.616 169.387 381.102 169.464 381.589 169.444C382.075 169.425 382.553 169.308 382.995 169.102C383.437 168.896 383.833 168.605 384.161 168.245C384.489 167.885 384.742 167.463 384.906 167.004C385.07 166.546 385.142 166.059 385.116 165.572L384.391 145.792C384.373 145.308 384.26 144.833 384.057 144.393C383.855 143.953 383.567 143.558 383.211 143.23C382.855 142.902 382.438 142.647 381.983 142.481C381.528 142.315 381.045 142.241 380.561 142.263C379.588 142.312 378.674 142.741 378.014 143.457C377.354 144.173 377.001 145.12 377.032 146.093Z" fill="#BEE7EB"/>
<path d="M326.792 112.542C322.752 87.8679 336.093 67.281 364.196 62.7434C390.167 58.5716 409.338 74.4303 414.528 98.2969C419.127 119.602 413.35 143.541 377.381 148.849C344.329 153.722 330.685 136.677 326.792 112.542Z" fill="white"/>
<path fill-rule="evenodd" clip-rule="evenodd" d="M347.054 183.024L346.676 208.891L334.309 226.599C333.82 227.313 333.538 228.149 333.493 229.013C333.448 229.878 333.642 230.738 334.055 231.499L336.531 235.811C336.829 236.335 337.227 236.795 337.702 237.165C338.178 237.535 338.721 237.807 339.302 237.967C339.883 238.127 340.49 238.171 341.087 238.096C341.685 238.021 342.263 237.83 342.786 237.532C343.31 237.234 343.77 236.836 344.14 236.361C344.51 235.885 344.782 235.342 344.942 234.761C345.102 234.18 345.146 233.573 345.071 232.975C344.997 232.378 344.805 231.8 344.507 231.277L343.465 229.503L355.031 212.924C355.598 212.105 355.895 211.13 355.881 210.134L353.495 182.74C353.426 180.186 353.325 180.66 350.77 180.728C348.202 180.855 346.926 180.457 347.054 183.024Z" fill="#FBBF96"/>
<path fill-rule="evenodd" clip-rule="evenodd" d="M345.751 182.742L346.688 208.832L338.085 221.156C337.737 221.655 337.492 222.217 337.361 222.81C337.231 223.404 337.219 224.017 337.326 224.615C337.433 225.213 337.656 225.785 337.984 226.296C338.311 226.808 338.737 227.25 339.235 227.598C339.734 227.945 340.296 228.191 340.889 228.321C341.483 228.451 342.096 228.463 342.694 228.357C343.292 228.25 343.863 228.026 344.375 227.699C344.887 227.371 345.329 226.946 345.676 226.447L355.166 212.888C355.733 212.07 356.03 211.094 356.016 210.099L355.043 182.453C355.001 181.237 354.478 180.087 353.589 179.257C352.699 178.426 351.517 177.983 350.301 178.024C349.687 178.017 349.078 178.136 348.512 178.372C347.946 178.609 347.434 178.959 347.008 179.401C346.582 179.843 346.25 180.368 346.034 180.942C345.818 181.517 345.722 182.129 345.751 182.742Z" fill="white"/>
<path fill-rule="evenodd" clip-rule="evenodd" d="M401.382 174.109L420.893 193.402L421.541 214.655C421.576 215.522 421.852 216.362 422.339 217.08C422.826 217.799 423.504 218.367 424.297 218.72L428.855 220.694C429.411 220.932 430.008 221.059 430.612 221.067C431.217 221.075 431.817 220.964 432.379 220.74C432.941 220.516 433.453 220.184 433.886 219.762C434.319 219.34 434.665 218.837 434.903 218.281C435.142 217.726 435.269 217.129 435.277 216.524C435.285 215.919 435.174 215.319 434.95 214.757C434.726 214.196 434.393 213.684 433.971 213.251C433.55 212.817 433.046 212.472 432.491 212.233L430.606 211.401L429.856 191.187C429.841 190.59 429.706 190.001 429.459 189.456C429.212 188.912 428.857 188.423 428.416 188.018L406.963 168.454C405.117 166.7 407.806 170.063 406.052 171.909C404.355 173.784 399.59 172.382 401.382 174.109Z" fill="#FBBF96"/>
<path fill-rule="evenodd" clip-rule="evenodd" d="M401.012 174.603L420.746 193.413L421.32 208.512C421.339 209.12 421.479 209.719 421.73 210.274C421.982 210.829 422.341 211.328 422.787 211.744C423.232 212.159 423.756 212.482 424.326 212.694C424.897 212.907 425.505 213.004 426.113 212.98C426.722 212.957 427.32 212.813 427.873 212.557C428.426 212.302 428.923 211.939 429.335 211.491C429.747 211.042 430.066 210.516 430.274 209.944C430.483 209.371 430.575 208.763 430.547 208.155L429.912 191.216C429.897 190.618 429.762 190.029 429.515 189.484C429.268 188.94 428.913 188.451 428.473 188.046L407.416 167.935C406.531 167.086 405.345 166.623 404.119 166.648C402.894 166.673 401.728 167.184 400.879 168.068C400.029 168.953 399.567 170.139 399.592 171.365C399.617 172.59 400.128 173.756 401.012 174.605V174.603Z" fill="white"/>
<path d="M310.84 177.073C309.149 176.455 308.664 173.701 309.719 170.893C310.774 168.084 312.99 166.307 314.627 166.955C316.318 167.573 316.803 170.326 315.748 173.135C314.694 175.944 312.477 177.719 310.84 177.073Z" fill="#FBBF96"/>
<path d="M346.639 75.1514C346.639 75.1514 343.064 72.2401 324.803 71.6908C311.58 71.2359 312.167 62.0455 318.981 55.8785C332.694 43.57 346.083 54.2573 346.083 54.2573C346.083 54.2573 345.675 49.9596 334.285 43.2149C323.631 36.8359 323.731 22.0222 338.783 18.9224C368.886 12.7228 367.735 58.0194 367.735 58.0194C367.735 58.0194 368.974 56.2092 369.985 50.9639C371.296 44.3317 376.609 45.9916 378.808 50.7162C382.702 59.0644 368.854 67.0712 368.854 67.0712L346.639 75.1514Z" fill="white"/>
<path d="M371.896 56.6855C371.896 56.6855 373.134 54.8752 374.146 49.6299C374.312 48.6549 374.66 47.72 375.173 46.874C374.544 46.567 373.831 46.4801 373.147 46.6272C372.463 46.7743 371.849 47.1469 371.402 47.6851C371.752 50.6722 371.917 53.678 371.896 56.6855Z" fill="white"/>
<path d="M334.288 43.2147C337.305 44.9243 340.117 46.9736 342.668 49.3226C345.398 50.0373 347.968 51.2587 350.246 52.9233C350.246 52.9233 349.838 48.6256 338.449 41.8814C328.921 36.175 328.004 23.7345 338.676 18.9477C323.735 22.0985 323.659 36.8516 334.288 43.2147Z" fill="white"/>
<path d="M341.97 116.209C340.203 97.179 349.741 81.7274 370.079 77.4985C390.605 73.2396 406.571 87.0196 409.982 105.667C413.033 122.452 405.211 141.31 379.37 145.21C356.31 148.677 343.79 135.211 341.97 116.209Z" fill="#FBBF96"/>
<path d="M380.204 116.139C379.833 113.736 382.009 111.366 384.979 110.903C388.003 110.413 390.768 112.04 391.139 114.443C391.509 116.846 389.333 119.216 386.363 119.678C383.339 120.168 380.601 118.594 380.204 116.139Z" fill="#F7937A"/>
<path d="M377.391 127.862C371.385 125.268 370.271 122.229 364.924 124.415C364.003 124.835 363.218 125.506 362.659 126.351C362.074 127.171 361.753 128.15 361.737 129.157C361.423 132.602 364.773 133.649 371.004 135.238C372.447 135.645 372.753 138.969 374.082 139.025C384.613 138.908 388.476 132.715 387.384 130.759C386.399 128.749 382.66 130.092 377.391 127.862Z" fill="#BA3269"/>
<path d="M370.36 129.836C364.581 126.371 361.79 129.131 361.79 129.131C361.475 132.576 363.666 136.759 369.897 138.348C371.288 138.69 372.705 138.908 374.134 138.999C374.134 138.999 375.954 133.468 370.36 129.836Z" fill="#E7456C"/>
<path d="M365.394 91.8012C362.17 93.7241 358.744 94.0073 357.752 92.3841C356.76 90.7608 358.562 87.8256 361.73 85.8803C364.954 83.9574 368.38 83.6742 369.372 85.2974C370.418 86.9426 368.618 89.8783 365.394 91.8012Z" fill="#153659"/>
<path d="M380.095 79.6909C380.35 77.7105 383.716 76.4301 387.676 76.9432C391.581 77.4343 394.562 79.4494 394.361 81.4517C394.107 83.4322 390.74 84.7125 386.78 84.2C382.876 83.7083 379.837 81.6713 380.095 79.6909Z" fill="#153659"/>
<path d="M359.046 106.589C359.599 104.95 360.626 103.512 361.997 102.456C363.367 101.4 365.02 100.775 366.746 100.658C368.472 100.542 370.194 100.94 371.694 101.802C373.194 102.664 374.405 103.952 375.173 105.502C375.941 107.052 376.233 108.795 376.01 110.511C375.788 112.227 375.062 113.838 373.924 115.141C372.786 116.444 371.287 117.381 369.617 117.832C367.947 118.283 366.18 118.229 364.541 117.677C362.348 116.927 360.541 115.341 359.511 113.264C358.482 111.188 358.315 108.789 359.046 106.589Z" fill="white"/>
<path d="M383.661 95.943C384.211 94.3084 385.233 92.8736 386.599 91.8199C387.964 90.7663 389.611 90.1411 391.331 90.0236C393.052 89.906 394.769 90.3012 396.265 91.1594C397.761 92.0175 398.969 93.2999 399.736 94.8445C400.503 96.3891 400.794 98.1265 400.574 99.8369C400.354 101.547 399.631 103.154 398.498 104.454C397.364 105.754 395.871 106.688 394.206 107.139C392.542 107.59 390.781 107.537 389.146 106.987C386.962 106.24 385.161 104.66 384.134 102.592C383.107 100.525 382.937 98.1353 383.661 95.943Z" fill="white"/>
<path d="M364.47 110.549C362.57 107.741 362.674 104.413 364.655 103.021C366.621 101.713 369.758 102.913 371.658 105.721C373.557 108.529 373.454 111.858 371.473 113.25C369.506 114.558 366.37 113.358 364.47 110.549Z" fill="#153659"/>
<path d="M388.727 99.8855C386.845 97.0628 386.96 93.6986 388.912 92.3688C390.864 91.039 394.05 92.2527 395.931 95.0753C397.813 97.8979 397.698 101.262 395.746 102.592C393.747 103.957 390.609 102.708 388.727 99.8855Z" fill="#153659"/>
<path d="M656.5 247.263C656.565 247.084 656.594 246.894 656.585 246.704C656.577 246.514 656.531 246.328 656.45 246.156C656.369 245.983 656.256 245.829 656.115 245.7C655.975 245.572 655.81 245.473 655.632 245.408L654.948 245.161C654.587 245.03 654.189 245.048 653.842 245.21C653.495 245.373 653.226 245.666 653.094 246.027L645.611 266.535C644.474 265.882 643.239 265.417 641.954 265.159C637.627 264.275 633.675 265.655 633.126 268.267C632.577 270.88 635.648 273.741 639.976 274.625C644.303 275.51 648.255 274.13 648.804 271.518C648.951 270.775 648.833 270.005 648.469 269.341L653.986 254.197C661.269 257.634 661.506 263.956 661.506 263.956C666.199 255.65 659.471 249.47 656.5 247.263Z" fill="white"/>
<path d="M99.2811 193.172C99.4118 192.811 99.394 192.413 99.2316 192.065C99.0692 191.718 98.7755 191.449 98.4149 191.318L97.7306 191.069C97.37 190.939 96.9724 190.957 96.625 191.119C96.2776 191.282 96.0088 191.575 95.8776 191.936L88.3915 212.444C87.255 211.791 86.0201 211.326 84.7348 211.068C80.4081 210.184 76.4554 211.564 75.9067 214.176C75.358 216.788 78.4298 219.649 82.7564 220.534C87.0831 221.418 91.0358 220.039 91.5845 217.426C91.7319 216.683 91.6133 215.913 91.2493 215.249L96.7672 200.105C104.049 203.542 104.286 209.865 104.286 209.865C108.98 201.559 102.252 195.379 99.2811 193.172Z" fill="white"/>
<path d="M176.477 44.422C173.337 37.6456 163.711 40.9365 163.711 40.9365L162.315 37.8C162.315 37.8 168.572 31.4756 167.762 24.5581C167.011 18.1516 162.484 14.5841 157.695 17.2773C149.663 21.7935 157.69 35.2036 157.69 35.2036C157.69 35.2036 144.207 43.6241 149.443 54.0974C155.005 65.2223 168.855 59.3886 168.855 59.3886C168.855 59.3886 170.502 62.8577 170.022 65.1459C169.102 69.5373 164.595 69.1536 164.595 69.1536C164.595 69.1536 165.746 65.6055 162.581 64.934C159.873 64.3598 157.211 66.7957 157.977 69.6336C158.937 73.1818 164.581 75.5606 169.966 71.935C177.608 66.7891 170.79 57.0209 171.392 57.9273C171.392 57.9278 180.278 52.627 176.477 44.422ZM154.048 54.7684C148.972 46.2266 159.682 39.6444 159.682 39.6444L160.854 42.2199C160.854 42.2199 152.721 47.7954 156.252 53.5217C158.97 57.9304 162.687 56.5099 162.774 55.5357C162.861 54.5616 160.277 55.4598 159.513 52.3707C158.8 49.5017 162.486 46.4248 162.486 46.4248L167.761 57.2619C167.761 57.2619 157.979 61.3858 154.048 54.7684ZM170.076 55.3722L165.556 45.2739C165.556 45.2739 171.142 43.6007 172.461 47.4795C174.092 52.2749 170.076 55.3722 170.076 55.3722ZM159.802 33.6674C159.802 33.6674 155.24 23.993 159.336 21.6356C162.214 19.9792 163.915 23.693 163.254 27.2401C162.702 30.2059 159.802 33.6695 159.802 33.6695V33.6674Z" fill="white"/>
<path d="M555.354 78.6445L535.976 68.6583C535.593 68.4615 535.15 68.4145 534.735 68.5264C534.319 68.6383 533.959 68.9011 533.727 69.2636L517.48 94.6474C516.494 93.7719 515.383 93.0475 514.184 92.4978C509.887 90.5444 505.392 91.1415 504.228 93.7808C503.015 96.4266 505.564 100.177 509.854 102.08C514.151 104.034 518.646 103.436 519.81 100.798C520.153 99.939 520.179 98.9864 519.885 98.11L532.428 78.4616C532.661 78.0982 533.021 77.8348 533.437 77.7228C533.854 77.6109 534.298 77.6585 534.681 77.8563L547.062 84.2694C547.275 84.3802 547.463 84.5342 547.614 84.7215C547.764 84.9089 547.874 85.1255 547.936 85.3576C547.999 85.5897 548.012 85.8323 547.976 86.0698C547.939 86.3074 547.853 86.5347 547.724 86.7374L536.481 104.311C535.458 103.349 534.283 102.562 533.004 101.982C528.707 100.028 524.212 100.625 523.049 103.264C521.835 105.91 524.384 109.661 528.674 111.564C532.971 113.518 537.466 112.92 538.63 110.281C538.955 109.525 539.015 108.681 538.799 107.887L556.015 81.1151C556.145 80.9123 556.231 80.6848 556.268 80.447C556.304 80.2092 556.291 79.9663 556.229 79.7339C556.167 79.5015 556.057 79.2846 555.906 79.097C555.755 78.9094 555.567 78.7553 555.354 78.6445Z" fill="white"/>
</g>
<defs>
<clipPath id="clip0_16_22408">
<rect width="692.921" height="331.175" fill="white"/>
</clipPath>
</defs>
</svg>
