<svg width="249" height="114" viewBox="0 0 249 114" fill="none" xmlns="http://www.w3.org/2000/svg">
<path d="M227.935 72.5203C218.761 62.9318 219.576 61.5042 217.743 36.2057C215.909 10.9072 175.752 9.88718 175.752 9.88718L74.2414 12.3354C74.2414 12.3354 29.8055 11.5178 28.1741 40.6925C26.7477 65.991 28.3792 67.4188 19.8179 77.417C11.2566 87.4151 -7.0885 88.638 2.89837 105.366C10.6444 118.628 54.0626 120.669 63.0314 78.6399C63.5267 76.3874 64.7566 74.3635 66.5278 72.8864C68.2989 71.4092 70.5107 70.5626 72.8155 70.4798H73.0183C75.3568 70.473 77.6343 71.225 79.5089 72.6229C81.3836 74.0208 82.7543 75.9892 83.415 78.2324C90.3455 105.163 110.932 112.916 126.628 111.488C142.325 110.06 159.037 101.287 164.337 76.6011C164.794 74.2563 166.028 72.1343 167.841 70.5788C169.654 69.0234 171.939 68.1257 174.326 68.0311H174.529C176.875 67.9906 179.169 68.7297 181.05 70.1327C182.931 71.5356 184.293 73.5231 184.924 75.7835C195.728 117.607 238.942 113.323 246.28 99.6539C255.249 82.7211 238.329 83.5371 227.935 72.5203Z" fill="#CEF522"/>
<path d="M119.847 31.015C122.889 30.0845 125.476 28.0568 127.107 25.3255C128.738 22.5943 129.296 19.3545 128.672 16.2351C128.049 13.1157 126.288 10.3394 123.732 8.44513C121.177 6.55089 118.008 5.67393 114.842 5.98453C111.676 6.29514 108.739 7.7711 106.6 10.1259C104.461 12.4807 103.274 15.5463 103.269 18.7274C103.263 21.9086 104.44 24.9782 106.57 27.3404C108.701 29.7026 111.633 31.1887 114.798 31.5103C116.497 31.6825 118.214 31.5141 119.847 31.015Z" fill="white"/>
<path d="M141.284 25.0015C144.543 24.0157 147.294 21.806 148.959 18.8359C150.625 15.8658 151.075 12.3662 150.215 9.07135C149.5 6.67916 148.097 4.5505 146.18 2.95101C144.262 1.35152 141.917 0.351998 139.435 0.0772225C136.954 -0.197553 134.446 0.264563 132.225 1.4059C130.005 2.54723 128.169 4.31724 126.948 6.49506C125.727 8.67288 125.175 11.1621 125.359 13.652C125.544 16.1419 126.458 18.5223 127.987 20.4961C129.516 22.47 131.592 23.9499 133.957 24.7511C136.322 25.5523 138.87 25.6394 141.284 25.0015Z" fill="white"/>
<path d="M115.949 25.6511C117.75 25.1204 119.271 23.9027 120.182 22.2608C121.094 20.6189 121.323 18.6844 120.821 16.8749C120.578 15.9885 120.162 15.1589 119.597 14.4337C119.032 13.7085 118.33 13.1019 117.531 12.6487C116.731 12.1955 115.85 11.9047 114.937 11.7929C114.025 11.6811 113.1 11.7505 112.214 11.9972C110.412 12.5273 108.89 13.7453 107.979 15.388C107.067 17.0308 106.838 18.9663 107.342 20.7762C107.586 21.6624 108.002 22.4918 108.566 23.2168C109.131 23.9418 109.833 24.5482 110.633 25.0011C111.433 25.4541 112.314 25.7448 113.226 25.8565C114.138 25.9681 115.063 25.8986 115.949 25.6519V25.6511Z" fill="#0A2759"/>
<path d="M141.609 17.6869C142.941 17.3175 144.133 16.5616 145.035 15.5148C145.938 14.4679 146.51 13.1771 146.678 11.8054C146.847 10.4336 146.606 9.04265 145.984 7.80816C145.363 6.57366 144.39 5.55109 143.187 4.86965C141.985 4.18822 140.607 3.87849 139.229 3.97966C137.851 4.08084 136.533 4.58836 135.443 5.43806C134.353 6.28775 133.54 7.44153 133.105 8.75353C132.671 10.0655 132.635 11.4769 133.002 12.8092C133.226 13.7072 133.63 14.5503 134.189 15.2873C134.749 16.0242 135.453 16.6396 136.258 17.0959C137.063 17.5522 137.953 17.8399 138.873 17.9415C139.793 18.043 140.723 17.9565 141.609 17.6869Z" fill="#0A2759"/>
<path d="M128.471 40.7218C102.511 40.7218 94.3979 26.0261 94.0732 25.4034C93.9377 25.1097 93.897 24.7811 93.9565 24.4632C94.0097 24.1533 94.1651 23.8703 94.3979 23.6591C94.5182 23.5827 94.6527 23.5314 94.7934 23.5083C94.934 23.4852 95.0778 23.4907 95.2163 23.5245C95.5041 23.6011 95.7527 23.783 95.9127 24.0343C96.0202 24.1581 103.809 38.1054 128.579 38.1054H128.903C146.21 38.1054 158.217 25.0302 158.325 24.9046C158.418 24.7933 158.533 24.7039 158.664 24.6424C158.795 24.581 158.938 24.5491 159.082 24.5491C159.227 24.5491 159.37 24.581 159.501 24.6424C159.632 24.7039 159.747 24.7933 159.84 24.9046C160.039 25.1514 160.148 25.4593 160.148 25.7768C160.148 26.0942 160.039 26.4021 159.84 26.6489C159.298 27.2716 147.075 40.5958 128.903 40.5958L128.471 40.7218Z" fill="#0A2759"/>
</svg>
