<svg width="144" height="92" viewBox="0 0 144 92" fill="none" xmlns="http://www.w3.org/2000/svg">
<path d="M115.2 36.1472C113.864 10.4202 74.3824 9.82473 74.3824 9.82473C74.3824 9.82473 30.6492 8.03797 28.3418 36.1472C24.4543 74.0219 -7.73815 66.2796 1.73739 82.7167C9.17539 95.6195 51.753 98.6938 61.6455 58.4904C62.1942 56.2321 63.4847 54.2232 65.3103 52.7852C67.136 51.3473 69.3912 50.5633 71.7152 50.5589H71.8157C74.1444 50.5635 76.4045 51.3483 78.2348 52.7881C80.0652 54.2279 81.3603 56.2395 81.9133 58.5017C91.8904 98.8131 134.366 95.7327 141.805 82.7177C151.158 66.4003 117.994 73.7832 115.2 36.1472Z" fill="#CEF522"/>
<path d="M64.6992 30.3187C67.6734 29.4091 70.2035 27.4268 71.7983 24.7565C73.393 22.0863 73.9386 18.9186 73.329 15.8688C72.7195 12.8189 70.9982 10.1043 68.4996 8.2522C66.001 6.40008 62.9033 5.54258 59.8079 5.84616C56.7125 6.14975 53.8404 7.59274 51.7492 9.89501C49.6581 12.1973 48.4971 15.1945 48.4917 18.3047C48.4862 21.4149 49.6368 24.4162 51.72 26.7258C53.8031 29.0353 56.6702 30.4883 59.7645 30.8027C61.4252 30.9711 63.1028 30.8065 64.6992 30.3187Z" fill="white"/>
<path d="M85.6557 24.44C88.8418 23.4764 91.5309 21.3163 93.1587 18.4128C94.7865 15.5094 95.2266 12.0884 94.3866 8.86748C93.6876 6.52904 92.3155 4.44824 90.4414 2.8847C88.5672 1.32116 86.2742 0.344105 83.8483 0.075531C81.4225 -0.193043 78.9712 0.258736 76.8005 1.37446C74.6297 2.49018 72.8356 4.22047 71.642 6.34938C70.4485 8.4783 69.9082 10.9116 70.0888 13.3456C70.2694 15.7796 71.1627 18.1065 72.6574 20.036C74.152 21.9655 76.1818 23.4121 78.4934 24.1953C80.805 24.9785 83.2961 25.0636 85.6557 24.44Z" fill="white"/>
<path d="M60.8889 25.0751C62.65 24.5562 64.1365 23.3657 65.0275 21.7605C65.9186 20.1553 66.1429 18.2641 65.6519 16.495C65.414 15.6286 65.0075 14.8176 64.4555 14.1087C63.9035 13.3997 63.217 12.8067 62.4353 12.3637C61.6536 11.9208 60.7921 11.6365 59.9003 11.5272C59.0085 11.4179 58.1039 11.4858 57.2384 11.727C55.4764 12.2451 53.989 13.4357 53.0978 15.0416C52.2065 16.6474 51.983 18.5395 52.4754 20.3088C52.7135 21.1751 53.1202 21.9858 53.6723 22.6945C54.2243 23.4033 54.9109 23.996 55.6926 24.4389C56.4742 24.8817 57.3356 25.1658 58.2273 25.275C59.119 25.3842 60.0235 25.3163 60.8889 25.0751Z" fill="#0A2759"/>
<path d="M85.9731 17.2896C87.2749 16.9285 88.4405 16.1896 89.3226 15.1663C90.2046 14.1429 90.7634 12.8811 90.9285 11.5402C91.0936 10.1994 90.8575 8.83967 90.2501 7.63294C89.6426 6.42622 88.6911 5.42661 87.5157 4.76051C86.3404 4.09441 84.9939 3.79169 83.6466 3.89059C82.2992 3.98949 81.0114 4.48556 79.9459 5.31614C78.8804 6.14673 78.085 7.27454 77.6603 8.55703C77.2355 9.83952 77.2005 11.2191 77.5596 12.5215C77.7782 13.3994 78.1731 14.2236 78.7203 14.944C79.2676 15.6644 79.9556 16.2659 80.7426 16.7119C81.5297 17.1579 82.3993 17.4392 83.2985 17.5385C84.1977 17.6378 85.1077 17.5531 85.9731 17.2896Z" fill="#0A2759"/>
<path d="M73.1302 39.8073C47.7525 39.8073 39.8219 25.4416 39.5044 24.833C39.372 24.5458 39.3322 24.2246 39.3905 23.9138C39.4423 23.6109 39.5943 23.3343 39.8219 23.1279C39.9395 23.0532 40.071 23.0029 40.2085 22.9803C40.346 22.9577 40.4866 22.9631 40.6219 22.9962C40.9033 23.071 41.1463 23.2489 41.3026 23.4946C41.4078 23.6156 49.0213 37.2497 73.2354 37.2497H73.5523C90.4708 37.2497 102.208 24.4681 102.313 24.3453C102.404 24.2366 102.517 24.1492 102.645 24.0892C102.773 24.0291 102.912 23.998 103.054 23.998C103.195 23.998 103.335 24.0291 103.463 24.0892C103.591 24.1492 103.704 24.2366 103.794 24.3453C103.989 24.5865 104.096 24.8875 104.096 25.1979C104.096 25.5082 103.989 25.8091 103.794 26.0504C103.264 26.6592 91.316 39.6847 73.5523 39.6847L73.1302 39.8073Z" fill="#0A2759"/>
</svg>
