<svg width="126" height="145" viewBox="0 0 126 145" fill="none" xmlns="http://www.w3.org/2000/svg">
<path d="M6.62552 143.772C6.45101 144.055 6.65134 144.402 6.98391 144.402C10.8777 144.402 24.2712 144.402 24.2712 144.402C24.2712 144.402 31.027 134.039 21.4111 134.039C13.2382 134.039 8.01048 141.525 6.62552 143.772Z" fill="#CB41E3"/>
<path d="M18.2323 129.219C18.2586 124.912 19.2695 120.67 21.1849 116.829C23.1003 112.988 25.8677 109.653 29.2682 107.088C32.6688 104.523 36.6092 102.798 40.7779 102.05C44.9467 101.302 49.2294 101.551 53.2873 102.777C57.3452 104.003 61.0669 106.173 64.1584 109.116C67.2498 112.058 69.6261 115.692 71.0992 119.729C72.5724 123.767 73.1022 128.098 72.6464 132.38C72.1906 136.662 70.762 140.778 68.4734 144.401H22.7148C19.7909 139.897 18.2322 134.617 18.2323 129.219Z" fill="#E15FF8"/>
<path d="M63.1901 120.95C65.7215 113.154 76.748 116.048 75.661 124.212C75.2202 128.957 75.1581 133.732 75.4753 138.488C75.9615 141.551 76.1472 144.14 73.101 144.4H64.6202C64.2477 144.414 63.8768 144.341 63.5333 144.186C63.1899 144.021 62.8793 143.787 62.6181 143.497C59.9437 139.775 60.9161 126.127 63.1901 120.95Z" fill="#CB41E3"/>
<path d="M61.6756 135.552C56.7323 135.535 51.9718 133.612 48.3202 130.156C44.6687 126.701 42.3871 121.961 41.9192 116.857C41.4514 111.754 42.8307 106.653 45.789 102.545C48.7472 98.4384 53.073 95.6194 57.9246 94.6368C62.7762 93.6541 67.8068 94.578 72.0379 97.2289C76.2689 99.8798 79.3979 104.068 80.8161 108.979C82.2343 113.89 81.8403 119.172 79.7108 123.798C77.5814 128.425 73.8686 132.064 69.2948 134.009C66.8768 135.035 64.2883 135.559 61.6756 135.552Z" fill="#E15FF8"/>
<path d="M44.8508 144.356H56.7326C57.2848 144.358 57.8247 144.189 58.2834 143.872C58.7503 143.559 59.1132 143.105 59.3226 142.572C59.4705 142.22 59.5404 141.838 59.5273 141.454V122.229C59.5321 121.849 59.4617 121.472 59.3209 121.122C59.18 120.771 58.9714 120.453 58.7078 120.188C58.1786 119.654 57.4729 119.346 56.7326 119.327L55.6059 123.483C54.0695 123.483 51.8012 127.821 50.2502 129.287C48.3239 131.237 46.8405 133.604 45.9068 136.217C44.9731 138.831 44.6125 141.626 44.8508 144.401V144.356Z" fill="#CB41E3"/>
<path d="M51.6094 120.95C54.4096 113.154 66.57 116.048 65.3272 124.212C64.8737 128.958 64.8055 133.732 65.1229 138.488C65.6578 141.551 65.8624 144.14 62.5116 144.4H53.1826C52.7728 144.414 52.3648 144.341 51.987 144.186C51.6136 144.021 51.2772 143.787 50.9961 143.497C48.0543 139.775 49.0767 126.127 51.6094 120.95Z" fill="#E15FF8"/>
<path d="M112.874 31.2238C108.525 24.5317 99.0248 25.3816 96.6453 31.8224C94.6651 37.1825 92.9108 42.8686 88.6138 44.1857C88.2338 44.3022 87.9357 44.6247 87.9247 45.022C87.71 52.7777 94.1981 56.3328 98.1717 52.2579C98.3003 52.126 98.4669 52.0273 98.6464 51.9859C111.629 48.9893 117.192 37.8684 112.874 31.2238Z" fill="#E15FF8"/>
<path d="M102.564 26.7966C99.9356 27.3712 96.4366 28.7876 90.6344 41.4656C88.4733 46.1878 88.9278 49.518 89.0882 50.3249C89.1133 50.4514 89.174 50.5649 89.2615 50.6597C90.0761 51.5413 94.5372 56.0029 98.1884 52.2402C98.3051 52.1199 98.3798 51.9706 98.4073 51.8053C98.7326 49.848 100.95 36.5102 102.564 26.7966Z" fill="#F184FF"/>
<path d="M27.2452 16.9965C33.525 12.0711 42.2394 15.9487 42.4074 22.8129C42.5471 28.5253 42.3676 34.4732 46.0075 37.1095C46.3293 37.3427 46.5071 37.7443 46.389 38.1238C44.0831 45.532 36.7939 46.797 34.3522 41.6557C34.2732 41.4893 34.1474 41.3421 33.991 41.2448C22.6759 34.2095 21.0099 21.887 27.2452 16.9965Z" fill="#E15FF8"/>
<path d="M38.4348 16.1418C40.7361 17.5359 43.5888 20.0081 44.9776 33.8813C45.4949 39.0487 43.9875 42.0529 43.5748 42.7645C43.51 42.8761 43.4159 42.9638 43.3024 43.0251C42.2464 43.5958 36.5819 46.3744 34.3443 41.6328C34.2728 41.4813 34.2504 41.3158 34.2778 41.1505C34.6032 39.1932 36.8202 25.8555 38.4348 16.1418Z" fill="#F184FF"/>
<path d="M55.7582 116.409C34.5115 112.877 10.5452 110.052 5.58577 87.169C0.626376 64.2862 23.5462 24.6468 69.7346 32.3242C115.923 40.0016 119.168 83.4697 110.246 102.273C101.325 121.076 77.0049 119.94 55.7582 116.409Z" fill="#F184FF"/>
<path fill-rule="evenodd" clip-rule="evenodd" d="M67.3935 56.1313C67.6857 56.3071 68.0311 56.3577 68.362 56.2758C70.429 55.7638 78.0783 53.5212 78.9675 48.1715C79.4582 45.2192 77.7332 42.4731 74.9784 42.0152C72.3599 41.58 70.4849 43.3373 69.908 44.3266C69.8853 44.3654 69.8204 44.3526 69.8141 44.3081C69.6569 43.1889 68.6366 40.9611 66.0194 40.5261C63.2646 40.0682 60.7771 42.1141 60.2864 45.0663C59.3267 50.8401 65.6205 55.0647 67.3935 56.1313Z" fill="#F49DFF"/>
<path d="M73.383 74.1953C71.722 64.2675 77.6933 55.1503 86.8043 53.5296C95.9153 51.909 104.596 59.0232 106.243 68.9311C107.889 78.839 101.804 88.219 92.7698 89.5882C83.7358 90.9575 75.0639 84.1089 73.383 74.1953Z" fill="#A7E4FE"/>
<path d="M76.8237 73.2012C74.7776 65.573 78.7605 57.9212 85.7481 56.0587C92.7357 54.1962 100.06 58.9956 102.106 66.6238C104.152 74.2519 100.169 81.9038 93.1817 83.7663C86.1941 85.6288 78.8848 80.8464 76.8237 73.2012Z" fill="#2D234C"/>
<path d="M105.664 69.223C105.584 68.6156 105.384 68.0303 105.075 67.5015C104.769 66.9704 104.36 66.5056 103.872 66.134C103.384 65.7625 102.827 65.4917 102.234 65.3374C101.644 65.1839 101.029 65.1505 100.426 65.2393C99.5388 65.4876 98.7378 65.9765 98.1114 66.6519C97.4851 67.3273 97.0577 68.1629 96.8769 69.0661C96.696 69.9693 96.7686 70.905 97.0866 71.7695C97.4047 72.634 97.9557 73.3937 98.6788 73.9644C99.6694 74.701 100.908 75.0235 102.132 74.8638C103.333 74.5872 104.38 73.8534 105.049 72.8181C105.387 72.2904 105.615 71.7003 105.721 71.0828C105.827 70.4653 105.807 69.8328 105.664 69.223Z" fill="white"/>
<path d="M81.7793 63.3045C81.8111 62.8506 81.9333 62.4077 82.1388 62.0017C82.3422 61.5942 82.6247 61.2312 82.9698 60.9339C83.3149 60.6366 83.7157 60.4109 84.1488 60.27C84.5795 60.1298 85.034 60.0776 85.4852 60.1164C86.1541 60.2609 86.7699 60.5877 87.2646 61.0605C87.7593 61.5333 88.1135 62.1338 88.288 62.7955C88.4625 63.4572 88.4504 64.1542 88.2532 64.8095C88.0561 65.4648 87.6814 66.0527 87.1708 66.5082C86.4691 67.0987 85.5653 67.3932 84.6505 67.3295C83.7471 67.1781 82.9383 66.6807 82.3956 65.9429C82.1216 65.5667 81.9258 65.1394 81.82 64.6862C81.7141 64.233 81.7003 63.7632 81.7793 63.3045Z" fill="white"/>
<path d="M52.9254 70.7954C57.7087 61.9387 55.0079 51.38 46.9111 46.8991C38.8143 42.4182 28.299 46.3416 23.5356 55.1841C18.7723 64.0265 21.4961 74.8708 29.6014 79.0889C37.7066 83.3071 48.1277 79.6321 52.9254 70.7954Z" fill="#A7E4FE"/>
<path d="M49.9792 68.3144C54.383 61.7583 53.0896 53.2295 47.0803 49.2066C41.0709 45.1838 32.5878 47.3557 28.184 53.9118C23.7802 60.4678 25.0736 68.9967 31.0829 73.0195C37.0923 77.0424 45.5557 74.8818 49.9792 68.3144Z" fill="#2D234C"/>
<path d="M54.0602 60.2193C53.9808 59.612 53.7807 59.0267 53.4717 58.4978C53.1653 57.9667 52.7563 57.5019 52.2686 57.1304C51.7808 56.7588 51.224 56.488 50.6306 56.3337C50.0405 56.1802 49.4256 56.1469 48.8224 56.2357C47.9353 56.484 47.1343 56.9729 46.5079 57.6483C45.8815 58.3237 45.4542 59.1592 45.2734 60.0625C45.0925 60.9657 45.1651 61.9013 45.4831 62.7658C45.8011 63.6304 46.3522 64.39 47.0752 64.9607C48.0659 65.6973 49.3041 66.0199 50.5283 65.8602C51.7298 65.5836 52.7763 64.8498 53.4458 63.8144C53.7835 63.2867 54.012 62.6967 54.1175 62.0791C54.223 61.4616 54.2035 60.8292 54.0602 60.2193Z" fill="white"/>
<path d="M31.5178 54.5254C31.5496 54.0715 31.6718 53.6286 31.8773 53.2226C32.0808 52.8151 32.3632 52.4521 32.7083 52.1548C33.0534 51.8575 33.4542 51.6318 33.8873 51.4909C34.318 51.3507 34.7725 51.2984 35.2238 51.3373C35.8926 51.4818 36.5085 51.8085 37.0031 52.2814C37.4978 52.7542 37.852 53.3547 38.0265 54.0164C38.201 54.678 38.1889 55.3751 37.9918 56.0304C37.7946 56.6856 37.4199 57.2736 36.9093 57.7291C36.2076 58.3196 35.3038 58.6141 34.389 58.5504C33.4856 58.399 32.6769 57.9016 32.1341 57.1638C31.8601 56.7876 31.6643 56.3603 31.5585 55.9071C31.4526 55.4539 31.4388 54.9841 31.5178 54.5254Z" fill="white"/>
<path d="M82.2407 77.9174C74.1242 71.5728 70.4817 75.921 64.1542 74.5754C60.067 74.2377 56.2064 69.0161 46.8006 71.3802C37.3947 73.7443 27.5391 87.8138 30.177 96.9288C32.8148 106.044 42.0491 111.969 57.5115 114.539C72.9739 117.109 84.4356 113.342 89.2001 105.797C93.9646 98.2526 90.3572 84.262 82.2407 77.9174Z" fill="#CB41E3"/>
<path fill-rule="evenodd" clip-rule="evenodd" d="M39.9041 88.8468C44.148 85.7165 49.1286 87.4805 53.9918 89.5205C56.3656 90.5163 59.1617 92.1452 61.5321 92.4583C63.9025 92.7714 67.7393 92.2225 70.4576 92.1128C76.1574 91.8826 80.3676 92.5948 83.1261 95.5481C85.2366 97.8076 84.5097 102.84 80.8834 104.92C76.374 107.507 69.063 108.531 60.516 107.2C50.4774 105.637 43.2864 102.48 40.085 98.943C36.8837 95.4054 37.7741 90.4179 39.9041 88.8468Z" fill="#2D234C"/>
<path fill-rule="evenodd" clip-rule="evenodd" d="M69.3012 92.1793C68.9019 94.8108 68.9504 97.3696 72.3888 97.9411C75.8851 98.5223 77.8106 96.9045 78.5156 92.8043C76.2763 92.1455 73.5932 91.9873 70.46 92.1138C70.0921 92.1287 69.7037 92.1516 69.3012 92.1793Z" fill="#E5C7FD"/>
<path fill-rule="evenodd" clip-rule="evenodd" d="M54.177 89.6C53.7061 92.2439 52.8465 94.6935 49.38 94.1174C45.9276 93.5435 44.6392 92.5967 45.4898 87.1459C48.5211 87.2412 51.2178 88.3578 53.9937 89.5222C54.0545 89.5478 54.1157 89.5737 54.177 89.6Z" fill="#E5C7FD"/>
<ellipse cx="4.41526" cy="5.04146" rx="4.41526" ry="5.04146" transform="matrix(-0.768853 -0.639425 -0.639425 0.768853 80.2554 83.7761)" fill="#B121CB"/>
<ellipse cx="53.2854" cy="81.4465" rx="4.41526" ry="5.04146" transform="rotate(-20.8743 53.2854 81.4465)" fill="#B121CB"/>
</svg>
