<svg width="64" height="64" viewBox="0 0 64 64" fill="none" xmlns="http://www.w3.org/2000/svg">
<path d="M32.3999 54.3498C22.2999 54.7498 15.9999 51.6498 15.1999 46.4498C14.2999 40.5498 17.7999 32.1498 30.2999 30.8498C44.5999 29.3498 49.9999 38.9498 48.6999 45.2498C47.7999 49.8498 46.3999 53.8498 32.3999 54.3498Z" fill="#20204C"/>
<path d="M26.2001 51.3498C27.0001 51.3498 27.8001 51.2498 28.5001 50.9498C29.2001 50.6498 29.9001 50.2498 30.5001 49.6498C31.1001 49.0498 31.5001 48.4498 31.8001 47.7498C32.1001 47.0498 32.3001 46.2498 32.3001 45.4498C32.3001 44.6498 32.1001 43.8498 31.8001 43.1498C31.5001 42.4498 31.0001 41.7498 30.5001 41.2498C29.9001 40.6498 29.3001 40.2498 28.5001 39.9498C27.8001 39.6498 27.0001 39.5498 26.2001 39.5498C24.6001 39.5498 23.1001 40.1498 21.9001 41.2498C20.8001 42.3498 20.1001 43.8498 20.1001 45.4498C20.1001 47.0498 20.8001 48.5498 21.9001 49.6498C23.0001 50.7498 24.6001 51.3498 26.2001 51.3498Z" fill="white"/>
<path d="M27.1999 47.8498C27.9999 47.8498 28.6999 47.5498 29.1999 47.0498C29.6999 46.5498 29.9999 45.7498 29.9999 45.0498C29.9999 44.6498 29.8999 44.3498 29.7999 43.9498C29.6999 43.6498 29.3999 43.2498 29.1999 43.0498C28.8999 42.7498 28.5999 42.5498 28.2999 42.4498C27.9999 42.3498 27.5999 42.2498 27.1999 42.2498C26.3999 42.2498 25.6999 42.5498 25.1999 43.0498C24.6999 43.5498 24.3999 44.3498 24.3999 45.0498C24.3999 45.8498 24.6999 46.5498 25.1999 47.0498C25.6999 47.5498 26.3999 47.8498 27.1999 47.8498Z" fill="black"/>
<path d="M37.6 51.3498C38.4 51.3498 39.2 51.2498 39.9 50.9498C40.6 50.6498 41.3 50.2498 41.9 49.6498C42.5 49.0498 42.9 48.4498 43.2 47.7498C43.5 47.0498 43.7 46.2498 43.7 45.4498C43.7 44.6498 43.5 43.8498 43.2 43.1498C42.9 42.4498 42.4 41.7498 41.9 41.2498C41.3 40.6498 40.7 40.2498 39.9 39.9498C39.2 39.6498 38.4 39.5498 37.6 39.5498C36.8 39.5498 36 39.6498 35.3 39.9498C34.6 40.2498 33.9 40.6498 33.3 41.2498C32.7 41.8498 32.3 42.4498 32 43.1498C31.7 43.8498 31.5 44.6498 31.5 45.4498C31.5 46.2498 31.7 47.0498 32 47.7498C32.3 48.4498 32.8 49.1498 33.3 49.6498C33.9 50.2498 34.5 50.6498 35.3 50.9498C36 51.2498 36.8 51.3498 37.6 51.3498Z" fill="white"/>
<path d="M36.8 47.8498C37.6 47.8498 38.3 47.5498 38.8 47.0498C39.3 46.5498 39.6 45.7498 39.6 45.0498C39.6 44.6498 39.5 44.3498 39.4 43.9498C39.3 43.6498 39 43.2498 38.8 43.0498C38.5 42.7498 38.2 42.5498 37.9 42.4498C37.6 42.3498 37.2 42.2498 36.8 42.2498C36 42.2498 35.3 42.5498 34.8 43.0498C34.3 43.5498 34 44.3498 34 45.0498C34 45.7498 34.3 46.5498 34.8 47.0498C35.3 47.5498 36 47.8498 36.8 47.8498Z" fill="black"/>
<path d="M33.0656 44.2754C40.1577 43.1561 45.4742 39.5067 44.9404 36.1244C44.4066 32.742 38.2245 30.9074 31.1324 32.0267C24.0403 33.146 18.7238 36.7954 19.2576 40.1778C19.7914 43.5601 25.9735 45.3947 33.0656 44.2754Z" fill="#20204C"/>
<rect x="11" y="11" width="42" height="8" rx="4" fill="#19193D"/>
<path d="M13 15C13 13.8954 13.8954 13 15 13H49C50.1046 13 51 13.8954 51 15C51 16.1046 50.1046 17 49 17H15C13.8954 17 13 16.1046 13 15Z" fill="#05D344"/>
</svg>
