<svg width="287" height="105" viewBox="0 0 287 105" fill="none" xmlns="http://www.w3.org/2000/svg">
<path d="M139.098 5.79966C164.365 -2.44167 170.506 25.9495 200.968 19.5387C231.43 13.1279 244.655 4.19873 264.963 4.19873C289.995 4.19873 305.345 73.3453 244.892 96.6993C184.44 120.053 128.944 87.77 122.095 54.1109C113.595 12.6705 139.098 5.79966 139.098 5.79966Z" fill="#FF66BC"/>
<path d="M18.738 5.79966C44.0072 -2.44167 50.1456 25.9495 80.6074 19.5387C111.069 13.1279 124.297 4.19873 144.605 4.19873C169.637 4.19873 184.987 73.3453 124.532 96.6993C64.0772 120.053 8.58334 87.77 1.73472 54.1109C-6.76594 12.6705 18.738 5.79966 18.738 5.79966Z" fill="#FF66BC"/>
<path d="M129.174 38.8648C137.616 38.8648 144.46 31.9706 144.46 23.4701C144.46 14.9697 137.616 8.07568 129.174 8.07568C120.733 8.07568 113.889 14.9663 113.889 23.4701C113.889 31.974 120.732 38.8648 129.174 38.8648Z" fill="white"/>
<path d="M154.832 30.7889C163.454 30.7889 170.447 23.8959 170.447 15.3944C170.447 6.89299 163.453 3.05176e-05 154.832 3.05176e-05C146.21 3.05176e-05 139.22 6.89299 139.22 15.3944C139.22 23.8959 146.209 30.7889 154.832 30.7889Z" fill="white"/>
<path d="M126.333 32.3173C131.158 32.3173 135.07 28.4542 135.07 23.6924C135.07 18.9307 131.158 15.0671 126.333 15.0671C121.508 15.0671 117.6 18.9303 117.6 23.6924C117.6 28.4546 121.512 32.3173 126.333 32.3173Z" fill="#0A2759"/>
<path d="M157.452 21.8348C162.096 21.8348 165.859 18.0223 165.859 13.3188C165.859 8.61527 162.095 4.80246 157.452 4.80246C152.809 4.80246 149.045 8.61527 149.045 13.3188C149.045 18.0223 152.81 21.8348 157.452 21.8348Z" fill="#0A2759"/>
<path d="M145.979 48.9099C112.508 48.9099 102.047 32.5184 101.629 31.8257C101.448 31.5118 101.395 31.1403 101.48 30.7881C101.565 30.436 101.782 30.13 102.087 29.9336C102.391 29.7372 102.76 29.6654 103.116 29.7329C103.472 29.8005 103.788 30.0023 103.999 30.2966C104.141 30.4353 114.181 45.993 146.117 45.993H146.536C168.85 45.993 184.331 31.4076 184.47 31.2692C184.728 31.01 185.078 30.8638 185.444 30.8629C185.809 30.8619 186.16 31.0063 186.42 31.2641C186.679 31.522 186.825 31.8722 186.826 32.2378C186.827 32.6034 186.683 32.9544 186.425 33.2136C185.727 33.9089 169.966 48.7715 146.536 48.7715L145.979 48.9099Z" fill="#0A2759"/>
</svg>
