<svg width="141" height="88" viewBox="0 0 141 88" fill="none" xmlns="http://www.w3.org/2000/svg">
<path d="M15.95 1.34096C37.3915 -5.63881 42.4839 19.0666 68.2141 13.4278C93.9438 7.78608 105.201 0 122.354 0C143.528 0 156.392 60.4232 105.469 80.8298C54.5449 101.24 7.37341 73.0441 1.4771 43.772C-5.75962 7.51743 15.95 1.34096 15.95 1.34096Z" fill="#FF66BC"/>
<path d="M56.3497 37.7185C59.1895 37.7228 61.9668 36.8847 64.3301 35.3101C66.6935 33.7355 68.5366 31.4953 69.6264 28.8729C70.7162 26.2505 71.0036 23.3638 70.4523 20.578C69.901 17.7922 68.5358 15.2325 66.5293 13.2228C64.5229 11.2132 61.9654 9.84382 59.1804 9.28809C56.3955 8.73236 53.5083 9.01521 50.8842 10.1008C48.26 11.1865 46.0169 13.0261 44.4386 15.3869C42.8602 17.7477 42.0177 20.5237 42.0175 23.3635C42.016 25.2472 42.3854 27.1127 43.1048 28.8536C43.8242 30.5944 44.8795 32.1765 46.2104 33.5095C47.5413 34.8425 49.1217 35.9003 50.8614 36.6225C52.6011 37.3447 54.466 37.7171 56.3497 37.7185Z" fill="white"/>
<path d="M80.0065 30.6272C82.8464 30.6315 85.6238 29.7934 87.9872 28.2188C90.3506 26.6442 92.1939 24.404 93.2837 21.7815C94.3735 19.1591 94.6609 16.2723 94.1096 13.4865C93.5583 10.7006 92.193 8.14083 90.1865 6.13113C88.18 4.12143 85.6224 2.75211 82.8374 2.19638C80.0524 1.64065 77.1652 1.92351 74.541 3.00918C71.9168 4.09484 69.6736 5.93448 68.0953 8.29539C66.517 10.6563 65.6745 13.4323 65.6743 16.2722C65.6727 18.1559 66.0422 20.0213 66.7617 21.7622C67.4811 23.503 68.5364 25.0851 69.8673 26.4181C71.1982 27.7511 72.7786 28.8089 74.5183 29.5311C76.258 30.2533 78.1229 30.6257 80.0065 30.6272Z" fill="white"/>
<path d="M53.9321 31.6665C55.4721 31.6691 56.9782 31.2148 58.2599 30.3611C59.5416 29.5074 60.5414 28.2927 61.1325 26.8707C61.7236 25.4487 61.8796 23.8833 61.5808 22.3726C61.2819 20.8619 60.5416 19.4738 59.4536 18.3839C58.3656 17.2941 56.9787 16.5515 55.4685 16.2501C53.9583 15.9487 52.3927 16.102 50.9697 16.6907C49.5466 17.2795 48.3303 18.2771 47.4744 19.5574C46.6186 20.8376 46.1617 22.343 46.1617 23.883C46.1603 25.9455 46.978 27.9242 48.4352 29.3838C49.8923 30.8434 51.8696 31.6645 53.9321 31.6665Z" fill="#0A2759"/>
<path d="M82.4243 22.1538C83.964 22.1562 85.4697 21.7017 86.751 20.848C88.0323 19.9944 89.0316 18.7798 89.6224 17.358C90.2133 15.9363 90.3692 14.3712 90.0703 12.8608C89.7714 11.3504 89.0312 9.96268 87.9434 8.8731C86.8556 7.78351 85.4691 7.04109 83.9592 6.73975C82.4493 6.43841 80.8839 6.5917 79.4612 7.18022C78.0385 7.76875 76.8223 8.76607 75.9665 10.046C75.1108 11.3259 74.6539 12.8309 74.6537 14.3705C74.6528 15.3918 74.8531 16.4033 75.2432 17.3472C75.6332 18.2911 76.2053 19.1489 76.9269 19.8717C77.6485 20.5944 78.5054 21.168 79.4486 21.5596C80.3919 21.9511 81.403 22.1531 82.4243 22.1538Z" fill="#0A2759"/>
<path d="M71.7693 46.0625C38.5835 46.0625 28.2127 30.928 27.7979 30.2865C27.6253 29.9945 27.5715 29.6474 27.6475 29.3169C27.7276 28.9814 27.9289 28.6874 28.2127 28.4914C28.5355 28.3291 28.9033 28.2793 29.2576 28.35C29.6064 28.4171 29.9213 28.6026 30.149 28.8752C30.2877 29.0039 40.2431 43.3684 71.9082 43.3684H72.323C94.4468 43.3684 109.796 29.9004 109.934 29.774C110.2 29.5366 110.545 29.4054 110.902 29.4054C111.259 29.4054 111.603 29.5366 111.87 29.774C111.994 29.888 112.094 30.0267 112.162 30.1812C112.23 30.3357 112.265 30.5028 112.265 30.6716C112.265 30.8405 112.23 31.0075 112.162 31.1621C112.094 31.3166 111.994 31.4553 111.87 31.5693C111.178 32.2105 95.5531 45.9337 72.323 45.9337L71.7693 46.0625Z" fill="#0A2759"/>
</svg>
