<svg width="339" height="170" viewBox="0 0 339 170" fill="none" xmlns="http://www.w3.org/2000/svg">
<path d="M260.731 96.5533C266.025 89.6703 292.763 87.5525 305.205 89.4056C320.295 91.5234 322.413 81.7284 313.677 79.8753C321.089 80.14 324.001 71.1392 314.206 69.8155C321.354 69.5508 321.883 64.2562 316.853 61.6089C297.528 53.9317 262.054 56.0496 249.082 75.9043C237.964 92.3176 248.818 104.76 260.731 96.5533Z" fill="#070723"/>
<path d="M91.5681 83.3169C70.6544 71.9335 38.3573 86.7584 25.1208 102.642C21.944 107.407 24.856 111.908 31.2096 108.731C23.2677 114.555 30.1507 120.909 36.5042 117.467C29.6212 123.027 35.9747 130.968 48.4171 121.968C58.7416 114.29 83.0967 103.701 91.0387 107.143C105.334 108.996 109.305 92.8472 91.5681 83.3169Z" fill="#070723"/>
<path d="M51.0636 132.557C47.0927 124.879 46.2985 99.7301 75.9483 93.1118C75.9483 93.1118 80.4487 48.3723 136.572 50.2254C136.572 50.2254 149.014 29.5765 184.223 31.959C213.873 33.8121 219.432 50.7549 219.432 50.7549C219.432 50.7549 258.348 55.7848 268.407 89.1409C268.407 89.1409 293.557 90.994 301.234 114.82C306.264 130.968 302.293 143.675 286.674 150.029C258.612 161.412 68.8006 166.707 51.0636 132.557Z" fill="#20204C"/>
<path d="M161.456 88.6114C163.574 88.6114 165.692 88.3467 167.545 87.5525C169.398 86.7583 171.251 85.6994 172.839 84.111C174.428 82.5226 175.487 80.9342 176.281 79.0811C177.075 77.228 177.605 75.1102 177.605 72.9923C177.605 70.8745 177.075 68.7566 176.281 66.9035C175.487 65.0504 174.163 63.1973 172.839 61.8736C171.251 60.2853 169.663 59.2263 167.545 58.4321C165.692 57.6379 163.574 57.3732 161.456 57.3732C157.22 57.3732 153.249 58.9616 150.073 61.8736C147.161 64.7857 145.307 68.7566 145.307 72.9923C145.307 77.228 147.161 81.199 150.073 84.111C153.249 87.023 157.22 88.8761 161.456 88.6114Z" fill="white"/>
<path d="M164.106 79.3459C166.223 79.3459 168.077 78.5517 169.4 77.2281C170.724 75.9044 171.518 73.7866 171.518 71.9335C171.518 70.8745 171.253 70.0803 170.989 69.0214C170.724 68.2272 169.93 67.1683 169.4 66.6388C168.606 65.8447 167.812 65.3152 167.018 65.0504C166.223 64.7857 165.164 64.521 164.106 64.521C161.988 64.521 160.135 65.3152 158.811 66.6388C157.487 67.9625 156.693 70.0803 156.693 71.9335C156.693 74.0513 157.487 75.9044 158.811 77.2281C160.135 78.5517 162.252 79.3459 164.106 79.3459Z" fill="#000207"/>
<path d="M191.637 88.6114C193.754 88.6114 195.872 88.3467 197.725 87.5525C199.578 86.7583 201.432 85.6994 203.02 84.111C204.608 82.5226 205.667 80.9342 206.461 79.0811C207.256 77.228 207.785 75.1102 207.785 72.9923C207.785 70.8745 207.256 68.7566 206.461 66.9035C205.667 65.0504 204.344 63.1973 203.02 61.8736C201.432 60.2853 199.843 59.2263 197.725 58.4321C195.872 57.6379 193.754 57.3732 191.637 57.3732C189.519 57.3732 187.401 57.6379 185.548 58.4321C183.695 59.2263 181.842 60.2853 180.253 61.8736C178.665 63.462 177.606 65.0504 176.812 66.9035C176.017 68.7566 175.488 70.8745 175.488 72.9923C175.488 75.1102 176.017 77.228 176.812 79.0811C177.606 80.9342 178.929 82.7873 180.253 84.111C181.842 85.6994 183.43 86.7583 185.548 87.5525C187.666 88.3467 189.519 88.6114 191.637 88.6114Z" fill="white"/>
<path d="M189.518 79.3459C191.636 79.3459 193.489 78.5517 194.813 77.2281C196.137 75.9044 196.931 73.7866 196.931 71.9335C196.931 70.8745 196.666 70.0803 196.401 69.0214C196.137 68.2272 195.342 67.1683 194.813 66.6388C194.019 65.8447 193.225 65.3152 192.43 65.0504C191.636 64.7857 190.577 64.521 189.518 64.521C187.401 64.521 185.547 65.3152 184.224 66.6388C182.9 67.9625 182.106 70.0803 182.106 71.9335C182.106 73.7866 182.9 75.9044 184.224 77.2281C185.547 78.5517 187.665 79.3459 189.518 79.3459Z" fill="#000207"/>
<path d="M138.162 116.408C135.25 112.702 153.516 97.6123 177.872 97.3475C203.815 96.8181 219.964 113.496 215.993 116.408C212.022 119.32 202.492 104.76 178.401 104.495C156.429 103.966 141.868 121.438 138.162 116.408Z" stroke="#2050CE" stroke-width="11.5131" stroke-miterlimit="10"/>
<path d="M140.279 114.82C162.781 96.2885 195.608 95.759 214.933 114.82" stroke="#19193D" stroke-width="3.30648" stroke-miterlimit="10" stroke-linecap="round"/>
<path d="M179.633 69.897C198.408 66.9338 212.482 57.2729 211.069 48.3186C209.656 39.3644 193.29 34.5077 174.515 37.4709C155.74 40.4341 141.665 50.095 143.079 59.0492C144.492 68.0034 160.858 72.8601 179.633 69.897Z" fill="#20204C"/>
<path d="M240.317 104.403C245.256 83.0357 238.405 63.2051 225.015 60.11C211.625 57.015 196.766 71.8277 191.827 93.195C186.888 114.562 193.739 134.393 207.13 137.488C220.52 140.583 235.378 125.77 240.317 104.403Z" fill="#20204C"/>
<path d="M154.567 134.942C164.377 130.041 165.337 112.072 156.713 94.8073C148.088 77.5421 133.144 67.5186 123.334 72.4191C113.524 77.3196 112.564 95.2884 121.188 112.553C129.813 129.819 144.757 139.842 154.567 134.942Z" fill="#20204C"/>
</svg>
