<svg width="128" height="64" viewBox="0 0 128 64" fill="none" xmlns="http://www.w3.org/2000/svg">
<path d="M98.4888 36.4723C100.489 33.8723 110.589 33.0723 115.289 33.7723C120.989 34.5723 121.789 30.8723 118.489 30.1723C121.289 30.2723 122.389 26.8723 118.689 26.3723C121.389 26.2723 121.589 24.2723 119.689 23.2723C112.389 20.3723 98.9888 21.1723 94.0888 28.6723C89.8888 34.8723 93.9888 39.5723 98.4888 36.4723Z" fill="#070723"/>
<path d="M34.589 31.4723C26.689 27.1723 14.489 32.7723 9.48903 38.7723C8.28903 40.5723 9.38903 42.2723 11.789 41.0723C8.78903 43.2723 11.389 45.6723 13.789 44.3723C11.189 46.4723 13.589 49.4723 18.289 46.0723C22.189 43.1723 31.389 39.1723 34.389 40.4723C39.789 41.1723 41.289 35.0723 34.589 31.4723Z" fill="#070723"/>
<path d="M19.2888 50.0723C17.7888 47.1723 17.4888 37.6723 28.6888 35.1723C28.6888 35.1723 30.3888 18.2723 51.5888 18.9723C51.5888 18.9723 56.2888 11.1723 69.5888 12.0723C80.7888 12.7723 82.8888 19.1723 82.8888 19.1723C82.8888 19.1723 97.5888 21.0723 101.389 33.6723C101.389 33.6723 110.889 34.3723 113.789 43.3723C115.689 49.4723 114.189 54.2723 108.289 56.6723C97.6888 60.9723 25.9888 62.9723 19.2888 50.0723Z" fill="#20204C"/>
<path d="M60.9889 33.4723C61.7889 33.4723 62.5889 33.3723 63.2889 33.0723C63.9889 32.7723 64.6889 32.3723 65.2889 31.7723C65.8889 31.1723 66.2889 30.5723 66.5889 29.8723C66.8889 29.1723 67.0889 28.3723 67.0889 27.5723C67.0889 26.7723 66.8889 25.9723 66.5889 25.2723C66.2889 24.5723 65.7889 23.8723 65.2889 23.3723C64.6889 22.7723 64.0889 22.3723 63.2889 22.0723C62.5889 21.7723 61.7889 21.6723 60.9889 21.6723C59.3889 21.6723 57.8889 22.2723 56.6889 23.3723C55.5889 24.4723 54.8889 25.9723 54.8889 27.5723C54.8889 29.1723 55.5889 30.6723 56.6889 31.7723C57.8889 32.8723 59.3889 33.5723 60.9889 33.4723Z" fill="white"/>
<path d="M61.989 29.9723C62.789 29.9723 63.489 29.6723 63.989 29.1723C64.489 28.6723 64.789 27.8723 64.789 27.1723C64.789 26.7723 64.689 26.4723 64.589 26.0723C64.489 25.7723 64.189 25.3723 63.989 25.1723C63.689 24.8723 63.389 24.6723 63.089 24.5723C62.789 24.4723 62.389 24.3723 61.989 24.3723C61.189 24.3723 60.489 24.6723 59.989 25.1723C59.489 25.6723 59.189 26.4723 59.189 27.1723C59.189 27.9723 59.489 28.6723 59.989 29.1723C60.489 29.6723 61.289 29.9723 61.989 29.9723Z" fill="#000207"/>
<path d="M72.3891 33.4723C73.1891 33.4723 73.9891 33.3723 74.6891 33.0723C75.3891 32.7723 76.0891 32.3723 76.6891 31.7723C77.2891 31.1723 77.689 30.5723 77.989 29.8723C78.289 29.1723 78.489 28.3723 78.489 27.5723C78.489 26.7723 78.289 25.9723 77.989 25.2723C77.689 24.5723 77.1891 23.8723 76.6891 23.3723C76.0891 22.7723 75.4891 22.3723 74.6891 22.0723C73.9891 21.7723 73.1891 21.6723 72.3891 21.6723C71.5891 21.6723 70.7891 21.7723 70.0891 22.0723C69.3891 22.3723 68.6891 22.7723 68.0891 23.3723C67.4891 23.9723 67.0891 24.5723 66.7891 25.2723C66.4891 25.9723 66.2891 26.7723 66.2891 27.5723C66.2891 28.3723 66.4891 29.1723 66.7891 29.8723C67.0891 30.5723 67.5891 31.2723 68.0891 31.7723C68.6891 32.3723 69.2891 32.7723 70.0891 33.0723C70.8891 33.3723 71.5891 33.4723 72.3891 33.4723Z" fill="white"/>
<path d="M71.5891 29.9723C72.3891 29.9723 73.0891 29.6723 73.5891 29.1723C74.0891 28.6723 74.3891 27.8723 74.3891 27.1723C74.3891 26.7723 74.2891 26.4723 74.1891 26.0723C74.0891 25.7723 73.7891 25.3723 73.5891 25.1723C73.2891 24.8723 72.9891 24.6723 72.6891 24.5723C72.3891 24.4723 71.9891 24.3723 71.5891 24.3723C70.7891 24.3723 70.0891 24.6723 69.5891 25.1723C69.0891 25.6723 68.7891 26.4723 68.7891 27.1723C68.7891 27.8723 69.0891 28.6723 69.5891 29.1723C70.0891 29.6723 70.8891 29.9723 71.5891 29.9723Z" fill="#000207"/>
<path d="M52.1891 43.9723C51.0891 42.5723 57.9891 36.8723 67.1891 36.7723C76.9891 36.5723 83.0891 42.8723 81.5891 43.9723C80.0891 45.0723 76.4891 39.5723 67.3891 39.4723C59.0891 39.2723 53.5891 45.8723 52.1891 43.9723Z" stroke="#2050CE" stroke-width="4.349" stroke-miterlimit="10"/>
<path d="M52.989 43.3723C61.489 36.3723 73.889 36.1723 81.189 43.3723" stroke="#19193D" stroke-width="1.249" stroke-miterlimit="10" stroke-linecap="round"/>
<path d="M67.8551 26.4031C74.9473 25.2838 80.2638 21.6344 79.73 18.252C79.1961 14.8696 73.0141 13.035 65.922 14.1544C58.8299 15.2737 53.5133 18.923 54.0471 22.3054C54.581 25.6878 60.763 27.5224 67.8551 26.4031Z" fill="#20204C"/>
<path d="M90.7779 39.4375C92.6435 31.3662 90.0555 23.8753 84.9974 22.7061C79.9394 21.537 74.3266 27.1324 72.461 35.2038C70.5954 43.2751 73.1834 50.766 78.2414 51.9351C83.2995 53.1043 88.9122 47.5089 90.7779 39.4375Z" fill="#20204C"/>
<path d="M58.3871 50.9732C62.0926 49.1221 62.4555 42.3345 59.1975 35.8127C55.9395 29.2909 50.2944 25.5046 46.5889 27.3557C42.8833 29.2069 42.5205 35.9944 45.7785 42.5162C49.0365 49.038 54.6815 52.8243 58.3871 50.9732Z" fill="#20204C"/>
<rect x="44" y="1" width="42" height="8" rx="4" fill="#19193D"/>
<path d="M46 5C46 3.89543 46.8954 3 48 3H82C83.1046 3 84 3.89543 84 5C84 6.10457 83.1046 7 82 7H48C46.8954 7 46 6.10457 46 5Z" fill="#05D344"/>
</svg>
