<svg width="133" height="105" viewBox="0 0 133 105" fill="none" xmlns="http://www.w3.org/2000/svg">
<path d="M64.2973 104.933C-3.63242 104.094 7.40957 55.6024 7.40957 55.6024C7.40957 55.6024 0.0016682 60.633 0.0016682 56.4414C-0.277863 24.5773 34.6654 16.4727 34.6654 16.4727C34.6654 16.4727 25.021 4.73315 29.2142 1.93942C41.9328 -6.44574 72.1246 15.074 72.1246 15.074C72.1246 15.074 94.2084 -5.88767 110.283 1.93942C114.895 4.17448 99.6594 19.6868 99.6594 19.6868C99.6594 19.6868 129.851 31.146 132.366 51.2705C133.065 57 120.627 53.9251 120.627 53.9251C120.627 53.9251 135.86 105.772 64.2973 104.933Z" fill="#F728E2"/>
<path d="M50.8796 65.9438C54.994 65.944 58.9399 64.3099 61.8494 61.4009C64.759 58.4918 66.3938 54.5462 66.3943 50.4319C66.3937 46.3176 64.7589 42.3719 61.8494 39.4629C58.9399 36.5539 54.994 34.9198 50.8796 34.92C46.7653 34.9197 42.8193 36.5539 39.9097 39.4629C37.0002 42.3719 35.3653 46.3175 35.3647 50.4319C35.3653 54.5462 37.0002 58.4918 39.9097 61.4009C42.8193 64.3099 46.7653 65.944 50.8796 65.9438Z" fill="white"/>
<path d="M77.8529 65.9438C81.9673 65.9439 85.9134 64.3098 88.8231 61.4009C91.7329 58.4919 93.368 54.5463 93.369 50.4319C93.368 46.3174 91.7329 42.3718 88.8231 39.4629C85.9134 36.5539 81.9673 34.9198 77.8529 34.92C73.7386 34.9198 69.7927 36.554 66.8832 39.463C63.9737 42.372 62.3389 46.3176 62.3384 50.4319C62.3389 54.5462 63.9737 58.4918 66.8832 61.4008C69.7927 64.3098 73.7386 65.9439 77.8529 65.9438Z" fill="white"/>
<path d="M48.2217 58.3979C49.3414 58.398 50.4501 58.1775 51.4845 57.7491C52.5189 57.3207 53.4588 56.6928 54.2506 55.9011C55.0423 55.1095 55.6704 54.1697 56.0989 53.1353C56.5274 52.1009 56.7479 50.9923 56.748 49.8726C56.7476 47.6116 55.8491 45.4432 54.2502 43.8444C52.6513 42.2457 50.4828 41.3475 48.2217 41.3474C45.9606 41.3474 43.7921 42.2456 42.1932 43.8444C40.5943 45.4431 39.6959 47.6115 39.6956 49.8726C39.6956 50.9923 39.9161 52.1009 40.3446 53.1353C40.7731 54.1697 41.4011 55.1096 42.1929 55.9012C42.9846 56.6929 43.9245 57.3208 44.959 57.7492C45.9934 58.1775 47.1021 58.398 48.2217 58.3979Z" fill="#0A2759"/>
<path d="M80.6502 57.699C82.9114 57.699 85.08 56.8008 86.679 55.2021C88.2781 53.6033 89.1767 51.4349 89.1772 49.1737C89.1767 46.9125 88.2781 44.7441 86.679 43.1454C85.08 41.5467 82.9114 40.6485 80.6502 40.6485C78.3891 40.6486 76.2207 41.5468 74.6219 43.1455C73.0231 44.7443 72.1249 46.9127 72.1248 49.1737C72.1249 51.4348 73.0231 53.6032 74.6219 55.2019C76.2207 56.8007 78.3891 57.6989 80.6502 57.699Z" fill="#0A2759"/>
<path d="M64.8562 73.2114C31.0311 73.2114 19.9889 64.6862 19.4298 64.4058C19.1545 64.1687 18.9745 63.8398 18.9231 63.48C18.8717 63.1203 18.9524 62.7541 19.1503 62.4493C19.3876 62.174 19.7166 61.9941 20.0765 61.9429C20.4363 61.8917 20.8025 61.9726 21.1072 62.1708C21.2471 62.311 32.4287 70.696 66.3937 70.4157C90.0162 70.2756 108.885 61.3318 109.165 61.1918C109.863 60.9132 110.702 61.1917 110.982 61.8906C111.262 62.5896 110.982 63.4286 110.283 63.7069C109.444 64.1273 90.5753 73.0711 66.3941 73.2114H64.8562Z" fill="#0A2759"/>
</svg>
