<svg width="125" height="134" viewBox="0 0 125 134" fill="none" xmlns="http://www.w3.org/2000/svg">
<path d="M63.2373 133.503C2.15593 132.524 14.0373 56.082 14.0373 56.082C14.0373 56.082 -1.05859 25.756 0.0591412 20.5852C2.15593 10.9424 37.9376 31.0651 37.9376 31.0651C37.9376 31.0651 27.8726 5.77179 31.7877 1.99861C43.2487 -8.76148 65.6118 27.4324 65.6118 27.4324C65.6118 27.4324 90.3518 -7.92427 104.749 1.99861C108.942 4.9326 95.3844 29.529 95.3844 29.529C95.3844 29.529 122.5 11.221 124.596 18.4886C126.553 25.616 113.554 54.404 113.554 54.404C113.554 54.404 127.671 134.62 63.2373 133.503Z" fill="#F728E2"/>
<path d="M50.0981 69.0778C52.1354 69.0781 54.1527 68.6771 56.035 67.8977C57.9173 67.1183 59.6276 65.9758 61.0682 64.5353C62.5089 63.0949 63.6517 61.3848 64.4314 59.5026C65.2111 57.6205 65.6124 55.6032 65.6124 53.5659C65.6123 51.5288 65.2108 49.5116 64.4311 47.6296C63.6513 45.7476 62.5085 44.0376 61.0678 42.5972C59.6272 41.1569 57.9169 40.0145 56.0347 39.2351C54.1525 38.4558 52.1353 38.0548 50.0981 38.0551C45.9837 38.0545 42.0376 39.6883 39.1278 42.5971C36.218 45.5059 34.5828 49.4515 34.582 53.5659C34.5826 57.6805 36.2177 61.6263 39.1275 64.5353C42.0373 67.4444 45.9835 69.0783 50.0981 69.0778Z" fill="#9B20AF"/>
<path d="M77.0739 69.0778C79.1111 69.0781 81.1285 68.6771 83.0108 67.8977C84.893 67.1183 86.6033 65.9758 88.044 64.5353C89.4847 63.0949 90.6275 61.3848 91.4072 59.5026C92.1869 57.6205 92.5882 55.6032 92.5882 53.5659C92.588 51.5288 92.1866 49.5116 91.4068 47.6296C90.6271 45.7476 89.4842 44.0376 88.0436 42.5972C86.6029 41.1569 84.8927 40.0145 83.0105 39.2351C81.1283 38.4558 79.111 38.0548 77.0739 38.0551C72.9595 38.0546 69.0134 39.6884 66.1037 42.5972C63.1939 45.506 61.5588 49.4516 61.558 53.5659C61.5586 57.6804 63.1936 61.6262 66.1034 64.5352C69.0131 67.4443 72.9594 69.0783 77.0739 69.0778Z" fill="#9B20AF"/>
<path d="M59.463 61.1133C59.2443 61.1243 59.0266 61.0786 58.8308 60.9806C58.635 60.8827 58.4678 60.7359 58.3455 60.5544C51.0762 51.8891 40.3142 48.2564 40.3142 48.2564C40.1386 48.1939 39.9772 48.097 39.8396 47.9713C39.7019 47.8457 39.5908 47.6938 39.5126 47.5246C39.4344 47.3554 39.3908 47.1723 39.3844 46.9861C39.3779 46.7998 39.4087 46.6141 39.475 46.4399C39.5374 46.2641 39.6344 46.1026 39.7602 45.9648C39.886 45.827 40.038 45.7157 40.2074 45.6376C40.3768 45.5594 40.5601 45.5159 40.7466 45.5095C40.9331 45.5032 41.1189 45.5342 41.2932 45.6008C41.7118 45.741 52.8945 49.514 60.7206 58.7354C60.8448 58.8706 60.9402 59.0297 61.0008 59.2031C61.0614 59.3764 61.0859 59.5604 61.0729 59.7435C61.0599 59.9267 61.0097 60.1053 60.9253 60.2684C60.8408 60.4314 60.724 60.5756 60.5819 60.6919C60.2542 60.9316 59.8674 61.0773 59.463 61.1133Z" fill="#0A2759"/>
<path d="M67.291 61.1133C66.9895 61.1066 66.697 61.0089 66.452 60.833C65.8931 60.2743 65.7531 59.4351 66.3119 58.8764C73.9998 49.6541 85.1822 45.8793 85.7411 45.7418C86.44 45.4615 87.279 45.8805 87.5575 46.579C87.8361 47.2776 87.4173 48.1169 86.7183 48.3955C86.5797 48.3955 75.8162 52.0302 68.6888 60.6937C68.13 60.9732 67.7096 61.1133 67.291 61.1133Z" fill="#0A2759"/>
<path d="M94.9649 112.261C88.3962 120.227 77.4941 113.659 64.9137 113.659C50.7973 113.659 41.2928 121.345 34.8626 114.077C26.6159 104.855 24.5192 91.8579 28.0138 80.3988C30.6685 71.8736 83.5041 65.5853 97.6203 78.0215C106.428 85.848 104.331 100.942 94.9649 112.261Z" fill="#6C0490"/>
<path d="M94.9651 112.261C88.3964 120.227 78.0529 126.235 65.6129 126.235C51.4964 126.235 41.293 121.345 34.8628 114.077C39.0562 109.745 47.5814 103.597 63.376 102.758C74.703 102.048 85.9098 105.419 94.9651 112.261Z" fill="#9B20AF"/>
</svg>
