<svg width="113" height="140" viewBox="0 0 113 140" fill="none" xmlns="http://www.w3.org/2000/svg">
<path d="M0 72.7804C0 56.9303 6.00806 38.7166 15.7245 30.2777C25.4408 20.8315 38.8636 21.1594 53.6917 19.0975C68.5197 17.0356 81.9406 29.3815 91.657 39.364C101.373 50.3549 107.383 58.9813 107.383 72.7804C107.383 88.6291 101.373 106.844 91.657 115.282C81.9406 124.729 68.5179 124.4 53.6917 126.462C38.8654 128.524 25.4414 116.178 15.7245 106.197C6.01043 95.2055 0 86.5793 0 72.7804Z" fill="#FFC400"/>
<path d="M22.0898 69.0785C22.0898 78.663 25.7245 89.6765 31.5991 94.779C37.4742 100.491 45.5897 100.293 54.5569 101.539C63.5241 102.786 71.6379 95.3206 77.513 89.285C83.3881 82.6395 87.0222 77.4221 87.0222 69.0795C87.0222 59.4958 83.3875 48.4815 77.513 43.379C71.6379 37.6668 63.5223 37.8658 54.5569 36.6195C45.5915 35.3732 37.4742 42.8376 31.5991 48.873C25.7245 55.5184 22.0898 60.7342 22.0898 69.0785Z" fill="#FF9500"/>
<path d="M46.1975 77.2676C47.7462 74.9325 49.6236 74.3554 52.6026 73.5083C55.4324 72.8797 59.3652 71.987 61.6255 74.1371C63.8857 76.2871 66.4423 77.4702 67.0479 80.2022C67.8007 82.7166 66.5986 86.7748 64.7552 89.5614C63.2083 91.8961 61.3291 92.4736 58.3519 93.3215C55.5203 93.9501 51.5892 94.8418 49.3272 92.6927C47.0652 90.5436 44.5104 89.3611 43.905 86.6284C43.154 84.1168 44.3506 80.054 46.1975 77.2676Z" fill="#0A2759"/>
<path d="M9.23683 23.3292C8.90641 23.3289 8.58247 23.2374 8.30074 23.0647C8.019 22.8923 7.79028 22.6455 7.63967 22.3515C7.48877 22.0576 7.4222 21.7276 7.44732 21.3982C7.47243 21.069 7.58741 20.753 7.77974 20.4846L18.3621 5.77851C18.5738 5.48543 18.8686 5.26275 19.2084 5.13926C19.548 5.01615 19.9167 4.99826 20.2665 5.08794L28.7198 7.25843L45.2996 0.146292C45.7205 -0.0354365 46.1953 -0.0483229 46.6255 0.110259L66.7159 7.46244C67.1583 7.62957 67.5167 7.96484 67.713 8.39514C67.9099 8.82516 67.9293 9.31554 67.7669 9.75975C67.604 10.2036 67.2729 10.5656 66.8453 10.7673C66.4168 10.9688 65.9261 10.9932 65.4797 10.8353L46.0613 3.73107L29.5697 10.7994C29.2057 10.9559 28.8002 10.9875 28.4163 10.8892L20.5596 8.87222L10.6921 22.5813C10.5263 22.8125 10.3077 23.0007 10.0544 23.1303C9.80146 23.2604 9.52126 23.3285 9.23683 23.3292Z" fill="#FF9500"/>
<path d="M80.5966 139.705C80.548 139.706 80.4994 139.704 80.451 139.698L59.1282 137.977C58.8928 137.958 58.6634 137.893 58.4531 137.785C58.2429 137.678 58.0559 137.53 57.9029 137.35C57.5942 136.987 57.4424 136.516 57.4807 136.041C57.4996 135.806 57.5647 135.577 57.6723 135.367C57.7798 135.157 57.9278 134.97 58.1077 134.817C58.2875 134.664 58.4958 134.548 58.7205 134.476C58.9452 134.403 59.1821 134.376 59.4174 134.395L80.0289 136.059L94.0266 124.841C94.3364 124.593 94.7195 124.455 95.1162 124.447L103.228 124.293L109.075 108.446C109.247 108.009 109.583 107.657 110.011 107.464C110.439 107.272 110.926 107.255 111.367 107.418C111.808 107.58 112.168 107.909 112.37 108.334C112.571 108.759 112.598 109.245 112.445 109.689L106.173 126.687C106.049 127.026 105.824 127.32 105.53 127.529C105.235 127.738 104.885 127.854 104.524 127.862L95.7971 128.027L81.7203 139.308C81.4019 139.564 81.0055 139.704 80.5966 139.705Z" fill="#FF9500"/>
</svg>
