<svg width="136" height="95" viewBox="0 0 136 95" fill="none" xmlns="http://www.w3.org/2000/svg">
<path d="M127.801 9.90337L8.26861 85.0796C7.24675 85.7567 6.02258 86.0606 4.80267 85.9401C3.58281 85.8199 2.44176 85.2825 1.57228 84.4185C0.703212 83.5544 0.158223 82.4175 0.0290026 81.1988C-0.0986671 79.9797 0.197695 78.7538 0.868063 77.7276C10.5754 62.0211 27.59 39.4101 52.9176 23.4376C78.2452 7.46508 106.106 1.94058 124.42 0.0270446C130.048 -0.50468 132.605 6.95492 127.801 9.90337Z" fill="#FFDE22"/>
<path d="M8.0025 84.7078L127.537 9.53165C128.559 8.85429 129.783 8.55031 131.003 8.67107C132.222 8.79072 133.363 9.32829 134.232 10.1927C135.102 11.0567 135.647 12.1946 135.775 13.4142C135.903 14.6333 135.607 15.8592 134.936 16.8852C125.333 32.5487 108.214 55.2011 82.8865 71.1734C57.5589 87.1457 29.8022 92.6286 11.3864 94.5842C5.79637 95.2201 3.23956 87.7603 8.0025 84.7078Z" fill="#FFDE22"/>
<path d="M49.1019 47.2059C50.839 46.5272 52.4254 45.513 53.7704 44.2211C55.1155 42.9293 56.193 41.3851 56.9412 39.6769C57.6895 37.9686 58.094 36.1296 58.1315 34.265C58.1691 32.4005 57.839 30.5468 57.1601 28.8097C56.4816 27.0725 55.4674 25.4859 54.1757 24.1406C52.8839 22.7952 51.3398 21.7176 49.6315 20.9691C47.9232 20.2207 46.0841 19.816 44.2194 19.7784C42.3547 19.7408 40.5009 20.0709 38.7638 20.7499C37.0265 21.4286 35.4399 22.4428 34.0946 23.7348C32.7493 25.0267 31.6716 26.571 30.9232 28.2795C30.1748 29.9879 29.7702 31.827 29.7326 33.6919C29.695 35.5567 30.0252 37.4106 30.7042 39.1478C31.3831 40.885 32.3975 42.4714 33.6895 43.8165C34.9815 45.1615 36.5258 46.2389 38.2342 46.9872C39.9426 47.7355 41.7816 48.1399 43.6463 48.1775C45.511 48.215 47.3648 47.8848 49.1019 47.2059Z" fill="white"/>
<path d="M69.9574 33.8153C71.6947 33.1368 73.2813 32.1227 74.6265 30.8309C75.9718 29.5392 77.0495 27.995 77.7979 26.2867C78.5464 24.5784 78.9509 22.7394 78.9886 20.8747C79.0263 19.0101 78.6962 17.1563 78.0173 15.4192C77.3386 13.6818 76.3244 12.0952 75.0325 10.7499C73.7406 9.40454 72.1963 8.32692 70.4879 7.57847C68.7795 6.83003 66.9403 6.42544 65.0755 6.38784C63.2107 6.35023 61.3568 6.68032 59.6196 7.35928C56.1116 8.73027 53.2917 11.4385 51.7803 14.8883C50.2688 18.3381 50.1895 22.247 51.5597 25.7553C52.2384 27.4926 53.2527 29.0792 54.5446 30.4245C55.8365 31.7697 57.3808 32.8474 59.0892 33.5959C60.7976 34.3443 62.6367 34.7489 64.5015 34.7866C66.3663 34.8242 68.2202 34.4942 69.9574 33.8153Z" fill="white"/>
<path d="M44.5249 42.2039C45.475 41.8328 46.3428 41.2781 47.0786 40.5716C47.8143 39.8651 48.4036 39.0205 48.8129 38.0862C49.2222 37.1519 49.4433 36.1461 49.4638 35.1263C49.4843 34.1065 49.3037 33.0926 48.9322 32.1426C48.5611 31.1925 48.0065 30.3248 47.3 29.5891C46.5934 28.8533 45.7488 28.264 44.8145 27.8548C43.8802 27.4455 42.8744 27.2243 41.8546 27.2039C40.8348 27.1834 39.821 27.364 38.871 27.7354C36.9525 28.4854 35.4104 29.9667 34.5839 31.8535C33.7574 33.7403 33.7141 35.8781 34.4636 37.7968C35.2136 39.7153 36.6949 41.2573 38.5817 42.0837C40.4685 42.9102 42.6062 42.9534 44.5249 42.2039Z" fill="#0A2759"/>
<path d="M69.1792 25.4232C70.1293 25.052 70.997 24.4974 71.7328 23.7908C72.4685 23.0843 73.0578 22.2398 73.4671 21.3054C73.8764 20.3711 74.0976 19.3653 74.1181 18.3455C74.1386 17.3257 73.958 16.3118 73.5865 15.3618C73.2154 14.4117 72.6607 13.544 71.9542 12.8082C71.2477 12.0725 70.4032 11.4832 69.4688 11.0739C68.5345 10.6646 67.5287 10.4434 66.5089 10.4229C65.4891 10.4024 64.4752 10.583 63.5252 10.9544C62.575 11.3256 61.7073 11.8802 60.9716 12.5868C60.2359 13.2933 59.6466 14.1378 59.2373 15.0722C58.828 16.0065 58.6068 17.0123 58.5863 18.0321C58.5658 19.0519 58.7464 20.0658 59.1178 21.0158C59.4889 21.9659 60.0436 22.8336 60.7501 23.5694C61.4566 24.3051 62.3012 24.8945 63.2356 25.3037C64.1699 25.713 65.1757 25.9342 66.1955 25.9547C67.2153 25.9752 68.2292 25.7946 69.1792 25.4232Z" fill="#0A2759"/>
<path d="M11.0987 84.0933C10.8675 84.147 10.6257 84.1314 10.4034 84.0485C10.1801 83.9674 9.98618 83.8217 9.84628 83.6298C9.76269 83.5062 9.70524 83.3668 9.67748 83.2203C9.65021 83.0733 9.65266 82.9225 9.68464 82.7765C9.71552 82.6301 9.77668 82.4917 9.86427 82.3704C9.9505 82.2484 10.0605 82.1451 10.1876 82.0667L122.266 11.5906C122.39 11.5077 122.53 11.4503 122.677 11.4216C122.824 11.3944 122.975 11.3968 123.121 11.4288C123.266 11.461 123.404 11.5221 123.525 11.6084C123.647 11.6947 123.75 11.8048 123.829 11.932C123.962 12.1784 123.996 12.4662 123.924 12.7369C123.854 13.0082 123.683 13.2426 123.446 13.3926L11.3051 84.0125L11.0987 84.0933Z" fill="#0A2759"/>
</svg>
