<svg width="76" height="75" viewBox="0 0 76 75" fill="none" xmlns="http://www.w3.org/2000/svg">
<path d="M1.03052 37.192C1.03052 48.1276 5.17597 60.6936 11.88 66.5155C18.5832 73.0333 27.8433 72.8066 38.0741 74.2289C48.3048 75.6511 57.5636 67.1334 64.2671 60.2469C70.9705 52.6647 75.1153 46.7117 75.1171 37.193C75.1171 26.2574 70.9705 13.6913 64.2671 7.87046C57.5636 1.35267 48.3034 1.57915 38.0741 0.157125C27.8447 -1.2649 18.5832 7.25158 11.88 14.139C5.17637 21.7203 1.03052 27.6713 1.03052 37.192Z" fill="#FF9500"/>
<path d="M31.2266 44.3521C32.3334 42.683 33.6748 42.2709 35.8029 41.6655C37.8258 41.2186 40.6367 40.5792 42.2509 42.1162C43.8651 43.6531 45.6931 44.4985 46.1256 46.4504C46.6636 48.2445 45.8068 51.1456 44.486 53.138C43.3803 54.8072 42.0388 55.2181 39.9097 55.8245C37.8868 56.2713 35.0778 56.9108 33.4616 55.3737C31.8455 53.8365 30.0203 52.9925 29.588 51.0396C29.0509 49.2453 29.9066 46.3429 31.2266 44.3521Z" fill="#0A2759"/>
<path d="M14.643 41.8745C22.73 41.8745 29.2859 35.2379 29.2859 27.0521C29.2859 18.8662 22.73 12.2296 14.643 12.2296C6.55603 12.2296 0 18.8662 0 27.0521C0 35.2379 6.55603 41.8745 14.643 41.8745Z" fill="white"/>
<path d="M12.1277 34.6879C13.1776 34.6879 14.2172 34.4811 15.1872 34.0793C16.1573 33.6776 17.0386 33.0886 17.781 32.3462C18.5235 31.6038 19.1124 30.7225 19.5142 29.7524C19.916 28.7824 20.1228 27.7427 20.1227 26.6928C20.1228 25.6428 19.916 24.6032 19.5142 23.6332C19.1124 22.6631 18.5236 21.7817 17.7811 21.0393C17.0387 20.2968 16.1573 19.7079 15.1872 19.3061C14.2172 18.9043 13.1776 18.6975 12.1277 18.6975C11.0777 18.6975 10.0381 18.9043 9.06802 19.3061C8.09799 19.7079 7.21656 20.2968 6.47413 21.0393C5.7317 21.7817 5.14277 22.6631 4.74097 23.6331C4.33917 24.6031 4.13232 25.6428 4.13232 26.6928C4.13232 27.7427 4.33916 28.7824 4.74097 29.7524C5.14277 30.7225 5.7317 31.6038 6.47413 32.3462C7.21656 33.0886 8.09799 33.6776 9.06802 34.0793C10.0381 34.4811 11.0777 34.6879 12.1277 34.6879Z" fill="#0A2759"/>
<path d="M60.5473 37.7422C62.482 37.7423 64.3978 37.3612 66.1852 36.6208C67.9727 35.8805 69.5969 34.7953 70.9649 33.4272C72.333 32.0592 73.4182 30.4351 74.1586 28.6476C74.899 26.8602 75.28 24.9444 75.28 23.0096C75.2801 21.0749 74.8991 19.159 74.1587 17.3715C73.4184 15.584 72.3332 13.9598 70.9651 12.5917C69.597 11.2236 67.9728 10.1383 66.1853 9.39793C64.3978 8.65752 62.482 8.27643 60.5473 8.27646C58.6125 8.27643 56.6967 8.6575 54.9093 9.39788C53.1218 10.1383 51.4977 11.2235 50.1296 12.5916C48.7616 13.9596 47.6764 15.5838 46.936 17.3712C46.1957 19.1587 45.8146 21.0745 45.8147 23.0092C45.8146 24.944 46.1956 26.8598 46.9359 28.6473C47.6763 30.4348 48.7615 32.059 50.1295 33.4271C51.4976 34.7952 53.1217 35.8804 54.9092 36.6208C56.6967 37.3612 58.6125 37.7423 60.5473 37.7422Z" fill="white"/>
<path d="M62.9727 29.8369C64.0286 29.831 65.0729 29.6173 66.0461 29.2078C67.0193 28.7983 67.9024 28.2011 68.6449 27.4504C69.3873 26.6996 69.9746 25.81 70.3732 24.8323C70.7718 23.8545 70.9739 22.8079 70.968 21.7521C70.9739 20.6962 70.7718 19.6495 70.3732 18.6718C69.9746 17.6941 69.3873 16.8044 68.6449 16.0537C67.9024 15.3029 67.0194 14.7057 66.0462 14.2962C65.073 13.8867 64.0286 13.6729 62.9727 13.667C60.8404 13.679 58.8001 14.5375 57.3008 16.0538C55.8014 17.57 54.9658 19.6197 54.9777 21.7521C54.9718 22.8079 55.1739 23.8545 55.5725 24.8322C55.9711 25.8099 56.5583 26.6995 57.3008 27.4503C58.0432 28.201 58.9262 28.7982 59.8994 29.2077C60.8726 29.6172 61.9169 29.831 62.9727 29.8369Z" fill="#0A2759"/>
</svg>
