<svg width="125" height="120" viewBox="0 0 125 120" fill="none" xmlns="http://www.w3.org/2000/svg">
<path d="M93.6858 37.0674H30.6189V105.145H93.6858V37.0674Z" fill="#FFB335"/>
<path d="M116.118 39.6687H8.29572C0.601965 39.6687 -2.97406 29.9147 2.98644 25.0366C16.6401 13.6567 38.096 0 62.2606 0C86.4251 0 107.882 13.6567 121.427 25.0366C122.756 26.1157 123.715 27.5821 124.172 29.232C124.63 30.8819 124.562 32.6334 123.978 34.2429C123.394 35.8522 122.323 37.2395 120.914 38.2117C119.506 39.184 117.829 39.6933 116.118 39.6687Z" fill="#FFDE22"/>
<path d="M8.29562 79.9882H116.118C117.829 79.9644 119.506 80.4736 120.915 81.4452C122.323 82.4185 123.394 83.8062 123.978 85.4157C124.562 87.0246 124.63 88.7756 124.172 90.4249C123.716 92.0752 122.757 93.5419 121.427 94.6203C107.882 106.002 86.426 119.659 62.2608 119.659C38.0957 119.659 16.6398 106.002 2.98673 94.6203C-2.97417 89.744 0.601861 79.9882 8.29562 79.9882Z" fill="#FFDE22"/>
<path d="M50.9915 69.9086C52.8132 69.9084 54.617 69.5494 56.3 68.8521C57.9829 68.1547 59.512 67.1327 60.8 65.8444C62.088 64.5561 63.1096 63.0268 63.8065 61.3436C64.5035 59.6605 64.862 57.8566 64.8618 56.0349C64.862 52.3558 63.4008 48.8274 60.7997 46.2255C58.1985 43.6237 54.6705 42.1617 50.9915 42.1609C47.3124 42.1616 43.7842 43.6236 41.183 46.2254C38.5819 48.8273 37.1206 52.3558 37.1208 56.0349C37.1206 57.8566 37.4792 59.6605 38.1761 61.3437C38.873 63.0268 39.8947 64.5562 41.1828 65.8445C42.4708 67.1328 43.9999 68.1548 45.6829 68.8521C47.3658 69.5494 49.1697 69.9085 50.9915 69.9086Z" fill="white"/>
<path d="M75.1563 69.9086C78.8355 69.9082 82.3637 68.4462 84.965 65.8444C87.5663 63.2426 89.0275 59.714 89.0272 56.0349C89.0273 52.3558 87.5661 48.8273 84.9648 46.2255C82.3636 43.6237 78.8354 42.1617 75.1563 42.1609C71.4773 42.1616 67.9491 43.6236 65.3479 46.2254C62.7467 48.8273 61.2856 52.3558 61.2859 56.0349C61.2856 57.8566 61.6442 59.6605 62.3411 61.3437C63.0381 63.0268 64.0596 64.5562 65.3476 65.8445C66.6356 67.1328 68.1647 68.1548 69.8477 68.8521C71.5307 69.5494 73.3346 69.9085 75.1563 69.9086Z" fill="white"/>
<path d="M48.6066 63.1892C50.6186 63.1887 52.5481 62.389 53.9706 60.9661C55.3931 59.5432 56.1922 57.6136 56.1922 55.6016C56.1922 53.5896 55.3931 51.66 53.9706 50.2371C52.5481 48.8142 50.6186 48.0146 48.6066 48.014C46.5947 48.0146 44.6653 48.8143 43.2428 50.2372C41.8203 51.66 41.0212 53.5896 41.0212 55.6016C41.0212 57.6136 41.8203 59.5432 43.2428 60.966C44.6653 62.3889 46.5947 63.1886 48.6066 63.1892Z" fill="#0A2759"/>
<path d="M77.649 62.5388C79.661 62.5383 81.5904 61.7387 83.0129 60.3158C84.4354 58.8929 85.2345 56.9633 85.2345 54.9513C85.2345 52.9393 84.4354 51.0096 83.0129 49.5867C81.5904 48.1638 79.661 47.3642 77.649 47.3637C75.6369 47.3641 73.7074 48.1637 72.2847 49.5866C70.8621 51.0095 70.063 52.9392 70.063 54.9513C70.063 56.9634 70.8621 58.893 72.2847 60.3159C73.7074 61.7388 75.6369 62.5384 77.649 62.5388Z" fill="#0A2759"/>
<path d="M62.9104 75.7622H62.6936C41.9962 75.6526 33.3273 66.3322 33.0022 65.8985C32.8546 65.6791 32.7926 65.4132 32.8277 65.1511C32.8625 64.8889 32.9921 64.6485 33.1922 64.4755C33.3918 64.302 33.6481 64.2074 33.9126 64.2097C34.1772 64.2129 34.4314 64.3126 34.6277 64.49C34.6277 64.5978 43.0798 73.4859 62.6936 73.5937H62.9104C83.0658 73.5937 89.7852 65.6812 89.7852 65.5733C89.9723 65.3594 90.2365 65.2282 90.52 65.2085C90.8043 65.188 91.0852 65.2805 91.3016 65.4661C91.5105 65.6528 91.6466 65.9074 91.6861 66.1848C91.7257 66.4621 91.6665 66.7445 91.519 66.9826C91.1937 67.3071 84.2588 75.7622 62.9104 75.7622Z" fill="#0A2759"/>
</svg>
